SplineFontDB: 3.0
FontName: Molengo
FullName: Molengo
FamilyName: Molengo
Weight: Book
Copyright: Copyright (c) Denis Moyogo Jacquerye, 2007. Some rights reserved.\nOFL 1.1
Version: 0.10
ItalicAngle: 0
UnderlinePosition: -196
UnderlineWidth: 90
Ascent: 1556
Descent: 492
LayerCount: 3
Layer: 0 1 "Back"  1
Layer: 1 1 "Fore"  0
Layer: 2 0 "Sketch"  1
NeedsXUIDChange: 1
XUID: [1021 786 1613055102 314323]
FSType: 0
OS2Version: 2
OS2_WeightWidthSlopeOnly: 0
OS2_UseTypoMetrics: 1
CreationTime: 1182169782
ModificationTime: 1274799109
PfmFamily: 17
TTFWeight: 400
TTFWidth: 5
LineGap: 61
VLineGap: 0
Panose: 2 0 0 0 0 0 0 0 0 0
OS2TypoAscent: 0
OS2TypoAOffset: 1
OS2TypoDescent: 0
OS2TypoDOffset: 1
OS2TypoLinegap: 61
OS2WinAscent: 208
OS2WinAOffset: 1
OS2WinDescent: -39
OS2WinDOffset: 1
HheadAscent: 208
HheadAOffset: 1
HheadDescent: 39
HheadDOffset: 1
OS2SubXSize: 1331
OS2SubYSize: 1229
OS2SubXOff: 0
OS2SubYOff: 154
OS2SupXSize: 1434
OS2SupYSize: 1331
OS2SupXOff: 0
OS2SupYOff: 977
OS2StrikeYSize: 102
OS2StrikeYPos: 512
OS2Vendor: 'PYRS'
Lookup: 5 0 0 "'ccmp' Contextual Alternates in Latin lookup 0"  {"'ccmp' Contextual Alternates in Latin lookup 0-1"  } ['ccmp' ('DFLT' <'dflt' > 'latn' <'dflt' > ) ]
Lookup: 1 0 0 "Dotless Single Substitution"  {"Dotless Single Substitution lookup-1"  } []
Lookup: 260 0 0 "'mark' Mark Positioning in Latin"  {"'mark' topright in Latin"  "'mark' above in Latin"  "'mark' ogonek in Latin"  "'mark' cedilla in Latin"  "'mark' below in Latin"  } ['mark' ('DFLT' <'dflt' > 'latn' <'dflt' > ) ]
Lookup: 262 0 0 "'mkmk' Mark to Mark in Latin"  {"'mkmk' mark-above in Latin"  "'mkmk' mark-below in Latin"  } ['mkmk' ('DFLT' <'dflt' > 'latn' <'dflt' > ) ]
Lookup: 258 8 0 "'kern' Horizontal Kerning in Latin lookup 0"  {"'kern' Horizontal Kerning in Latin lookup 0 kerning class 0"  "'kern' Horizontal Kerning in Latin lookup 0 kerning class 1"  } ['kern' ('DFLT' <'dflt' > 'latn' <'dflt' > ) ]
MarkAttachClasses: 1
DEI: 91125

StartChar: .notdef
Encoding: 65536 -1 0
Width: 886
Flags: MW
LayerCount: 3
Fore
SplineSet
68 0 m 1,0,-1
 68 1365 l 1,1,-1
 750 1365 l 1,2,-1
 750 0 l 1,3,-1
 68 0 l 1,0,-1
136 68 m 1,4,-1
 682 68 l 1,5,-1
 682 1297 l 1,6,-1
 136 1297 l 1,7,-1
 136 68 l 1,4,-1
EndSplineSet
EndChar

StartChar: exclam
Encoding: 33 33 4
Width: 454
GlyphClass: 2
Flags: MW
LayerCount: 3
Fore
SplineSet
107 1392 m 1,0,-1
 347 1392 l 1,1,-1
 283 460 l 1,2,-1
 191 460 l 1,3,-1
 107 1392 l 1,0,-1
109 103 m 256,4,5
 109 153 109 153 143.5 188.5 c 128,-1,6
 178 224 178 224 227 224 c 256,7,8
 276 224 276 224 310.5 188.5 c 128,-1,9
 345 153 345 153 345 103 c 256,10,11
 345 53 345 53 310.5 17.5 c 128,-1,12
 276 -18 276 -18 227 -18 c 256,13,14
 178 -18 178 -18 143.5 17.5 c 128,-1,15
 109 53 109 53 109 103 c 256,4,5
EndSplineSet
Layer: 2
SplineSet
103 103 m 0
 103 170 156 224 221 224 c 0
 286 224 339 170 339 103 c 0
 339 36 286 -18 221 -18 c 0
 156 -18 103 36 103 103 c 0
101 1392 m 25
 341 1392 l 25
 277 460 l 25
 185 460 l 25
 101 1392 l 25
EndSplineSet
EndChar

StartChar: quotedbl
Encoding: 34 34 5
Width: 575
GlyphClass: 2
Flags: MW
LayerCount: 3
Fore
SplineSet
513 1428 m 1,0,-1
 465 980 l 1,1,-1
 361 980 l 1,2,-1
 361 1428 l 1,3,-1
 513 1428 l 1,0,-1
216 1428 m 1,4,-1
 168 980 l 1,5,-1
 64 980 l 1,6,-1
 64 1428 l 1,7,-1
 216 1428 l 1,4,-1
EndSplineSet
Layer: 2
SplineSet
216 1428 m 29
 168 980 l 29
 64 980 l 29
 64 1428 l 29
 216 1428 l 29
513 1428 m 29
 465 980 l 29
 361 980 l 29
 361 1428 l 29
 513 1428 l 29
EndSplineSet
EndChar

StartChar: numbersign
Encoding: 35 35 6
Width: 1181
GlyphClass: 2
Flags: MW
LayerCount: 3
Fore
SplineSet
524 1475 m 1,0,-1
 652 1475 l 1,1,-1
 554 1011 l 1,2,-1
 850 1011 l 1,3,-1
 948 1475 l 1,4,-1
 1076 1475 l 1,5,-1
 978 1010 l 1,6,-1
 1187 1010 l 1,7,-1
 1187 901 l 1,8,-1
 955 901 l 1,9,-1
 878 539 l 1,10,-1
 1087 539 l 1,11,-1
 1087 430 l 1,12,-1
 855 430 l 1,13,-1
 764 0 l 1,14,-1
 636 0 l 1,15,-1
 727 431 l 1,16,-1
 431 431 l 1,17,-1
 340 0 l 1,18,-1
 212 0 l 1,19,-1
 303 432 l 1,20,-1
 84 432 l 1,21,-1
 84 541 l 1,22,-1
 326 541 l 1,23,-1
 403 903 l 1,24,-1
 184 903 l 1,25,-1
 184 1012 l 1,26,-1
 426 1012 l 1,27,-1
 524 1475 l 1,0,-1
454 540 m 1,28,-1
 750 540 l 1,29,-1
 827 902 l 1,30,-1
 531 902 l 1,31,-1
 454 540 l 1,28,-1
EndSplineSet
Layer: 2
SplineSet
1187 901 m 29
 184 903 l 29
 184 1012 l 21
 1187 1010 l 13
 1187 901 l 29
1087 430 m 29
 84 432 l 29
 84 541 l 21
 1087 539 l 13
 1087 430 l 29
948 1475 m 21
 1076 1475 l 13
 764 0 l 13
 636 0 l 21
 948 1475 l 21
524 1475 m 21
 652 1475 l 13
 340 0 l 13
 212 0 l 21
 524 1475 l 21
EndSplineSet
EndChar

StartChar: dollar
Encoding: 36 36 7
Width: 966
GlyphClass: 2
Flags: MW
LayerCount: 3
Fore
SplineSet
429 683 m 1,0,-1
 429 1040 l 1,1,2
 366 1024 366 1024 326.5 980 c 128,-1,3
 287 936 287 936 287 872 c 256,4,5
 287 808 287 808 324 763.5 c 128,-1,6
 361 719 361 719 429 683 c 1,0,-1
429 1174 m 1,7,-1
 429 1338 l 1,8,-1
 546 1338 l 1,9,-1
 546 1173 l 1,10,11
 695 1159 695 1159 783 1099 c 1,12,-1
 747 971 l 1,13,14
 659 1031 659 1031 546 1044 c 1,15,-1
 546 629 l 1,16,17
 547 628 547 628 550 627 c 0,18,19
 585 612 585 612 602.5 604.5 c 128,-1,20
 620 597 620 597 652.5 581.5 c 128,-1,21
 685 566 685 566 702.5 555 c 128,-1,22
 720 544 720 544 746.5 526 c 128,-1,23
 773 508 773 508 788 492 c 128,-1,24
 803 476 803 476 821 454 c 128,-1,25
 839 432 839 432 848 409 c 128,-1,26
 857 386 857 386 863.5 357 c 128,-1,27
 870 328 870 328 870 296 c 0,28,29
 870 175 870 175 781.5 86.5 c 128,-1,30
 693 -2 693 -2 546 -16 c 1,31,-1
 546 -180 l 1,32,-1
 429 -180 l 1,33,-1
 429 -16 l 1,34,35
 381 -13 381 -13 339 -5.5 c 128,-1,36
 297 2 297 2 265.5 12 c 128,-1,37
 234 22 234 22 204 35 c 128,-1,38
 174 48 174 48 149.5 62 c 128,-1,39
 125 76 125 76 96 91 c 1,40,-1
 154 211 l 1,41,42
 191 187 191 187 208.5 177 c 128,-1,43
 226 167 226 167 262.5 150 c 128,-1,44
 299 133 299 133 339 124.5 c 128,-1,45
 379 116 379 116 429 113 c 1,46,-1
 429 527 l 1,47,48
 391 544 391 544 365 556.5 c 128,-1,49
 339 569 339 569 304 589 c 128,-1,50
 269 609 269 609 246.5 627.5 c 128,-1,51
 224 646 224 646 199 672 c 128,-1,52
 174 698 174 698 159.5 726 c 128,-1,53
 145 754 145 754 135.5 790 c 128,-1,54
 126 826 126 826 126 867 c 0,55,56
 126 989 126 989 209 1074 c 128,-1,57
 292 1159 292 1159 429 1174 c 1,7,-1
546 473 m 1,58,-1
 546 117 l 1,59,60
 625 131 625 131 667 176 c 128,-1,61
 709 221 709 221 709 274 c 0,62,63
 709 341 709 341 667 387 c 128,-1,64
 625 433 625 433 546 473 c 1,58,-1
EndSplineSet
Layer: 2
SplineSet
546 1338 m 9
 546 -180 l 17
 429 -180 l 1
 429 1338 l 1
 546 1338 l 9
154 211 m 17
 230 162 304 111 479 111 c 0
 636 111 709 197 709 274 c 0
 709 553 126 486 126 867 c 0
 126 1042 265 1176 478 1176 c 0
 621 1176 729 1136 783 1099 c 9
 747 971 l 17
 700 1003 611 1047 490 1047 c 0
 383 1047 287 981.667 287 871.667 c 0
 287 588.667 870 662 870 296 c 0
 870 125 725 -18 497 -18 c 0
 281 -18 198 36 96 91 c 9
 154 211 l 17
EndSplineSet
EndChar

StartChar: percent
Encoding: 37 37 8
Width: 1566
GlyphClass: 2
Flags: MW
LayerCount: 3
Fore
SplineSet
1117 1391 m 1,0,-1
 1245 1391 l 1,1,-1
 458 0 l 1,2,-1
 330 0 l 1,3,-1
 1117 1391 l 1,0,-1
375 1392 m 0,4,5
 431 1392 431 1392 486 1375 c 128,-1,6
 541 1358 541 1358 592.5 1322 c 128,-1,7
 644 1286 644 1286 676 1219.5 c 128,-1,8
 708 1153 708 1153 708 1065 c 128,-1,9
 708 977 708 977 676 910.5 c 128,-1,10
 644 844 644 844 592.5 808.5 c 128,-1,11
 541 773 541 773 486 756 c 128,-1,12
 431 739 431 739 375 739 c 0,13,14
 318 739 318 739 263 756 c 128,-1,15
 208 773 208 773 156.5 808.5 c 128,-1,16
 105 844 105 844 73 910.5 c 128,-1,17
 41 977 41 977 41 1065 c 128,-1,18
 41 1153 41 1153 73 1219.5 c 128,-1,19
 105 1286 105 1286 156.5 1322 c 128,-1,20
 208 1358 208 1358 263 1375 c 128,-1,21
 318 1392 318 1392 375 1392 c 0,4,5
375 846 m 128,-1,23
 407 846 407 846 438 857.5 c 128,-1,24
 469 869 469 869 498.5 893 c 128,-1,25
 528 917 528 917 546.5 961.5 c 128,-1,26
 565 1006 565 1006 565 1065 c 128,-1,27
 565 1124 565 1124 546.5 1168.5 c 128,-1,28
 528 1213 528 1213 498.5 1237 c 128,-1,29
 469 1261 469 1261 438 1272.5 c 128,-1,30
 407 1284 407 1284 375 1284 c 128,-1,31
 343 1284 343 1284 311.5 1272.5 c 128,-1,32
 280 1261 280 1261 250.5 1237 c 128,-1,33
 221 1213 221 1213 202.5 1168.5 c 128,-1,34
 184 1124 184 1124 184 1065 c 128,-1,35
 184 1006 184 1006 202.5 961.5 c 128,-1,36
 221 917 221 917 250.5 893 c 128,-1,37
 280 869 280 869 311.5 857.5 c 128,-1,22
 343 846 343 846 375 846 c 128,-1,23
1153 635 m 0,38,39
 1209 635 1209 635 1264 618 c 128,-1,40
 1319 601 1319 601 1370.5 565 c 128,-1,41
 1422 529 1422 529 1454 462.5 c 128,-1,42
 1486 396 1486 396 1486 308 c 128,-1,43
 1486 220 1486 220 1454 153.5 c 128,-1,44
 1422 87 1422 87 1370.5 51.5 c 128,-1,45
 1319 16 1319 16 1264 -1 c 128,-1,46
 1209 -18 1209 -18 1153 -18 c 0,47,48
 1096 -18 1096 -18 1041 -1 c 128,-1,49
 986 16 986 16 934.5 51.5 c 128,-1,50
 883 87 883 87 851 153.5 c 128,-1,51
 819 220 819 220 819 308 c 128,-1,52
 819 396 819 396 851 462.5 c 128,-1,53
 883 529 883 529 934.5 565 c 128,-1,54
 986 601 986 601 1041 618 c 128,-1,55
 1096 635 1096 635 1153 635 c 0,38,39
1153 89 m 128,-1,57
 1185 89 1185 89 1216 100.5 c 128,-1,58
 1247 112 1247 112 1276.5 136 c 128,-1,59
 1306 160 1306 160 1324.5 204.5 c 128,-1,60
 1343 249 1343 249 1343 308 c 128,-1,61
 1343 367 1343 367 1324.5 411.5 c 128,-1,62
 1306 456 1306 456 1276.5 480 c 128,-1,63
 1247 504 1247 504 1216 515.5 c 128,-1,64
 1185 527 1185 527 1153 527 c 128,-1,65
 1121 527 1121 527 1089.5 515.5 c 128,-1,66
 1058 504 1058 504 1028.5 480 c 128,-1,67
 999 456 999 456 980.5 411.5 c 128,-1,68
 962 367 962 367 962 308 c 128,-1,69
 962 249 962 249 980.5 204.5 c 128,-1,70
 999 160 999 160 1028.5 136 c 128,-1,71
 1058 112 1058 112 1089.5 100.5 c 128,-1,56
 1121 89 1121 89 1153 89 c 128,-1,57
EndSplineSet
Layer: 2
SplineSet
1153 89 m 0
 1231 89 1343 143 1343 308 c 0
 1343 474 1231 527 1153 527 c 0
 1074 527 962 474 962 308 c 0
 962 143 1074 89 1153 89 c 0
1153 635 m 0
 1292 635 1486 555 1486 308 c 0
 1486 61 1292 -18 1153 -18 c 0
 1013 -18 819 61 819 308 c 0
 819 555 1013 635 1153 635 c 0
375 846 m 0
 453 846 565 900 565 1065 c 0
 565 1231 453 1284 375 1284 c 0
 296 1284 184 1231 184 1065 c 0
 184 900 296 846 375 846 c 0
375 1392 m 0
 514 1392 708 1312 708 1065 c 0
 708 818 514 739 375 739 c 0
 235 739 41 818 41 1065 c 0
 41 1312 235 1392 375 1392 c 0
1117 1391 m 17
 1245 1391 l 9
 458 0 l 9
 330 0 l 17
 1117 1391 l 17
EndSplineSet
EndChar

StartChar: ampersand
Encoding: 38 38 9
Width: 1466
GlyphClass: 2
Flags: MW
LayerCount: 3
Fore
SplineSet
452 714 m 1,0,1
 354 667 354 667 295.5 574.5 c 128,-1,2
 237 482 237 482 237 372 c 0,3,4
 237 258 237 258 324 184.5 c 128,-1,5
 411 111 411 111 536 111 c 0,6,7
 631 111 631 111 729.5 150.5 c 128,-1,8
 828 190 828 190 876 255 c 1,9,-1
 452 714 l 1,0,1
944 1296 m 1,10,-1
 904 1156 l 1,11,12
 878 1179 878 1179 793.5 1218 c 128,-1,13
 709 1257 709 1257 640 1257 c 0,14,15
 582 1257 582 1257 544 1225 c 128,-1,16
 506 1193 506 1193 493 1153.5 c 128,-1,17
 480 1114 480 1114 480 1072 c 0,18,19
 480 943 480 943 566 828 c 0,20,21
 711 635 711 635 972 374 c 1,22,23
 1030 462 1030 462 1084 627.5 c 128,-1,24
 1138 793 1138 793 1156 920 c 1,25,-1
 1262 852 l 1,26,27
 1249 729 1249 729 1183 554.5 c 128,-1,28
 1117 380 1117 380 1052 286 c 1,29,-1
 1319 0 l 1,30,-1
 1108 0 l 1,31,-1
 960 160 l 1,32,33
 930 136 930 136 904.5 111 c 128,-1,34
 879 86 879 86 843 63 c 128,-1,35
 807 40 807 40 767 22 c 128,-1,36
 727 4 727 4 667.5 -7 c 128,-1,37
 608 -18 608 -18 536 -18 c 0,38,39
 447 -18 447 -18 366.5 5.5 c 128,-1,40
 286 29 286 29 220 74.5 c 128,-1,41
 154 120 154 120 115 197 c 128,-1,42
 76 274 76 274 76 372 c 0,43,44
 76 474 76 474 120.5 565.5 c 128,-1,45
 165 657 165 657 227.5 717 c 128,-1,46
 290 777 290 777 372 828 c 1,47,48
 339 877 339 877 317.5 946.5 c 128,-1,49
 296 1016 296 1016 296 1088 c 0,50,51
 296 1224 296 1224 391 1305 c 128,-1,52
 486 1386 486 1386 616 1386 c 0,53,54
 812 1386 812 1386 944 1296 c 1,10,-1
EndSplineSet
Layer: 2
SplineSet
944 1296 m 1
 904 1156 l 1
 886 1172 747 1257 640 1257 c 0
 516 1257 480 1146 480 1072 c 0
 480 1018 486 935 566 828 c 0
 714 631 905 441 972 374 c 1
 1054 497 1134 762 1156 920 c 1
 1262 852 l 1
 1244 681 1134 406 1052 286 c 1
 1319 0 l 1
 1108 0 l 1
 960 160 l 1
 868 80 786 -18 536 -18 c 0
 306 -18 76 100 76 372 c 0
 76 588 222 736 372 828 c 1
 330 890 296 988 296 1088 c 0
 296 1278 452 1386 616 1386 c 0
 792 1386 900 1326 944 1296 c 1
452 714 m 1
 323 652 237 520 237 372 c 0
 237 217 372 111 536 111 c 0
 657 111 810 165 876 255 c 1
 452 714 l 1
EndSplineSet
EndChar

StartChar: quotesingle
Encoding: 39 39 10
Width: 264
GlyphClass: 2
Flags: MW
LayerCount: 3
Fore
SplineSet
216 1428 m 1,0,-1
 168 980 l 1,1,-1
 64 980 l 1,2,-1
 64 1428 l 1,3,-1
 216 1428 l 1,0,-1
EndSplineSet
Layer: 2
SplineSet
216 1428 m 25
 168 980 l 25
 64 980 l 25
 64 1428 l 25
 216 1428 l 25
EndSplineSet
EndChar

StartChar: parenleft
Encoding: 40 40 11
Width: 634
GlyphClass: 2
Flags: MW
LayerCount: 3
Fore
SplineSet
271 492 m 256,0,1
 271 352.261 271 352.261 292.753 220.664 c 128,-1,2
 314.507 89.0674 314.507 89.0674 357.294 -33.1572 c 128,-1,3
 400.081 -155.382 400.081 -155.382 453.847 -264.851 c 128,-1,4
 507.613 -374.319 507.613 -374.319 581 -493.443 c 1,5,-1
 471 -493.443 l 1,6,7
 364.572 -341.485 364.572 -341.485 291.918 -204.241 c 128,-1,8
 219.265 -66.9961 219.265 -66.9961 180.488 54.2148 c 128,-1,9
 141.712 175.426 141.712 175.426 125.855 278.502 c 128,-1,10
 110 381.577 110 381.577 110 492 c 0,11,12
 110 599.819 110 599.819 125.906 702.515 c 128,-1,13
 141.813 805.209 141.813 805.209 180.438 926.953 c 128,-1,14
 219.061 1048.7 219.061 1048.7 291.969 1187.31 c 128,-1,15
 364.878 1325.92 364.878 1325.92 471 1477.44 c 1,16,-1
 581 1477.44 l 1,17,18
 507.64 1358.36 507.64 1358.36 453.852 1248.81 c 128,-1,19
 400.063 1139.26 400.063 1139.26 357.289 1017.01 c 128,-1,20
 314.516 894.773 314.516 894.773 292.758 763.194 c 128,-1,21
 271 631.614 271 631.614 271 492 c 256,0,1
EndSplineSet
Layer: 2
SplineSet
271 492 m 0
 271 109.711 396 -193.146 581 -493.443 c 9
 471 -493.443 l 17
 179 -76.5254 110 216.475 110 492 c 0
 110 760.228 179 1060.53 471 1477.44 c 9
 581 1477.44 l 17
 396 1177.15 271 873.933 271 492 c 0
EndSplineSet
EndChar

StartChar: parenright
Encoding: 41 41 12
Width: 634
GlyphClass: 2
Flags: MW
LayerCount: 3
Fore
SplineSet
363 492 m 256,0,1
 363 631.614 363 631.614 341.242 763.194 c 128,-1,2
 319.484 894.773 319.484 894.773 276.711 1017.01 c 128,-1,3
 233.937 1139.26 233.937 1139.26 180.148 1248.81 c 128,-1,4
 126.36 1358.36 126.36 1358.36 53 1477.44 c 1,5,-1
 163 1477.44 l 1,6,7
 269.122 1325.92 269.122 1325.92 342.031 1187.31 c 128,-1,8
 414.939 1048.7 414.939 1048.7 453.562 926.953 c 128,-1,9
 492.187 805.209 492.187 805.209 508.094 702.515 c 128,-1,10
 524 599.819 524 599.819 524 492 c 0,11,12
 524 381.577 524 381.577 508.145 278.502 c 128,-1,13
 492.288 175.426 492.288 175.426 453.512 54.2148 c 128,-1,14
 414.735 -66.9961 414.735 -66.9961 342.082 -204.241 c 128,-1,15
 269.428 -341.485 269.428 -341.485 163 -493.443 c 1,16,-1
 53 -493.443 l 1,17,18
 126.387 -374.319 126.387 -374.319 180.153 -264.851 c 128,-1,19
 233.919 -155.382 233.919 -155.382 276.706 -33.1572 c 128,-1,20
 319.493 89.0674 319.493 89.0674 341.247 220.664 c 128,-1,21
 363 352.261 363 352.261 363 492 c 256,0,1
EndSplineSet
Layer: 2
SplineSet
363 492 m 0
 363 873.933 238 1177.15 53 1477.44 c 9
 163 1477.44 l 17
 455 1060.53 524 760.228 524 492 c 0
 524 216.475 455 -76.5254 163 -493.443 c 9
 53 -493.443 l 17
 238 -193.146 363 109.711 363 492 c 0
EndSplineSet
EndChar

StartChar: asterisk
Encoding: 42 42 13
Width: 849
GlyphClass: 2
Flags: MW
LayerCount: 3
Fore
SplineSet
454 953 m 1,0,-1
 603 704 l 1,1,-1
 477 645 l 1,2,-1
 398 930 l 1,3,-1
 208 711 l 1,4,-1
 113 813 l 1,5,-1
 360 975 l 1,6,-1
 93 1088 l 1,7,-1
 161 1210 l 1,8,-1
 391 1026 l 1,9,-1
 416 1315 l 1,10,-1
 553 1288 l 1,11,-1
 449 1012 l 1,12,-1
 732 1078 l 1,13,-1
 748 939 l 1,14,-1
 454 953 l 1,0,-1
EndSplineSet
Layer: 2
SplineSet
454 953 m 29
 603 704 l 29
 477 645 l 29
 398 930 l 29
 208 711 l 29
 113 813 l 29
 360 975 l 29
 93 1088 l 29
 161 1210 l 29
 391 1026 l 29
 416 1315 l 29
 553 1288 l 29
 449 1012 l 29
 732 1078 l 29
 748 939 l 29
 454 953 l 29
EndSplineSet
EndChar

StartChar: plus
Encoding: 43 43 14
Width: 1130
GlyphClass: 2
Flags: MW
LayerCount: 3
Fore
SplineSet
620 558 m 5,0,-1
 1069 558 l 5,1,-1
 1069 449 l 5,2,-1
 620 449 l 5,3,-1
 620 0 l 5,4,-1
 510 0 l 5,5,-1
 510 449 l 5,6,-1
 61 449 l 5,7,-1
 61 558 l 5,8,-1
 510 558 l 5,9,-1
 510 1008 l 5,10,-1
 620 1008 l 5,11,-1
 620 558 l 5,0,-1
EndSplineSet
Layer: 2
SplineSet
510 0 m 29
 510 1008 l 29
 620 1008 l 21
 620 0 l 13
 510 0 l 29
1069 449 m 29
 61 449 l 29
 61 558 l 21
 1069 558 l 13
 1069 449 l 29
EndSplineSet
EndChar

StartChar: comma
Encoding: 44 44 15
Width: 450
GlyphClass: 2
Flags: MW
LayerCount: 3
Fore
SplineSet
205 -27 m 0,0,1
 205 -15 205 -15 189.5 -4.5 c 128,-1,2
 174 6 174 6 156 14.5 c 128,-1,3
 138 23 138 23 122.5 48 c 128,-1,4
 107 73 107 73 107 111 c 0,5,6
 107 153 107 153 138.5 188.5 c 128,-1,7
 170 224 170 224 225 224 c 0,8,9
 266 224 266 224 293.5 206.5 c 128,-1,10
 321 189 321 189 332 161 c 128,-1,11
 343 133 343 133 347 112 c 128,-1,12
 351 91 351 91 351 69 c 0,13,14
 351 -9 351 -9 312 -95.5 c 128,-1,15
 273 -182 273 -182 157 -294 c 1,16,-1
 75 -222 l 1,17,18
 205 -98 205 -98 205 -27 c 0,0,1
EndSplineSet
Layer: 2
SplineSet
205 -27 m 4
 205 12 107 -1.3838e-07 107 111 c 4
 107 160.5 145.5 224 225 224 c 4
 341 224 351 111 351 69 c 4
 351 -13 329 -128 157 -294 c 13
 75 -222 l 21
 166 -135 205 -71 205 -27 c 4
EndSplineSet
EndChar

StartChar: hyphen
Encoding: 45 45 16
Width: 765
GlyphClass: 2
Flags: MW
LayerCount: 3
Fore
SplineSet
690 449 m 1,0,-1
 61 449 l 1,1,-1
 61 558 l 1,2,-1
 690 558 l 1,3,-1
 690 449 l 1,0,-1
EndSplineSet
Layer: 2
SplineSet
697 449 m 29
 68 449 l 29
 68 558 l 21
 697 558 l 13
 697 449 l 29
EndSplineSet
EndChar

StartChar: period
Encoding: 46 46 17
Width: 450
GlyphClass: 2
Flags: MW
LayerCount: 3
Fore
SplineSet
107 103 m 256,0,1
 107 153 107 153 141.5 188.5 c 128,-1,2
 176 224 176 224 225 224 c 256,3,4
 274 224 274 224 308.5 188.5 c 128,-1,5
 343 153 343 153 343 103 c 256,6,7
 343 53 343 53 308.5 17.5 c 128,-1,8
 274 -18 274 -18 225 -18 c 256,9,10
 176 -18 176 -18 141.5 17.5 c 128,-1,11
 107 53 107 53 107 103 c 256,0,1
EndSplineSet
Layer: 2
SplineSet
107 103 m 4
 107 170 160 224 225 224 c 4
 290 224 343 170 343 103 c 4
 343 36 290 -18 225 -18 c 4
 160 -18 107 36 107 103 c 4
EndSplineSet
EndChar

StartChar: slash
Encoding: 47 47 18
Width: 645
GlyphClass: 2
Flags: MW
LayerCount: 3
Fore
SplineSet
493 1475 m 1,0,-1
 621 1475 l 1,1,-1
 152 0 l 1,2,-1
 24 0 l 1,3,-1
 493 1475 l 1,0,-1
EndSplineSet
Layer: 2
SplineSet
493 1475 m 21
 621 1475 l 13
 152 0 l 13
 24 0 l 21
 493 1475 l 21
EndSplineSet
EndChar

StartChar: zero
Encoding: 48 48 19
Width: 1231
GlyphClass: 2
Flags: MW
LayerCount: 3
Fore
SplineSet
616 111 m 256,0,1
 667 111 667 111 718.5 123.5 c 128,-1,2
 770 136 770 136 823.5 166.5 c 128,-1,3
 877 197 877 197 917.5 243 c 128,-1,4
 958 289 958 289 984 361.5 c 128,-1,5
 1010 434 1010 434 1010 524 c 256,6,7
 1010 614 1010 614 984 687 c 128,-1,8
 958 760 958 760 917.5 805.5 c 128,-1,9
 877 851 877 851 823.5 882 c 128,-1,10
 770 913 770 913 718.5 925.5 c 128,-1,11
 667 938 667 938 616 938 c 256,12,13
 565 938 565 938 513 925.5 c 128,-1,14
 461 913 461 913 408 882 c 128,-1,15
 355 851 355 851 314 805.5 c 128,-1,16
 273 760 273 760 247.5 687 c 128,-1,17
 222 614 222 614 222 524 c 256,18,19
 222 434 222 434 247.5 361.5 c 128,-1,20
 273 289 273 289 314 243 c 128,-1,21
 355 197 355 197 408 166.5 c 128,-1,22
 461 136 461 136 513 123.5 c 128,-1,23
 565 111 565 111 616 111 c 256,0,1
616 1067 m 260,24,25
 690 1067 690 1067 763 1050.5 c 128,-1,26
 836 1034 836 1034 911 994 c 128,-1,27
 986 954 986 954 1042.5 894 c 128,-1,28
 1099 834 1099 834 1135 738 c 128,-1,29
 1171 642 1171 642 1171 524 c 256,30,31
 1171 406 1171 406 1135 310.5 c 128,-1,32
 1099 215 1099 215 1042.5 155 c 128,-1,33
 986 95 986 95 911 55 c 128,-1,34
 836 15 836 15 763 -1.5 c 128,-1,35
 690 -18 690 -18 616 -18 c 256,36,37
 542 -18 542 -18 469 -1.5 c 128,-1,38
 396 15 396 15 321 55 c 128,-1,39
 246 95 246 95 189.5 155 c 128,-1,40
 133 215 133 215 97 310.5 c 128,-1,41
 61 406 61 406 61 524 c 0,42,43
 61 643 61 643 97 738.5 c 128,-1,44
 133 834 133 834 189.5 894 c 128,-1,45
 246 954 246 954 321 994 c 128,-1,46
 396 1034 396 1034 469 1050.5 c 128,-1,47
 542 1067 542 1067 616 1067 c 260,24,25
EndSplineSet
Layer: 2
SplineSet
616 111 m 4
 776 111 1010 211 1010 524 c 4
 1010 838 776 938 616 938 c 4
 455 938 222 838 222 524 c 4
 222 211 455 111 616 111 c 4
616 1067 m 4
 847 1067 1171 936 1171 524 c 4
 1171 113 847 -18 616 -18 c 4
 384 -18 61 113 61 524 c 4
 61 936 384 1067 616 1067 c 4
EndSplineSet
EndChar

StartChar: one
Encoding: 49 49 20
Width: 581
GlyphClass: 2
Flags: MW
LayerCount: 3
Fore
SplineSet
436 1049 m 1,0,-1
 436 0 l 1,1,-1
 275 0 l 1,2,-1
 275 906 l 1,3,-1
 87 810 l 1,4,-1
 34 925 l 1,5,-1
 275 1049 l 1,6,-1
 436 1049 l 1,0,-1
EndSplineSet
Layer: 2
SplineSet
436 1049 m 5
 436 0 l 13
 275 0 l 29
 275 906 l 21
 87 810 l 13
 34 925 l 21
 275 1049 l 5
 436 1049 l 5
EndSplineSet
EndChar

StartChar: two
Encoding: 50 50 21
Width: 919
GlyphClass: 2
Flags: MW
LayerCount: 3
Fore
SplineSet
400 938 m 0,0,1
 280 938 280 938 150 854 c 1,2,-1
 90 959 l 1,3,4
 139 999 139 999 221.5 1033 c 128,-1,5
 304 1067 304 1067 400 1067 c 0,6,7
 563 1067 563 1067 660.5 995 c 128,-1,8
 758 923 758 923 758 780 c 0,9,10
 758 733 758 733 741 683.5 c 128,-1,11
 724 634 724 634 701 593.5 c 128,-1,12
 678 553 678 553 636 501 c 128,-1,13
 594 449 594 449 562.5 415.5 c 128,-1,14
 531 382 531 382 478 328 c 2,15,-1
 282 128 l 1,16,-1
 802 128 l 1,17,-1
 802 0 l 1,18,-1
 90 0 l 1,19,-1
 90 128 l 1,20,-1
 286 328 l 2,21,22
 341 385 341 385 388 432.5 c 128,-1,23
 435 480 435 480 473.5 525 c 128,-1,24
 512 570 512 570 539 611 c 128,-1,25
 566 652 566 652 581 696 c 128,-1,26
 596 740 596 740 596 784 c 0,27,28
 596 847 596 847 546.5 892.5 c 128,-1,29
 497 938 497 938 400 938 c 0,0,1
EndSplineSet
Layer: 2
SplineSet
400 938 m 0
 298 938 204 889 150 854 c 1
 90 959 l 1
 140 1000 256 1067 400 1067 c 0
 608 1067 758 978 758 780 c 0
 758 618 619 471 478 328 c 10
 282 128 l 9
 802 128 l 25
 802 0 l 17
 90 0 l 9
 90 128 l 25
 286 328 l 18
 468 514 596 632 596 784 c 0
 596 859 539 938 400 938 c 0
EndSplineSet
EndChar

StartChar: three
Encoding: 51 51 22
Width: 841
GlyphClass: 2
Flags: MW
LayerCount: 3
Fore
SplineSet
788 81 m 0,0,1
 788 -6 788 -6 756 -84.5 c 128,-1,2
 724 -163 724 -163 666 -222 c 128,-1,3
 608 -281 608 -281 522.5 -315.5 c 128,-1,4
 437 -350 437 -350 336 -350 c 0,5,6
 153 -350 153 -350 36 -258 c 1,7,-1
 101 -154 l 1,8,9
 146 -184 146 -184 191.5 -199.5 c 128,-1,10
 237 -215 237 -215 263.5 -218 c 128,-1,11
 290 -221 290 -221 327 -221 c 0,12,13
 462 -221 462 -221 543.5 -133.5 c 128,-1,14
 625 -46 625 -46 625 81 c 0,15,16
 625 224 625 224 534 302 c 128,-1,17
 443 380 443 380 316 380 c 2,18,-1
 234 380 l 1,19,-1
 234 508 l 1,20,-1
 288 508 l 2,21,22
 333 508 333 508 377 521 c 128,-1,23
 421 534 421 534 462 560 c 128,-1,24
 503 586 503 586 528.5 635 c 128,-1,25
 554 684 554 684 554 748 c 0,26,27
 554 797 554 797 534.5 835.5 c 128,-1,28
 515 874 515 874 483.5 895.5 c 128,-1,29
 452 917 452 917 417.5 928 c 128,-1,30
 383 939 383 939 348 939 c 0,31,32
 247 939 247 939 144 894 c 1,33,-1
 102 1006 l 1,34,35
 153 1032 153 1032 223 1049.5 c 128,-1,36
 293 1067 293 1067 346 1067 c 0,37,38
 433 1067 433 1067 500 1047 c 128,-1,39
 567 1027 567 1027 607 995.5 c 128,-1,40
 647 964 647 964 673 920.5 c 128,-1,41
 699 877 699 877 708 835 c 128,-1,42
 717 793 717 793 717 747 c 0,43,44
 717 697 717 697 702 652 c 128,-1,45
 687 607 687 607 667.5 578 c 128,-1,46
 648 549 648 549 620 523 c 128,-1,47
 592 497 592 497 574 485 c 128,-1,48
 556 473 556 473 536 462 c 1,49,50
 570 449 570 449 595.5 436.5 c 128,-1,51
 621 424 621 424 660 393.5 c 128,-1,52
 699 363 699 363 724.5 325.5 c 128,-1,53
 750 288 750 288 769 224 c 128,-1,54
 788 160 788 160 788 81 c 0,0,1
EndSplineSet
Layer: 2
SplineSet
788 81 m 4
 788 -152 612 -350 336 -350 c 4
 212 -350 112 -318 36 -258 c 13
 101 -154 l 21
 198 -218 271 -221 327 -221 c 4
 513 -221 625 -83 625 81 c 4
 625 284 471 380 316 380 c 6
 234 380 l 5
 234 508 l 5
 288 508 l 6
 400 508 554 568 554 748 c 4
 554 885 436 939 348 939 c 4
 278 939 222 928 144 894 c 5
 102 1006 l 5
 169 1040 274 1067 346 1067 c 4
 648 1067 717 888 717 747 c 4
 717 570 584 488 536 462 c 5
 620 430 788 358 788 81 c 4
EndSplineSet
EndChar

StartChar: four
Encoding: 52 52 23
Width: 995
GlyphClass: 2
Flags: MW
LayerCount: 3
Fore
SplineSet
591 259 m 1,0,-1
 591 822 l 1,1,-1
 232 259 l 1,2,-1
 591 259 l 1,0,-1
62 236 m 1,3,-1
 591 1067 l 1,4,-1
 752 1067 l 1,5,-1
 752 259 l 1,6,-1
 969 259 l 1,7,-1
 969 131 l 1,8,-1
 752 131 l 1,9,-1
 752 -256 l 1,10,-1
 591 -256 l 1,11,-1
 591 131 l 1,12,-1
 62 131 l 1,13,-1
 62 236 l 1,3,-1
EndSplineSet
Layer: 2
SplineSet
62 236 m 21
 591 1067 l 5
 752 1067 l 5
 752 259 l 5
 969 259 l 5
 969 131 l 5
 752 131 l 5
 752 -306 l 5
 591 -306 l 5
 591 131 l 5
 62 131 l 29
 62 236 l 21
591 259 m 5
 591 822 l 5
 232 259 l 5
 591 259 l 5
EndSplineSet
EndChar

StartChar: five
Encoding: 53 53 24
Width: 835
GlyphClass: 2
Flags: MW
LayerCount: 3
Fore
SplineSet
120 1049 m 1,0,-1
 716 1049 l 1,1,-1
 716 921 l 1,2,-1
 282 921 l 1,3,-1
 264 560 l 1,4,5
 333 555 333 555 393.5 542 c 128,-1,6
 454 529 454 529 521.5 496.5 c 128,-1,7
 589 464 589 464 637 416 c 128,-1,8
 685 368 685 368 716.5 287 c 128,-1,9
 748 206 748 206 748 102 c 0,10,11
 748 -103 748 -103 623.5 -226.5 c 128,-1,12
 499 -350 499 -350 276 -350 c 0,13,14
 228 -350 228 -350 160.5 -336.5 c 128,-1,15
 93 -323 93 -323 48 -298 c 1,16,-1
 104 -175 l 1,17,18
 175 -215 175 -215 276 -215 c 0,19,20
 429 -215 429 -215 508 -125 c 128,-1,21
 587 -35 587 -35 587 102 c 0,22,23
 587 180 587 180 559 241 c 128,-1,24
 531 302 531 302 487.5 338.5 c 128,-1,25
 444 375 444 375 384 399 c 128,-1,26
 324 423 324 423 267 431.5 c 128,-1,27
 210 440 210 440 148 440 c 2,28,-1
 85 440 l 1,29,-1
 120 1049 l 1,0,-1
EndSplineSet
Layer: 2
SplineSet
120 1049 m 25
 716 1049 l 25
 716 921 l 25
 282 921 l 25
 264 560 l 17
 468 546 748 464 748 102 c 0
 748 -165 579 -350 276 -350 c 0
 224 -350 114 -335 48 -298 c 9
 104 -175 l 17
 166 -210 249 -215 276 -215 c 0
 492 -215 587 -67 587 102 c 0
 587 374 338 440 148 440 c 2
 85 440 l 9
 120 1049 l 25
EndSplineSet
EndChar

StartChar: six
Encoding: 54 54 25
Width: 1013
GlyphClass: 2
Flags: MW
LayerCount: 3
Fore
SplineSet
522 111 m 0,0,1
 624 111 624 111 700.5 184 c 128,-1,2
 777 257 777 257 781 387 c 0,3,4
 786 528 786 528 709 604.5 c 128,-1,5
 632 681 632 681 508 681 c 0,6,7
 422 681 422 681 358.5 654.5 c 128,-1,8
 295 628 295 628 236 572 c 1,9,10
 231 540 231 540 231 510 c 0,11,12
 231 415 231 415 252 341 c 128,-1,13
 273 267 273 267 304.5 225 c 128,-1,14
 336 183 336 183 377.5 156 c 128,-1,15
 419 129 419 129 453.5 120 c 128,-1,16
 488 111 488 111 522 111 c 0,0,1
525 -18 m 0,17,18
 464 -18 464 -18 405 -4 c 128,-1,19
 346 10 346 10 283.5 47 c 128,-1,20
 221 84 221 84 175 141.5 c 128,-1,21
 129 199 129 199 99.5 293.5 c 128,-1,22
 70 388 70 388 70 509 c 0,23,24
 70 584 70 584 80 655 c 128,-1,25
 90 726 90 726 115 802 c 128,-1,26
 140 878 140 878 178.5 944 c 128,-1,27
 217 1010 217 1010 278 1071.5 c 128,-1,28
 339 1133 339 1133 417 1179.5 c 128,-1,29
 495 1226 495 1226 603 1259.5 c 128,-1,30
 711 1293 711 1293 840 1305 c 1,31,-1
 855 1176 l 1,32,33
 611 1154 611 1154 455 1038 c 128,-1,34
 299 922 299 922 253 713 c 1,35,36
 295 758 295 758 374 784 c 128,-1,37
 453 810 453 810 536 810 c 0,38,39
 711 810 711 810 826.5 700.5 c 128,-1,40
 942 591 942 591 942 416 c 0,41,42
 942 232 942 232 831 107 c 128,-1,43
 720 -18 720 -18 525 -18 c 0,17,18
EndSplineSet
Layer: 2
SplineSet
522 111 m 4
 649 111 775 204 781 387 c 4
 788 582 666 681 508 681 c 4
 389 681 312 644 236 572 c 5
 231 540 231 531 231 510 c 4
 231 176 424 111 522 111 c 4
525 -18 m 4
 336 -18 70 89 70 509 c 4
 70 842 222 1246 840 1305 c 13
 855 1176 l 21
 537 1147 316 998 253 713 c 5
 311 776 431 810 536 810 c 4
 767 810 942 652 942 416 c 4
 942 182 796 -18 525 -18 c 4
EndSplineSet
EndChar

StartChar: seven
Encoding: 55 55 26
Width: 787
GlyphClass: 2
Flags: MW
LayerCount: 3
Fore
SplineSet
379 636 m 6,0,-1
 544 921 l 5,1,-1
 35 921 l 5,2,-1
 35 1049 l 5,3,-1
 771 1049 l 5,4,-1
 607 764 l 6,5,6
 475 535 475 535 392.5 264 c 132,-1,7
 310 -7 310 -7 285 -257 c 5,8,-1
 124 -257 l 5,9,10
 145 -39 145 -39 223 230 c 132,-1,11
 301 499 301 499 379 636 c 6,0,-1
EndSplineSet
Layer: 2
SplineSet
379 636 m 6
 544 921 l 13
 35 921 l 29
 35 1049 l 21
 771 1049 l 13
 607 764 l 22
 423 445 317 59 285 -256 c 13
 124 -256 l 21
 152 41 277 458 379 636 c 6
EndSplineSet
EndChar

StartChar: eight
Encoding: 56 56 27
Width: 952
GlyphClass: 2
Flags: MW
LayerCount: 3
Fore
SplineSet
673 1012 m 0,0,1
 673 1057 673 1057 651.5 1091 c 128,-1,2
 630 1125 630 1125 597 1142.5 c 128,-1,3
 564 1160 564 1160 532.5 1168 c 128,-1,4
 501 1176 501 1176 472 1176 c 256,5,6
 443 1176 443 1176 411 1168 c 128,-1,7
 379 1160 379 1160 346 1143 c 128,-1,8
 313 1126 313 1126 291.5 1092 c 128,-1,9
 270 1058 270 1058 270 1012 c 0,10,11
 270 967 270 967 286 929 c 128,-1,12
 302 891 302 891 334 860 c 128,-1,13
 366 829 366 829 399.5 806.5 c 128,-1,14
 433 784 433 784 483 757 c 1,15,16
 526 787 526 787 553.5 810 c 128,-1,17
 581 833 581 833 611.5 865.5 c 128,-1,18
 642 898 642 898 657.5 935 c 128,-1,19
 673 972 673 972 673 1012 c 0,0,1
436 605 m 1,20,21
 338 549 338 549 284.5 479.5 c 128,-1,22
 231 410 231 410 231 312 c 0,23,24
 231 233 231 233 303 172 c 128,-1,25
 375 111 375 111 466 111 c 0,26,27
 574 111 574 111 649 165 c 128,-1,28
 724 219 724 219 724 312 c 0,29,30
 724 344 724 344 715.5 372 c 128,-1,31
 707 400 707 400 692.5 423 c 128,-1,32
 678 446 678 446 657 467 c 128,-1,33
 636 488 636 488 611 505 c 128,-1,34
 586 522 586 522 557 539.5 c 128,-1,35
 528 557 528 557 497.5 572.5 c 128,-1,36
 467 588 467 588 436 605 c 1,20,21
316 672 m 1,37,38
 270 702 270 702 235 733.5 c 128,-1,39
 200 765 200 765 170 806.5 c 128,-1,40
 140 848 140 848 124.5 902 c 128,-1,41
 109 956 109 956 109 1020 c 0,42,43
 109 1106 109 1106 162.5 1172.5 c 128,-1,44
 216 1239 216 1239 297.5 1272 c 128,-1,45
 379 1305 379 1305 472 1305 c 256,46,47
 565 1305 565 1305 646 1272 c 128,-1,48
 727 1239 727 1239 780.5 1172.5 c 128,-1,49
 834 1106 834 1106 834 1020 c 0,50,51
 834 964 834 964 815 914.5 c 128,-1,52
 796 865 796 865 762 825 c 128,-1,53
 728 785 728 785 689.5 754.5 c 128,-1,54
 651 724 651 724 603 694 c 1,55,56
 652 667 652 667 688 643.5 c 128,-1,57
 724 620 724 620 763.5 584 c 128,-1,58
 803 548 803 548 828 510 c 128,-1,59
 853 472 853 472 869 419 c 128,-1,60
 885 366 885 366 885 304 c 0,61,62
 885 240 885 240 861 184 c 128,-1,63
 837 128 837 128 789.5 82 c 128,-1,64
 742 36 742 36 660 9 c 128,-1,65
 578 -18 578 -18 472 -18 c 256,66,67
 366 -18 366 -18 286 8.5 c 128,-1,68
 206 35 206 35 160 81 c 128,-1,69
 114 127 114 127 92 183 c 128,-1,70
 70 239 70 239 70 304 c 0,71,72
 70 347 70 347 77.5 385 c 128,-1,73
 85 423 85 423 97 452.5 c 128,-1,74
 109 482 109 482 129 510 c 128,-1,75
 149 538 149 538 167.5 558 c 128,-1,76
 186 578 186 578 214.5 600.5 c 128,-1,77
 243 623 243 623 263.5 637.5 c 128,-1,78
 284 652 284 652 316 672 c 1,37,38
EndSplineSet
Layer: 2
SplineSet
673 1012 m 0xd8
 673 1140 540 1176 472 1176 c 0
 404 1176 270 1142 270 1012 c 0xd8
 270 696 885 753 885 304 c 0
 885 140 766 -18 472 -18 c 1
 178 -18 70 138 70 304 c 0
 70 539 235 618 372 708 c 9
 454 615 l 17
 328 546 231 459 231 312 c 16
 231 206 345 111 466 111 c 16
 604 111 724 184 724 312 c 16xe4
 724 628 109 567 109 1020 c 0
 109 1200 291 1305 472 1305 c 0
 653 1305 834 1200 834 1020 c 8
 834 843 687 738 552 666 c 9
 435 723 l 17
 538 797 673 879 673 1012 c 0xd8
EndSplineSet
EndChar

StartChar: nine
Encoding: 57 57 28
Width: 1013
GlyphClass: 2
Flags: MW
LayerCount: 3
Fore
SplineSet
490 938 m 0,0,1
 388 938 388 938 311.5 865 c 128,-1,2
 235 792 235 792 231 662 c 0,3,4
 226 521 226 521 303 444.5 c 128,-1,5
 380 368 380 368 504 368 c 0,6,7
 590 368 590 368 653.5 394.5 c 128,-1,8
 717 421 717 421 776 477 c 1,9,10
 781 509 781 509 781 539 c 0,11,12
 781 634 781 634 760 708 c 128,-1,13
 739 782 739 782 707.5 824 c 128,-1,14
 676 866 676 866 634.5 893 c 128,-1,15
 593 920 593 920 558.5 929 c 128,-1,16
 524 938 524 938 490 938 c 0,0,1
487 1067 m 4,17,18
 548 1067 548 1067 607 1053 c 128,-1,19
 666 1039 666 1039 728.5 1002 c 128,-1,20
 791 965 791 965 837 907.5 c 128,-1,21
 883 850 883 850 912.5 755.5 c 128,-1,22
 942 661 942 661 942 540 c 0,23,24
 942 465 942 465 932 394 c 128,-1,25
 922 323 922 323 897 247 c 128,-1,26
 872 171 872 171 833.5 105 c 128,-1,27
 795 39 795 39 734 -22.5 c 128,-1,28
 673 -84 673 -84 595 -130.5 c 128,-1,29
 517 -177 517 -177 409 -210.5 c 128,-1,30
 301 -244 301 -244 172 -256 c 1,31,-1
 157 -127 l 1,32,33
 401 -105 401 -105 557 11 c 128,-1,34
 713 127 713 127 759 336 c 1,35,36
 717 291 717 291 638 265 c 128,-1,37
 559 239 559 239 476 239 c 0,38,39
 301 239 301 239 185.5 348.5 c 128,-1,40
 70 458 70 458 70 633 c 0,41,42
 70 817 70 817 181 942 c 128,-1,43
 292 1067 292 1067 487 1067 c 4,17,18
EndSplineSet
Layer: 2
SplineSet
490 938 m 4
 363 938 237 845 231 662 c 4
 224 467 346 368 504 368 c 4
 623 368 700 405 776 477 c 5
 781 509 781 518 781 539 c 4
 781 873 588 938 490 938 c 4
487 1067 m 4
 676 1067 942 960 942 540 c 4
 942 207 790 -197 172 -256 c 13
 157 -127 l 21
 475 -98 696 51 759 336 c 5
 701 273 581 239 476 239 c 4
 245 239 70 397 70 633 c 4
 70 867 216 1067 487 1067 c 4
EndSplineSet
EndChar

StartChar: less
Encoding: 60 60 31
Width: 967
GlyphClass: 2
Flags: MW
LayerCount: 3
Fore
SplineSet
0 525 m 5,0,-1
 800 1155 l 5,1,-1
 879 1071 l 5,2,-1
 187 525 l 5,3,-1
 879 -21 l 5,4,-1
 800 -105 l 5,5,-1
 0 525 l 5,0,-1
EndSplineSet
Layer: 2
SplineSet
0 525 m 1
 800 1155 l 1
 879 1071 l 1
 187 525 l 1
 879 -21 l 1
 800 -105 l 1
 0 525 l 1
EndSplineSet
EndChar

StartChar: equal
Encoding: 61 61 32
Width: 1052
GlyphClass: 2
Flags: MW
LayerCount: 3
Fore
SplineSet
991 630 m 1,0,-1
 61 630 l 1,1,-1
 61 738 l 1,2,-1
 991 738 l 1,3,-1
 991 630 l 1,0,-1
991 294 m 1,4,-1
 61 294 l 1,5,-1
 61 402 l 1,6,-1
 991 402 l 1,7,-1
 991 294 l 1,4,-1
EndSplineSet
Layer: 2
SplineSet
991 294 m 29
 61 294 l 29
 61 402 l 21
 991 402 l 13
 991 294 l 29
991 630 m 29
 61 630 l 29
 61 738 l 21
 991 738 l 13
 991 630 l 29
EndSplineSet
EndChar

StartChar: greater
Encoding: 62 62 33
Width: 967
GlyphClass: 2
Flags: MW
LayerCount: 3
Fore
SplineSet
967 525 m 1,0,-1
 167 -105 l 1,1,-1
 88 -21 l 1,2,-1
 780 525 l 1,3,-1
 88 1071 l 1,4,-1
 167 1155 l 1,5,-1
 967 525 l 1,0,-1
EndSplineSet
Layer: 2
SplineSet
967 525 m 5
 167 -105 l 5
 88 -21 l 5
 780 525 l 5
 88 1071 l 5
 167 1155 l 5
 967 525 l 5
EndSplineSet
EndChar

StartChar: question
Encoding: 63 63 34
Width: 864
GlyphClass: 2
Flags: MW
LayerCount: 3
Fore
SplineSet
302 103 m 256,0,1
 302 153 302 153 336.5 188.5 c 128,-1,2
 371 224 371 224 420 224 c 256,3,4
 469 224 469 224 503.5 188.5 c 128,-1,5
 538 153 538 153 538 103 c 256,6,7
 538 53 538 53 503.5 17.5 c 128,-1,8
 469 -18 469 -18 420 -18 c 256,9,10
 371 -18 371 -18 336.5 17.5 c 128,-1,11
 302 53 302 53 302 103 c 256,0,1
108 1380 m 1,12,13
 138 1399 138 1399 154.5 1407.5 c 128,-1,14
 171 1416 171 1416 211 1432.5 c 128,-1,15
 251 1449 251 1449 303 1456.5 c 128,-1,16
 355 1464 355 1464 420 1464 c 4,17,18
 556 1464 556 1464 660 1384.5 c 128,-1,19
 764 1305 764 1305 764 1180 c 0,20,21
 764 1113 764 1113 734.5 1040.5 c 128,-1,22
 705 968 705 968 662.5 906.5 c 128,-1,23
 620 845 620 845 577.5 787.5 c 128,-1,24
 535 730 535 730 505.5 673 c 128,-1,25
 476 616 476 616 476 572 c 0,26,27
 476 496 476 496 502 408 c 1,28,-1
 368 388 l 1,29,30
 360 403 360 403 350.5 424.5 c 128,-1,31
 341 446 341 446 333 467 c 128,-1,32
 325 488 325 488 320 517 c 128,-1,33
 315 546 315 546 315 576 c 0,34,35
 315 635 315 635 344.5 700 c 128,-1,36
 374 765 374 765 416.5 822.5 c 128,-1,37
 459 880 459 880 501.5 937 c 128,-1,38
 544 994 544 994 573.5 1058 c 128,-1,39
 603 1122 603 1122 603 1180 c 0,40,41
 603 1242 603 1242 544 1288.5 c 128,-1,42
 485 1335 485 1335 374 1335 c 260,43,44
 263 1335 263 1335 158 1272 c 1,45,-1
 108 1380 l 1,12,13
EndSplineSet
Layer: 2
SplineSet
108 1380 m 21
 158 1411 236 1464 420 1464 c 4
 592 1464 764 1354 764 1180 c 4
 764 938 476 734 476 572 c 4
 476 509 482 476 502 408 c 13
 368 388 l 21
 346 434 315 490 315 576 c 4
 315 792 603 969 603 1180 c 4
 603 1254 532 1335 374 1335 c 4
 286 1335 208 1302 158 1272 c 13
 108 1380 l 21
302 103 m 4
 302 170 355 224 420 224 c 4
 485 224 538 170 538 103 c 4
 538 36 485 -18 420 -18 c 4
 355 -18 302 36 302 103 c 4
EndSplineSet
EndChar

StartChar: at
Encoding: 64 64 35
Width: 1994
GlyphClass: 2
Flags: MW
LayerCount: 3
Fore
SplineSet
1930 608 m 0,0,1
 1930 511 1930 511 1906.5 418.5 c 128,-1,2
 1883 326 1883 326 1837 248 c 128,-1,3
 1791 170 1791 170 1728.5 111 c 128,-1,4
 1666 52 1666 52 1583.5 18.5 c 128,-1,5
 1501 -15 1501 -15 1409 -15 c 0,6,7
 1348 -15 1348 -15 1303 -5.5 c 128,-1,8
 1258 4 1258 4 1232.5 18 c 128,-1,9
 1207 32 1207 32 1190 54.5 c 128,-1,10
 1173 77 1173 77 1166.5 96.5 c 128,-1,11
 1160 116 1160 116 1156 144 c 1,12,13
 1041 -18 1041 -18 848 -18 c 0,14,15
 784 -18 784 -18 731 1 c 128,-1,16
 678 20 678 20 637.5 58 c 128,-1,17
 597 96 597 96 575 159 c 128,-1,18
 553 222 553 222 553 305 c 0,19,20
 553 426 553 426 588 533 c 128,-1,21
 623 640 623 640 681.5 716 c 128,-1,22
 740 792 740 792 814 847.5 c 128,-1,23
 888 903 888 903 967.5 930 c 128,-1,24
 1047 957 1047 957 1124 957 c 0,25,26
 1223 957 1223 957 1296 933.5 c 128,-1,27
 1369 910 1369 910 1442 859 c 1,28,-1
 1351 392 l 2,29,30
 1327 270 1327 270 1327 209 c 0,31,32
 1327 144 1327 144 1353 119.5 c 128,-1,33
 1379 95 1379 95 1440 95 c 0,34,35
 1526 95 1526 95 1607 169 c 128,-1,36
 1688 243 1688 243 1737.5 359.5 c 128,-1,37
 1787 476 1787 476 1787 596 c 0,38,39
 1787 740 1787 740 1736 868 c 128,-1,40
 1685 996 1685 996 1593 1092 c 128,-1,41
 1501 1188 1501 1188 1363.5 1244 c 128,-1,42
 1226 1300 1226 1300 1064 1300 c 0,43,44
 940 1300 940 1300 818 1259 c 128,-1,45
 696 1218 696 1218 591.5 1139 c 128,-1,46
 487 1060 487 1060 406 954 c 128,-1,47
 325 848 325 848 279 709.5 c 128,-1,48
 233 571 233 571 233 420 c 0,49,50
 233 250 233 250 293.5 100.5 c 128,-1,51
 354 -49 354 -49 459 -155 c 128,-1,52
 564 -261 564 -261 712.5 -322.5 c 128,-1,53
 861 -384 861 -384 1030 -384 c 0,54,55
 1122 -384 1122 -384 1208.5 -366 c 128,-1,56
 1295 -348 1295 -348 1354 -325 c 128,-1,57
 1413 -302 1413 -302 1479.5 -261 c 128,-1,58
 1546 -220 1546 -220 1579 -194.5 c 128,-1,59
 1612 -169 1612 -169 1665 -125 c 1,60,-1
 1755 -195 l 1,61,62
 1634 -324 1634 -324 1446.5 -408 c 128,-1,63
 1259 -492 1259 -492 1030 -492 c 0,64,65
 866 -492 866 -492 726.5 -455 c 128,-1,66
 587 -418 587 -418 486 -352 c 128,-1,67
 385 -286 385 -286 307.5 -198.5 c 128,-1,68
 230 -111 230 -111 183.5 -6 c 128,-1,69
 137 99 137 99 113.5 209.5 c 128,-1,70
 90 320 90 320 90 436 c 0,71,72
 90 594 90 594 139.5 742.5 c 128,-1,73
 189 891 189 891 279 1010.5 c 128,-1,74
 369 1130 369 1130 487.5 1220 c 128,-1,75
 606 1310 606 1310 751.5 1359 c 128,-1,76
 897 1408 897 1408 1050 1408 c 0,77,78
 1213 1408 1213 1408 1354.5 1365.5 c 128,-1,79
 1496 1323 1496 1323 1600 1248.5 c 128,-1,80
 1704 1174 1704 1174 1779.5 1073.5 c 128,-1,81
 1855 973 1855 973 1892.5 854.5 c 128,-1,82
 1930 736 1930 736 1930 608 c 0,0,1
1135 828 m 0,83,84
 1065 828 1065 828 1005.5 808.5 c 128,-1,85
 946 789 946 789 904 757 c 128,-1,86
 862 725 862 725 828 681 c 128,-1,87
 794 637 794 637 773.5 591 c 128,-1,88
 753 545 753 545 739 494.5 c 128,-1,89
 725 444 725 444 719.5 401.5 c 128,-1,90
 714 359 714 359 714 320 c 0,91,92
 714 211 714 211 761 160.5 c 128,-1,93
 808 110 808 110 883 110 c 0,94,95
 931 110 931 110 972.5 124 c 128,-1,96
 1014 138 1014 138 1050 166.5 c 128,-1,97
 1086 195 1086 195 1112 222 c 128,-1,98
 1138 249 1138 249 1171 291 c 1,99,-1
 1268 791 l 1,100,101
 1217 828 1217 828 1135 828 c 0,83,84
EndSplineSet
Layer: 2
SplineSet
885 110 m 4
 1016 111 1095 195 1171 291 c 13
 1268 791 l 21
 1231 818 1192 828 1135 828 c 4
 900 828 768 656 728 449 c 4
 678 193 770 109 885 110 c 4
848 -18 m 4
 646 -18 503 121 569 457 c 4
 632 784 908 957 1124 957 c 4
 1262 957 1350 923 1442 859 c 5
 1351 392 l 6
 1304 149 1324 95 1440 95 c 4
 1616 95 1787 352 1787 596 c 4
 1787 980 1508 1300 1064 1300 c 4
 648 1300 233 938 233 420 c 4
 233 -40 572 -384 1030 -384 c 4
 1352 -384 1536 -232 1665 -125 c 5
 1755 -195 l 5
 1608 -352 1356 -492 1030 -492 c 4
 356 -492 90 -18 90 436 c 4
 90 972 532 1408 1050 1408 c 4
 1605 1408 1930 1033 1930 608 c 4
 1930 283 1724 -11 1420 -15 c 4
 1200 -18 1168 64 1156 144 c 5
 1068 20 948 -18 848 -18 c 4
EndSplineSet
EndChar

StartChar: A
Encoding: 65 65 36
Width: 1328
GlyphClass: 2
Flags: MW
AnchorPoint: "topright" 786 1053 basechar 0 12
AnchorPoint: "cedilla" 1166 0 basechar 0 13
AnchorPoint: "below" 664 0 basechar 0 14
AnchorPoint: "above" 664 1409 basechar 0 11
AnchorPoint: "ogonek" 1166 0 basechar 0 13
LayerCount: 3
Fore
SplineSet
933 404 m 1,0,-1
 385 404 l 1,1,-1
 235 0 l 1,2,-1
 67 0 l 1,3,-1
 589 1391 l 1,4,-1
 739 1391 l 1,5,-1
 1261 0 l 1,6,-1
 1083 0 l 1,7,-1
 933 404 l 1,0,-1
881 544 m 1,8,-1
 659 1144 l 1,9,-1
 436 544 l 1,10,-1
 881 544 l 1,8,-1
664 1409 m 25,11,-1
786 1053 m 25,12,-1
1166 0 m 25,13,-1
664 0 m 25,14,-1
EndSplineSet
Layer: 2
SplineSet
329 543 m 1
 984 544 l 1
 984 404 l 1
 329 404 l 1
 329 543 l 1
659 1144 m 1
 235 0 l 17
 67 0 l 9
 589 1391 l 9
 739 1391 l 17
 1261 0 l 17
 1083 0 l 1
 659 1144 l 1
EndSplineSet
EndChar

StartChar: B
Encoding: 66 66 37
Width: 1116
GlyphClass: 2
Flags: MW
AnchorPoint: "above" 540 1409 basechar 0 54
AnchorPoint: "ogonek" 636 0 basechar 0 56
AnchorPoint: "below" 540 0 basechar 0 57
AnchorPoint: "cedilla" 636 0 basechar 0 56
AnchorPoint: "topright" 892 1053 basechar 0 55
LayerCount: 3
Fore
SplineSet
361 1252 m 1,0,-1
 361 795 l 1,1,-1
 427 795 l 2,2,3
 594 795 594 795 682 858 c 0,4,5
 771 921 771 921 771 1040 c 0,6,7
 771 1095 771 1095 750 1138 c 0,8,9
 729 1180 729 1180 698 1204 c 128,-1,10
 667 1228 667 1228 626 1244 c 128,-1,11
 585 1260 585 1260 551 1265 c 128,-1,12
 517 1270 517 1270 484 1270 c 0,13,14
 418 1270 418 1270 361 1252 c 1,0,-1
361 655 m 1,15,-1
 361 140 l 1,16,17
 379 134 379 134 425 128 c 128,-1,18
 471 122 471 122 499 122 c 0,19,20
 687 122 687 122 785 192 c 0,21,22
 883 261 883 261 883 390 c 0,23,24
 883 655 883 655 421 655 c 2,25,-1
 361 655 l 1,15,-1
508 -18 m 0,26,27
 433 -18 433 -18 335 -9 c 128,-1,28
 237 0 237 0 180 13 c 1,29,-1
 180 1372 l 1,30,31
 346 1409 346 1409 500 1409 c 0,32,33
 702 1409 702 1409 832 1322 c 0,34,35
 963 1235 963 1235 963 1084 c 0,36,37
 963 953 963 953 894 867 c 128,-1,38
 825 781 825 781 717 752 c 1,39,40
 769 745 769 745 815 732 c 128,-1,41
 861 719 861 719 908 693 c 0,42,43
 956 667 956 667 990 631 c 0,44,45
 1025 595 1025 595 1046 538 c 0,46,47
 1068 482 1068 482 1068 413 c 0,48,49
 1068 271 1068 271 992 172 c 0,50,51
 917 73 917 73 793 28 c 0,52,53
 669 -18 669 -18 508 -18 c 0,26,27
540 1409 m 25,54,-1
892 1053 m 25,55,-1
636 0 m 25,56,-1
540 0 m 25,57,-1
EndSplineSet
Layer: 2
SplineSet
361 1252 m 5xf0
 361 795 l 5
 427 795 l 6
 649 795 771 881 771 1040 c 4
 771 1232 579 1270 484 1270 c 4
 426 1270.13 387 1260.33 361 1252 c 5xf0
361 655 m 5
 361 140 l 5
 385.5 131 463.5 122 499 122 c 4
 752 122 883 220 883 390 c 4xe8
 883 579 709 655 421 655 c 6
 361 655 l 5
508 -18 m 4
 411 -18 258 -5 180 13 c 5
 180 1372 l 5
 245 1387 374.71 1409.73 500 1409 c 4
 762 1409 963 1290 963 1084 c 4xf0
 963 902 853 788 717 752 c 5
 875 732 1068 654 1068 413 c 4
 1068 120 822 -18 508 -18 c 4
EndSplineSet
EndChar

StartChar: C
Encoding: 67 67 38
Width: 1255
GlyphClass: 2
Flags: MW
AnchorPoint: "topright" 1080 1245 basechar 0 37
AnchorPoint: "cedilla" 660 0 basechar 0 39
AnchorPoint: "below" 660 0 basechar 0 39
AnchorPoint: "ogonek" 1080 153 basechar 0 38
AnchorPoint: "above" 660 1409 basechar 0 36
LayerCount: 3
Fore
SplineSet
693 1409 m 0,0,1
 789 1409 789 1409 855 1401.5 c 128,-1,2
 921 1394 921 1394 976 1373.5 c 128,-1,3
 1031 1353 1031 1353 1069 1330.5 c 128,-1,4
 1107 1308 1107 1308 1166 1265 c 1,5,-1
 1078 1146 l 1,6,7
 992 1211 992 1211 909 1241 c 128,-1,8
 826 1271 826 1271 728 1269 c 0,9,10
 616 1269 616 1269 522.5 1221 c 128,-1,11
 429 1173 429 1173 368.5 1092.5 c 128,-1,12
 308 1012 308 1012 274.5 909 c 128,-1,13
 241 806 241 806 241 695 c 256,14,15
 241 584 241 584 274.5 481.5 c 128,-1,16
 308 379 308 379 368.5 298.5 c 128,-1,17
 429 218 429 218 522.5 170 c 128,-1,18
 616 122 616 122 728 122 c 0,19,20
 826 120 826 120 909 150 c 128,-1,21
 992 180 992 180 1078 245 c 1,22,-1
 1166 126 l 1,23,24
 1107 83 1107 83 1069 60.5 c 128,-1,25
 1031 38 1031 38 976 17.5 c 128,-1,26
 921 -3 921 -3 855 -10.5 c 128,-1,27
 789 -18 789 -18 693 -18 c 0,28,29
 497 -18 497 -18 350 72 c 128,-1,30
 203 162 203 162 126 323.5 c 128,-1,31
 49 485 49 485 49 696 c 256,32,33
 49 907 49 907 126 1068 c 128,-1,34
 203 1229 203 1229 350 1319 c 128,-1,35
 497 1409 497 1409 693 1409 c 0,0,1
660 1409 m 25,36,-1
1080 1245 m 25,37,-1
1080 153 m 25,38,-1
660 0 m 25,39,-1
EndSplineSet
Layer: 2
SplineSet
693 1409 m 4
 951 1409 1029 1365 1166 1265 c 5
 1078 1146 l 5
 964.984 1231.47 860.725 1271.09 728 1269 c 4
 420 1269 241 989 241 695 c 4
 241 401 415 122 723 122 c 4
 855.725 119.91 964.983 159.53 1078 245 c 5
 1166 126 l 5
 1029 26 880 -18 713 -18 c 4
 346 -18 49 233 49 696 c 4
 49 1119 294 1409 693 1409 c 4
EndSplineSet
EndChar

StartChar: D
Encoding: 68 68 39
Width: 1375
GlyphClass: 2
Flags: MW
AnchorPoint: "topright" 1135 1053 basechar 0 33
AnchorPoint: "cedilla" 620 0 basechar 0 34
AnchorPoint: "below" 620 0 basechar 0 34
AnchorPoint: "ogonek" 620 0 basechar 0 34
AnchorPoint: "above" 620 1409 basechar 0 32
LayerCount: 3
Fore
SplineSet
584 -18 m 0,0,1
 367 -18 367 -18 180 13 c 1,2,-1
 180 1372 l 1,3,4
 391 1409 391 1409 544 1409 c 0,5,6
 663 1409 663 1409 777 1379 c 128,-1,7
 891 1349 891 1349 991 1288.5 c 128,-1,8
 1091 1228 1091 1228 1166.5 1143.5 c 128,-1,9
 1242 1059 1242 1059 1286 942 c 128,-1,10
 1330 825 1330 825 1330 691 c 0,11,12
 1330 524 1330 524 1267.5 387 c 128,-1,13
 1205 250 1205 250 1100.5 163 c 128,-1,14
 996 76 996 76 863 29 c 128,-1,15
 730 -18 730 -18 584 -18 c 0,0,1
361 1252 m 1,16,-1
 360 140 l 1,17,18
 452 122 452 122 557 122 c 0,19,20
 665 122 665 122 768 159 c 128,-1,21
 871 196 871 196 955 264.5 c 128,-1,22
 1039 333 1039 333 1090.5 443.5 c 128,-1,23
 1142 554 1142 554 1142 688 c 0,24,25
 1142 799 1142 799 1105.5 895 c 128,-1,26
 1069 991 1069 991 1009 1058.5 c 128,-1,27
 949 1126 949 1126 871.5 1175 c 128,-1,28
 794 1224 794 1224 710.5 1247 c 128,-1,29
 627 1270 627 1270 546 1270 c 0,30,31
 439 1270 439 1270 361 1252 c 1,16,-1
620 1409 m 25,32,-1
1135 1053 m 25,33,-1
620 0 m 25,34,-1
EndSplineSet
Layer: 2
SplineSet
584 -18 m 4
 362 -18 267.5 -1.5 180 13 c 5
 180 1372 l 5
 262.5 1386.5 390 1409 544 1409 c 4
 938 1409 1330 1152 1330 691 c 4
 1330 230 968 -18 584 -18 c 4
361 1252 m 5
 360 140 l 5
 426.5 127 468 122 557 122 c 4
 840 122 1142 316 1142 688 c 4
 1142 1071 813 1270 546 1270 c 4
 476 1270 395.5 1260 361 1252 c 5
EndSplineSet
EndChar

StartChar: E
Encoding: 69 69 40
Width: 1077
GlyphClass: 2
Flags: MW
AnchorPoint: "topright" 868 1053 basechar 0 14
AnchorPoint: "cedilla" 568 0 basechar 0 15
AnchorPoint: "below" 568 0 basechar 0 15
AnchorPoint: "ogonek" 908 0 basechar 0 12
AnchorPoint: "above" 568 1409 basechar 0 13
LayerCount: 3
Fore
SplineSet
361 644 m 1,0,-1
 361 140 l 1,1,-1
 975 140 l 1,2,-1
 975 0 l 1,3,-1
 180 0 l 1,4,-1
 180 1391 l 1,5,-1
 975 1391 l 1,6,-1
 975 1252 l 1,7,-1
 361 1252 l 1,8,-1
 361 784 l 1,9,-1
 779 784 l 1,10,-1
 779 644 l 1,11,-1
 361 644 l 1,0,-1
908 0 m 25,12,-1
568 1409 m 25,13,-1
868 1053 m 25,14,-1
568 0 m 25,15,-1
EndSplineSet
Layer: 2
SplineSet
361 644 m 5
 361 139 l 5
 975 140 l 5
 975 0 l 5
 180 0 l 5
 180 1391 l 5
 975 1391 l 5
 975 1252 l 5
 361 1252 l 5
 361 784 l 5
 779 784 l 5
 779 644 l 5
 361 644 l 5
EndSplineSet
EndChar

StartChar: F
Encoding: 70 70 41
Width: 999
GlyphClass: 2
Flags: MW
AnchorPoint: "topright" 872 1053 basechar 0 11
AnchorPoint: "cedilla" 270 0 basechar 0 12
AnchorPoint: "below" 270 0 basechar 0 12
AnchorPoint: "ogonek" 270 0 basechar 0 12
AnchorPoint: "above" 580 1409 basechar 0 10
LayerCount: 3
Fore
SplineSet
361 644 m 1,0,-1
 361 0 l 1,1,-1
 180 0 l 1,2,-1
 180 1391 l 1,3,-1
 975 1391 l 1,4,-1
 975 1252 l 1,5,-1
 361 1252 l 1,6,-1
 361 784 l 1,7,-1
 779 784 l 1,8,-1
 779 644 l 1,9,-1
 361 644 l 1,0,-1
580 1409 m 25,10,-1
872 1053 m 25,11,-1
270 0 m 25,12,-1
EndSplineSet
Layer: 2
SplineSet
361 644 m 5
 361 -1 l 5
 180 0 l 5
 180 1391 l 5
 975 1391 l 5
 975 1252 l 5
 361 1252 l 5
 361 783 l 5
 779 784 l 5
 779 644 l 5
 361 644 l 5
EndSplineSet
EndChar

StartChar: G
Encoding: 71 71 42
Width: 1435
GlyphClass: 2
Flags: MW
AnchorPoint: "topright" 1255 1053 basechar 0 37
AnchorPoint: "cedilla" 740 0 basechar 0 38
AnchorPoint: "below" 740 0 basechar 0 38
AnchorPoint: "ogonek" 740 0 basechar 0 38
AnchorPoint: "above" 740 1409 basechar 0 36
LayerCount: 3
Fore
SplineSet
49 696 m 0,0,1
 49 907 49 907 135.5 1068 c 128,-1,2
 222 1229 222 1229 386 1319 c 128,-1,3
 550 1409 550 1409 770 1409 c 0,4,5
 867 1409 867 1409 938.5 1400 c 128,-1,6
 1010 1391 1010 1391 1070.5 1369.5 c 128,-1,7
 1131 1348 1131 1348 1171.5 1326.5 c 128,-1,8
 1212 1305 1212 1305 1276 1264 c 1,9,-1
 1206 1131 l 1,10,11
 992 1269 992 1269 774 1269 c 0,12,13
 652 1269 652 1269 549.5 1221 c 128,-1,14
 447 1173 447 1173 380.5 1093 c 128,-1,15
 314 1013 314 1013 277.5 910.5 c 128,-1,16
 241 808 241 808 241 697 c 0,17,18
 241 608 241 608 262 524 c 128,-1,19
 283 440 283 440 325 367 c 128,-1,20
 367 294 367 294 424.5 239.5 c 128,-1,21
 482 185 482 185 561 153.5 c 128,-1,22
 640 122 640 122 730 122 c 0,23,24
 897.635 119.36 897.635 119.36 1071 196.795 c 1,25,-1
 1071 526 l 1,26,-1
 774 526 l 1,27,-1
 774 665 l 1,28,-1
 1252 666 l 1,29,-1
 1251 126 l 1,30,31
 1140 51 1140 51 1018.5 16.5 c 128,-1,32
 897 -18 897 -18 742 -18 c 0,33,34
 424 -18 424 -18 236.5 179 c 128,-1,35
 49 376 49 376 49 696 c 0,0,1
740 1409 m 25,36,-1
1255 1053 m 25,37,-1
740 0 m 25,38,-1
EndSplineSet
Layer: 2
SplineSet
774 665 m 5
 1252 666 l 5
 1252 526 l 5
 774 526 l 5
 774 665 l 5
1252 666 m 13
 1251 126 l 29
 1071 126 l 21
 1071 666 l 21
 1252 666 l 13
49 696 m 4
 49 1119 323 1401 770 1409 c 4
 1036 1414 1132 1355 1276 1264 c 5
 1206 1131 l 5
 1051 1231 904 1269 774 1269 c 4
 437 1269 241 991 241 697 c 4
 241 402 422 122 730 122 c 4
 857 120 1024 158 1177 253 c 5
 1251 126 l 5
 1104 27 950 -18 742 -18 c 4
 313 -18 49 274 49 696 c 4
EndSplineSet
EndChar

StartChar: H
Encoding: 72 72 43
Width: 1364
GlyphClass: 2
Flags: MW
AnchorPoint: "ogonek" 1093 0 basechar 0 14
AnchorPoint: "above" 682 1409 basechar 0 12
AnchorPoint: "below" 682 0 basechar 0 15
AnchorPoint: "cedilla" 1093 0 basechar 0 14
AnchorPoint: "topright" 1096 1053 basechar 0 13
LayerCount: 3
Fore
SplineSet
1184 1390 m 1,0,-1
 1184 0 l 1,1,-1
 1003 0 l 1,2,-1
 1003 664 l 1,3,-1
 361 664 l 1,4,-1
 361 0 l 1,5,-1
 180 0 l 1,6,-1
 180 1391 l 1,7,-1
 361 1391 l 1,8,-1
 361 804 l 1,9,-1
 1003 804 l 1,10,-1
 1003 1390 l 1,11,-1
 1184 1390 l 1,0,-1
682 1409 m 25,12,-1
1096 1053 m 25,13,-1
1093 0 m 25,14,-1
682 0 m 25,15,-1
EndSplineSet
Layer: 2
SplineSet
294 803 m 5
 1087 804 l 5
 1087 664 l 5
 294 664 l 5
 294 803 l 5
1184 1390 m 13
 1184 -1 l 29
 1003 -1 l 21
 1003 1390 l 21
 1184 1390 l 13
361 1391 m 13
 361 0 l 29
 180 0 l 21
 180 1391 l 21
 361 1391 l 13
EndSplineSet
EndChar

StartChar: I
Encoding: 73 73 44
Width: 541
GlyphClass: 2
Flags: MW
AnchorPoint: "above" 270 1409 basechar 0 4
AnchorPoint: "ogonek" 270 0 basechar 0 6
AnchorPoint: "below" 270 0 basechar 0 6
AnchorPoint: "cedilla" 270 0 basechar 0 6
AnchorPoint: "topright" 270 1053 basechar 0 5
LayerCount: 3
Fore
SplineSet
361 1391 m 1,0,-1
 361 0 l 1,1,-1
 180 0 l 1,2,-1
 180 1391 l 1,3,-1
 361 1391 l 1,0,-1
270 1409 m 25,4,-1
270 1053 m 25,5,-1
270 0 m 25,6,-1
EndSplineSet
Layer: 2
SplineSet
361 1391 m 9
 361 0 l 25
 180 0 l 17
 180 1391 l 17
 361 1391 l 9
EndSplineSet
EndChar

StartChar: J
Encoding: 74 74 45
Width: 541
GlyphClass: 2
Flags: MW
AnchorPoint: "topright" 270 1053 basechar 0 16
AnchorPoint: "cedilla" 60 -492 basechar 0 18
AnchorPoint: "below" 180 -492 basechar 0 17
AnchorPoint: "ogonek" 60 -492 basechar 0 18
AnchorPoint: "above" 270 1409 basechar 0 15
LayerCount: 3
Fore
SplineSet
361 1391 m 1,0,-1
 361 140 l 2,1,2
 359 74 359 74 359 32.5 c 128,-1,3
 359 -9 359 -9 351.5 -67.5 c 128,-1,4
 344 -126 344 -126 331.5 -166.5 c 128,-1,5
 319 -207 319 -207 295 -257 c 128,-1,6
 271 -307 271 -307 237.5 -344.5 c 128,-1,7
 204 -382 204 -382 153 -422 c 128,-1,8
 102 -462 102 -462 37 -495 c 1,9,-1
 -41 -396 l 1,10,11
 76 -306 76 -306 128 -200.5 c 128,-1,12
 180 -95 180 -95 180 69 c 2,13,-1
 180 1391 l 1,14,-1
 361 1391 l 1,0,-1
270 1409 m 25,15,-1
270 1053 m 25,16,-1
180 -492 m 25,17,-1
60 -492 m 25,18,-1
EndSplineSet
Layer: 2
SplineSet
361 1391 m 13
 360 140 l 22
 360 -112 349 -336 37 -495 c 5
 -41 -396 l 5
 112 -279 180 -154 180 69 c 6
 180 1391 l 21
 361 1391 l 13
EndSplineSet
EndChar

StartChar: K
Encoding: 75 75 46
Width: 1115
GlyphClass: 2
Flags: MW
AnchorPoint: "topright" 999 1053 basechar 0 12
AnchorPoint: "cedilla" 997 0 basechar 0 13
AnchorPoint: "below" 620 0 basechar 0 14
AnchorPoint: "above" 620 1409 basechar 0 11
AnchorPoint: "ogonek" 997 0 basechar 0 13
LayerCount: 3
Fore
SplineSet
361 0 m 1,0,-1
 180 0 l 1,1,-1
 180 1391 l 1,2,-1
 361 1391 l 1,3,-1
 361 693 l 1,4,-1
 871 1391 l 1,5,-1
 1059 1391 l 1,6,-1
 555 701 l 1,7,-1
 1103 0 l 1,8,-1
 892 0 l 1,9,-1
 361 679 l 1,10,-1
 361 0 l 1,0,-1
620 1409 m 25,11,-1
999 1053 m 25,12,-1
997 0 m 25,13,-1
620 0 m 25,14,-1
EndSplineSet
Layer: 2
SplineSet
871 1391 m 21
 1059 1391 l 13
 531 668 l 5
 358 683 l 5
 343 668 l 5
 871 1391 l 21
1103 1 m 13
 892 1 l 21
 358 683 l 21
 504 766 l 5
 1103 1 l 13
361 1391 m 13
 361 0 l 29
 180 0 l 21
 180 1391 l 21
 361 1391 l 13
EndSplineSet
EndChar

StartChar: L
Encoding: 76 76 47
Width: 1010
GlyphClass: 2
Flags: MW
AnchorPoint: "above" 270 1409 basechar 0 6
AnchorPoint: "ogonek" 580 0 basechar 0 8
AnchorPoint: "below" 580 0 basechar 0 8
AnchorPoint: "cedilla" 580 0 basechar 0 8
AnchorPoint: "topright" 270 1053 basechar 0 7
LayerCount: 3
Fore
SplineSet
180 0 m 1,0,-1
 180 1391 l 1,1,-1
 361 1391 l 1,2,-1
 361 140 l 1,3,-1
 975 140 l 1,4,-1
 975 0 l 1,5,-1
 180 0 l 1,0,-1
270 1409 m 25,6,-1
270 1053 m 25,7,-1
580 0 m 25,8,-1
EndSplineSet
Layer: 2
SplineSet
180 0 m 5
 180 1391 l 5
 361 1391 l 5
 361 139 l 5
 975 140 l 5
 975 0 l 5
 180 0 l 5
EndSplineSet
EndChar

StartChar: M
Encoding: 77 77 48
Width: 1774
GlyphClass: 2
Flags: MW
AnchorPoint: "topright" 1455 1053 basechar 0 14
AnchorPoint: "cedilla" 1575 0 basechar 0 15
AnchorPoint: "below" 886 0 basechar 0 16
AnchorPoint: "above" 886 1409 basechar 0 13
AnchorPoint: "ogonek" 1575 0 basechar 0 15
LayerCount: 3
Fore
SplineSet
893 249 m 1,0,-1
 1323 1392 l 1,1,-1
 1491 1392 l 1,2,-1
 1664 0 l 1,3,-1
 1486 0 l 1,4,-1
 1362 1039 l 1,5,-1
 981 0 l 1,6,-1
 816 0 l 1,7,-1
 399 1087 l 1,8,-1
 269 0 l 1,9,-1
 109 0 l 1,10,-1
 282 1392 l 1,11,-1
 460 1392 l 1,12,-1
 893 249 l 1,0,-1
886 1409 m 25,13,-1
1455 1053 m 25,14,-1
1575 0 m 25,15,-1
886 0 m 25,16,-1
EndSplineSet
Layer: 2
SplineSet
406 1145 m 5
 269 1 l 5
 109 1 l 13
 282 1392 l 13
 433 1392 l 21
 406 1145 l 5
1349 1145 m 5
 1340 1392 l 13
 1491 1392 l 21
 1664 1 l 21
 1486 1 l 5
 1349 1145 l 5
893 249 m 5
 1323 1392 l 21
 1491 1392 l 13
 981 1 l 13
 816 1 l 21
 282 1392 l 21
 460 1392 l 5
 893 249 l 5
EndSplineSet
EndChar

StartChar: N
Encoding: 78 78 49
Width: 1385
GlyphClass: 2
Flags: MW
AnchorPoint: "topright" 1114 1053 basechar 0 11
AnchorPoint: "cedilla" 1114 0 basechar 0 12
AnchorPoint: "below" 692 0 basechar 0 13
AnchorPoint: "above" 692 1409 basechar 0 10
AnchorPoint: "ogonek" 1114 0 basechar 0 12
LayerCount: 3
Fore
SplineSet
1205 1391 m 1,0,-1
 1205 0 l 1,1,-1
 1024 0 l 1,2,-1
 361 1042 l 1,3,-1
 361 0 l 1,4,-1
 180 0 l 1,5,-1
 180 1391 l 1,6,-1
 361 1391 l 1,7,-1
 1024 348 l 1,8,-1
 1024 1391 l 1,9,-1
 1205 1391 l 1,0,-1
692 1409 m 25,10,-1
1114 1053 m 25,11,-1
1114 0 m 25,12,-1
692 0 m 25,13,-1
EndSplineSet
Layer: 2
SplineSet
1127 96 m 9
 1024 0 l 17
 309 1124 l 1
 223 1340 l 1
 361 1391 l 1
 1057 296 l 1
 1127 96 l 9
1205 1391 m 9
 1205 0 l 25
 1024 0 l 17
 1024 1391 l 17
 1205 1391 l 9
361 1391 m 9
 361 0 l 25
 180 0 l 17
 180 1391 l 17
 361 1391 l 9
EndSplineSet
EndChar

StartChar: O
Encoding: 79 79 50
Width: 1444
GlyphClass: 2
Flags: MW
AnchorPoint: "above" 727 1409 basechar 0 0
AnchorPoint: "below" 727 0 basechar 0 40
AnchorPoint: "cedilla" 727 0 basechar 0 40
AnchorPoint: "ogonek" 727 0 basechar 0 40
AnchorPoint: "topright" 1263 1053 basechar 0 39
LayerCount: 3
Fore
SplineSet
727 1409 m 0,0,1
 856 1409 856 1409 965.5 1373 c 128,-1,2
 1075 1337 1075 1337 1154.5 1272 c 128,-1,3
 1234 1207 1234 1207 1289.5 1118.5 c 128,-1,4
 1345 1030 1345 1030 1372 925 c 128,-1,5
 1399 820 1399 820 1399 703 c 0,6,7
 1399 587 1399 587 1371 479.5 c 128,-1,8
 1343 372 1343 372 1286 281.5 c 128,-1,9
 1229 191 1229 191 1149.5 124 c 128,-1,10
 1070 57 1070 57 961.5 19.5 c 128,-1,11
 853 -18 853 -18 727 -18 c 0,12,13
 562 -18 562 -18 431 37.5 c 128,-1,14
 300 93 300 93 216.5 190.5 c 128,-1,15
 133 288 133 288 89 418.5 c 128,-1,16
 45 549 45 549 45 703 c 0,17,18
 45 855 45 855 90.5 984 c 128,-1,19
 136 1113 136 1113 220.5 1207.5 c 128,-1,20
 305 1302 305 1302 435 1355.5 c 128,-1,21
 565 1409 565 1409 727 1409 c 0,0,1
727 1271 m 0,22,23
 573 1271 573 1271 460.5 1196 c 128,-1,24
 348 1121 348 1121 292.5 994 c 128,-1,25
 237 867 237 867 237 703 c 0,26,27
 237 537 237 537 291 408 c 128,-1,28
 345 279 345 279 457.5 201 c 128,-1,29
 570 123 570 123 727 123 c 0,30,31
 840 123 840 123 932.5 170 c 128,-1,32
 1025 217 1025 217 1085 297 c 128,-1,33
 1145 377 1145 377 1177.5 481.5 c 128,-1,34
 1210 586 1210 586 1210 703 c 0,35,36
 1210 861 1210 861 1156.5 988 c 128,-1,37
 1103 1115 1103 1115 991.5 1193 c 128,-1,38
 880 1271 880 1271 727 1271 c 0,22,23
1263 1053 m 25,39,-1
727 0 m 25,40,-1
EndSplineSet
Layer: 2
SplineSet
727 1271 m 0
 411 1271 237 1027 237 703 c 0
 237 378 403 123 727 123 c 0
 1036 123 1210 393 1210 703 c 0
 1210 1013 1044 1271 727 1271 c 0
727 1409 m 0
 1168 1409 1399 1090 1399 703 c 0
 1399 316 1157 -18 727 -18 c 0
 276 -18 45 297 45 703 c 0
 45 1108 287 1409 727 1409 c 0
EndSplineSet
EndChar

StartChar: P
Encoding: 80 80 51
Width: 1083
GlyphClass: 2
Flags: MW
AnchorPoint: "above" 540 1409 basechar 0 26
AnchorPoint: "ogonek" 270 0 basechar 0 28
AnchorPoint: "below" 270 0 basechar 0 28
AnchorPoint: "cedilla" 270 0 basechar 0 28
AnchorPoint: "topright" 950 1053 basechar 0 27
LayerCount: 3
Fore
SplineSet
515 1409 m 0,0,1
 631 1409 631 1409 722.5 1385.5 c 128,-1,2
 814 1362 814 1362 871.5 1323 c 128,-1,3
 929 1284 929 1284 966.5 1229.5 c 128,-1,4
 1004 1175 1004 1175 1019.5 1117.5 c 128,-1,5
 1035 1060 1035 1060 1035 996 c 0,6,7
 1035 813 1035 813 895 694.5 c 128,-1,8
 755 576 755 576 531 576 c 2,9,-1
 361 576 l 1,10,-1
 361 0 l 1,11,-1
 180 0 l 1,12,-1
 180 1372 l 1,13,14
 248 1385 248 1385 348.5 1397 c 128,-1,15
 449 1409 449 1409 515 1409 c 0,0,1
361 1252 m 1,16,-1
 361 716 l 1,17,-1
 427 716 l 2,18,19
 649 716 649 716 746 781.5 c 128,-1,20
 843 847 843 847 843 996 c 0,21,22
 843 1124 843 1124 761.5 1197 c 128,-1,23
 680 1270 680 1270 520 1270 c 0,24,25
 434 1270 434 1270 361 1252 c 1,16,-1
540 1409 m 25,26,-1
950 1053 m 25,27,-1
270 0 m 25,28,-1
EndSplineSet
Layer: 2
SplineSet
515 1409 m 0
 915 1409 1035 1200 1035 996 c 0
 1035 753 831 576 531 576 c 2
 361 576 l 1
 361 0 l 1
 180 0 l 1
 180 1372 l 1
 261 1388 420 1409 515 1409 c 0
361 1252 m 1
 361 716 l 1
 427 716 l 2
 723 716 843 798 843 996 c 0
 843 1161 740 1270 520 1270 c 0
 456.535 1270 385.5 1258 361 1252 c 1
EndSplineSet
EndChar

StartChar: Q
Encoding: 81 81 52
Width: 1449
GlyphClass: 2
Flags: MW
AnchorPoint: "topright" 1263 1053 basechar 0 51
AnchorPoint: "ogonek" 727 0 basechar 0 52
AnchorPoint: "cedilla" 727 0 basechar 0 52
AnchorPoint: "below" 727 0 basechar 0 52
AnchorPoint: "above" 727 1409 basechar 0 0
LayerCount: 3
Fore
SplineSet
727 1409 m 0,0,1
 856 1409 856 1409 965.5 1373 c 128,-1,2
 1075 1337 1075 1337 1154.5 1272 c 128,-1,3
 1234 1207 1234 1207 1289.5 1118.5 c 128,-1,4
 1345 1030 1345 1030 1372 925 c 128,-1,5
 1399 820 1399 820 1399 703 c 0,6,7
 1399 554 1399 554 1353.5 423 c 128,-1,8
 1308 292 1308 292 1217 190 c 128,-1,9
 1126 88 1126 88 1000 34 c 1,10,11
 1028 19 1028 19 1084.5 -15.5 c 128,-1,12
 1141 -50 1141 -50 1176 -70 c 128,-1,13
 1211 -90 1211 -90 1265.5 -111.5 c 128,-1,14
 1320 -133 1320 -133 1372 -142 c 1,15,-1
 1319 -272 l 1,16,17
 1254 -261 1254 -261 1190 -232.5 c 128,-1,18
 1126 -204 1126 -204 1073 -171 c 128,-1,19
 1020 -138 1020 -138 966.5 -106 c 128,-1,20
 913 -74 913 -74 849.5 -49 c 128,-1,21
 786 -24 786 -24 721 -18 c 0,22,23
 590 -17 590 -17 479.5 19.5 c 128,-1,24
 369 56 369 56 289.5 121 c 128,-1,25
 210 186 210 186 154.5 275.5 c 128,-1,26
 99 365 99 365 72 473 c 128,-1,27
 45 581 45 581 45 703 c 0,28,29
 45 855 45 855 90.5 984 c 128,-1,30
 136 1113 136 1113 220.5 1207.5 c 128,-1,31
 305 1302 305 1302 435 1355.5 c 128,-1,32
 565 1409 565 1409 727 1409 c 0,0,1
727 1271 m 0,33,34
 573 1271 573 1271 460.5 1196 c 128,-1,35
 348 1121 348 1121 292.5 994 c 128,-1,36
 237 867 237 867 237 703 c 0,37,38
 237 537 237 537 291 408 c 128,-1,39
 345 279 345 279 457.5 201 c 128,-1,40
 570 123 570 123 727 123 c 0,41,42
 840 123 840 123 932.5 170 c 128,-1,43
 1025 217 1025 217 1085 297 c 128,-1,44
 1145 377 1145 377 1177.5 481.5 c 128,-1,45
 1210 586 1210 586 1210 703 c 0,46,47
 1210 861 1210 861 1156.5 988 c 128,-1,48
 1103 1115 1103 1115 991.5 1193 c 128,-1,49
 880 1271 880 1271 727 1271 c 0,33,34
727 1409 m 25,50,-1
1263 1053 m 25,51,-1
727 0 m 25,52,-1
EndSplineSet
Layer: 2
SplineSet
774 112 m 17
 1008 89 1136 -101 1372 -142 c 1
 1319 -272 l 17
 1083 -231 956 -41 721 -18 c 1
 774 112 l 17
727 1271 m 0
 411 1271 237 1027 237 703 c 0
 237 378 403 123 727 123 c 0
 1036 123 1210 393 1210 703 c 0
 1210 1013 1044 1271 727 1271 c 0
727 1409 m 0
 1168 1409 1399 1090 1399 703 c 0
 1399 316 1157 -18 727 -18 c 0
 276 -18 45 297 45 703 c 0
 45 1108 287 1409 727 1409 c 0
EndSplineSet
EndChar

StartChar: R
Encoding: 82 82 53
Width: 1045
GlyphClass: 2
Flags: MW
AnchorPoint: "ogonek" 997 0 basechar 0 26
AnchorPoint: "above" 548 1409 basechar 0 24
AnchorPoint: "below" 548 0 basechar 0 27
AnchorPoint: "cedilla" 997 0 basechar 0 26
AnchorPoint: "topright" 900 1053 basechar 0 25
LayerCount: 3
Fore
SplineSet
1079 0 m 1,0,-1
 878 0 l 1,1,-1
 361 628 l 1,2,-1
 361 0 l 1,3,-1
 180 0 l 1,4,-1
 180 1372 l 1,5,6
 367 1409 367 1409 500 1409 c 0,7,8
 732 1409 732 1409 863 1302.5 c 128,-1,9
 994 1196 994 1196 994 1030 c 0,10,11
 994 866 994 866 876 757 c 128,-1,12
 758 648 758 648 559 631 c 1,13,-1
 1079 0 l 1,0,-1
361 1252 m 1,14,-1
 361 768 l 1,15,-1
 386 768 l 2,16,17
 802 768 802 768 802 1024 c 0,18,19
 802 1133 802 1133 708.5 1201.5 c 128,-1,20
 615 1270 615 1270 491 1270 c 0,21,22
 457 1270 457 1270 416 1263.5 c 128,-1,23
 375 1257 375 1257 361 1252 c 1,14,-1
548 1409 m 29,24,-1
900 1053 m 29,25,-1
997 0 m 29,26,-1
548 0 m 29,27,-1
EndSplineSet
Layer: 2
SplineSet
500.5 1409 m 0
 818 1409 994 1244 994 1030 c 0
 994 794 796 628 490 628 c 2
 361 628 l 1
 361 0 l 1
 180 0 l 1
 180 1372 l 1
 261 1388 406 1409 500.5 1409 c 0
361 1252 m 1
 361 768 l 1
 386 768 l 2
 748 768 802 918 802 1024 c 0
 802 1176 648 1270 491 1270 c 0
 440 1270 375.5 1257.5 361 1252 c 1
1079 0 m 1
 878 0 l 1
 361 628 l 17
 449 765 l 1
 1079 0 l 1
EndSplineSet
EndChar

StartChar: S
Encoding: 83 83 54
Width: 1007
GlyphClass: 2
Flags: MW
AnchorPoint: "topright" 772 1053 basechar 0 59
AnchorPoint: "cedilla" 504 0 basechar 0 60
AnchorPoint: "below" 504 0 basechar 0 60
AnchorPoint: "above" 504 1409 basechar 0 58
AnchorPoint: "ogonek" 504 0 basechar 0 60
LayerCount: 3
Fore
SplineSet
157 253 m 1,0,1
 185 233 185 233 208.5 214 c 128,-1,2
 232 195 232 195 262 178.5 c 128,-1,3
 292 162 292 162 324 149.5 c 128,-1,4
 356 137 356 137 401 129.5 c 128,-1,5
 446 122 446 122 499 122 c 0,6,7
 558 122 558 122 602.5 141.5 c 128,-1,8
 647 161 647 161 671.5 192.5 c 128,-1,9
 696 224 696 224 707.5 259.5 c 128,-1,10
 719 295 719 295 719 332 c 0,11,12
 719 373 719 373 706.5 407 c 128,-1,13
 694 441 694 441 668.5 469 c 128,-1,14
 643 497 643 497 614.5 517.5 c 128,-1,15
 586 538 586 538 546 561 c 2,16,-1
 392 642 l 2,17,18
 346 667 346 667 311.5 691 c 128,-1,19
 277 715 277 715 240.5 750.5 c 128,-1,20
 204 786 204 786 180.5 825.5 c 128,-1,21
 157 865 157 865 142 920.5 c 128,-1,22
 127 976 127 976 127 1040 c 0,23,24
 127 1199 127 1199 230 1304 c 128,-1,25
 333 1409 333 1409 498 1409 c 0,26,27
 603 1409 603 1409 686.5 1382 c 128,-1,28
 770 1355 770 1355 819 1317 c 1,29,-1
 781 1179 l 1,30,31
 662 1271 662 1271 511 1271 c 0,32,33
 426 1271 426 1271 372.5 1208 c 128,-1,34
 319 1145 319 1145 319 1046 c 0,35,36
 319 1001 319 1001 333.5 963.5 c 128,-1,37
 348 926 348 926 377 896.5 c 128,-1,38
 406 867 406 867 437.5 845.5 c 128,-1,39
 469 824 469 824 514 800 c 2,40,-1
 671 720 l 2,41,42
 713 697 713 697 745.5 674.5 c 128,-1,43
 778 652 778 652 810.5 619.5 c 128,-1,44
 843 587 843 587 864 550.5 c 128,-1,45
 885 514 885 514 898 464.5 c 128,-1,46
 911 415 911 415 911 357 c 0,47,48
 911 200 911 200 802 91 c 128,-1,49
 693 -18 693 -18 518 -18 c 0,50,51
 463 -18 463 -18 415.5 -13 c 128,-1,52
 368 -8 368 -8 331.5 1 c 128,-1,53
 295 10 295 10 262 22.5 c 128,-1,54
 229 35 229 35 202.5 49.5 c 128,-1,55
 176 64 176 64 148.5 80 c 128,-1,56
 121 96 121 96 96 113 c 1,57,-1
 157 253 l 1,0,1
504 1409 m 25,58,-1
772 1053 m 25,59,-1
504 0 m 25,60,-1
EndSplineSet
Layer: 2
SplineSet
157 253 m 17
 244 187 315 122 499 122 c 0
 664 122 719 239 719 332 c 0
 719 445.014 643.28 506.61 546 560.977 c 2
 391.819 642 l 2
 254.911 717.485 127 817.812 127 1040 c 0
 127 1248 274 1409 498 1409 c 0
 649 1409 762 1362 819 1317 c 9
 781 1179 l 17
 732 1217 638 1271 511 1271 c 0
 398 1271 319 1177 319 1046 c 0
 319 920.225 406.582 856.586 514.372 800 c 2
 671.254 720 l 2
 798.305 649.72 911 555.519 911 357 c 0
 911 154 758 -18 518 -18 c 0
 291 -18 203 47 96 113 c 9
 157 253 l 17
EndSplineSet
EndChar

StartChar: T
Encoding: 84 84 55
Width: 1183
GlyphClass: 2
Flags: MW
AnchorPoint: "above" 591 1409 basechar 0 8
AnchorPoint: "ogonek" 591 0 basechar 0 10
AnchorPoint: "below" 591 0 basechar 0 10
AnchorPoint: "cedilla" 591 0 basechar 0 10
AnchorPoint: "topright" 1008 1053 basechar 0 9
LayerCount: 3
Fore
SplineSet
57 1391 m 1,0,-1
 1126 1391 l 1,1,-1
 1126 1252 l 1,2,-1
 682 1252 l 1,3,-1
 682 0 l 1,4,-1
 501 0 l 1,5,-1
 501 1252 l 1,6,-1
 57 1252 l 1,7,-1
 57 1391 l 1,0,-1
591 1409 m 25,8,-1
1008 1053 m 25,9,-1
591 0 m 25,10,-1
EndSplineSet
Layer: 2
SplineSet
57 1391 m 1
 1126 1391 l 1
 1126 1252 l 1
 57 1252 l 1
 57 1391 l 1
682 1344 m 9
 682 0 l 25
 501 0 l 17
 501 1344 l 17
 682 1344 l 9
EndSplineSet
EndChar

StartChar: U
Encoding: 85 85 56
Width: 1310
GlyphClass: 2
Flags: MW
AnchorPoint: "above" 655 1392 basechar 0 19
AnchorPoint: "below" 655 0 basechar 0 17
AnchorPoint: "cedilla" 655 0 basechar 0 17
AnchorPoint: "ogonek" 655 0 basechar 0 17
AnchorPoint: "topright" 1048 1053 basechar 0 18
LayerCount: 3
Fore
SplineSet
361 486 m 2,0,1
 361 299 361 299 447 211 c 128,-1,2
 533 123 533 123 681 123 c 0,3,4
 814 123 814 123 886.5 218.5 c 128,-1,5
 959 314 959 314 959 513 c 2,6,-1
 959 1391 l 1,7,-1
 1130 1391 l 1,8,-1
 1130 469 l 2,9,10
 1130 248 1130 248 1012 115 c 128,-1,11
 894 -18 894 -18 681 -18 c 0,12,13
 180 -18 180 -18 180 438 c 2,14,-1
 180 1391 l 1,15,-1
 361 1391 l 1,16,-1
 361 486 l 2,0,1
655 0 m 25,17,-1
1048 1053 m 25,18,-1
655 1392 m 25,19,-1
EndSplineSet
Layer: 2
SplineSet
361 486 m 2
 361 204 513 123 681 123 c 0
 853 123 959 240 959 513 c 2
 959 1391 l 1
 1130 1391 l 1
 1130 469 l 2
 1130 180 970 -18 681 -18 c 0
 374 -18 180 109 180 438 c 2
 180 1391 l 1
 361 1391 l 1
 361 486 l 2
EndSplineSet
EndChar

StartChar: V
Encoding: 86 86 57
Width: 1328
GlyphClass: 2
Flags: MW
AnchorPoint: "ogonek" 664 0 basechar 0 9
AnchorPoint: "above" 664 1409 basechar 0 7
AnchorPoint: "below" 664 0 basechar 0 9
AnchorPoint: "cedilla" 664 0 basechar 0 9
AnchorPoint: "topright" 1048 1053 basechar 0 8
LayerCount: 3
Fore
SplineSet
669 248 m 1,0,-1
 1093 1391 l 1,1,-1
 1261 1391 l 1,2,-1
 739 0 l 1,3,-1
 589 0 l 1,4,-1
 67 1391 l 1,5,-1
 245 1391 l 1,6,-1
 669 248 l 1,0,-1
664 1409 m 25,7,-1
1048 1053 m 25,8,-1
664 0 m 25,9,-1
EndSplineSet
Layer: 2
SplineSet
669 248 m 1
 1093 1391 l 17
 1261 1391 l 9
 739 0 l 9
 589 0 l 17
 67 1391 l 17
 245 1391 l 1
 669 248 l 1
EndSplineSet
EndChar

StartChar: W
Encoding: 87 87 58
Width: 2027
GlyphClass: 2
Flags: MW
AnchorPoint: "topright" 1772 1053 basechar 0 14
AnchorPoint: "cedilla" 1424 0 basechar 0 16
AnchorPoint: "below" 1013 0 basechar 0 15
AnchorPoint: "above" 1013 1409 basechar 0 13
AnchorPoint: "ogonek" 1424 0 basechar 0 16
LayerCount: 3
Fore
SplineSet
1792 1391 m 1,0,-1
 1960 1391 l 1,1,-1
 1499 0 l 1,2,-1
 1349 0 l 1,3,-1
 1013 1014 l 1,4,-1
 677 0 l 1,5,-1
 527 0 l 1,6,-1
 67 1391 l 1,7,-1
 245 1391 l 1,8,-1
 607 248 l 1,9,-1
 970 1391 l 1,10,-1
 1067 1391 l 1,11,-1
 1429 248 l 1,12,-1
 1792 1391 l 1,0,-1
1013 1409 m 25,13,-1
1772 1053 m 25,14,-1
1013 0 m 25,15,-1
1424 0 m 25,16,-1
EndSplineSet
Layer: 2
SplineSet
1429 248 m 1
 1792 1391 l 17
 1960 1391 l 9
 1499 0 l 9
 1349 0 l 17
 985 1100 l 1
 970 1391 l 1
 1067 1391 l 1
 1429 248 l 1
607 248 m 1
 970 1391 l 17
 1067 1391 l 1
 1063 1164 l 1
 677 0 l 9
 527 0 l 17
 67 1391 l 17
 245 1391 l 1
 607 248 l 1
EndSplineSet
EndChar

StartChar: X
Encoding: 88 88 59
Width: 1288
GlyphClass: 2
Flags: MW
AnchorPoint: "topright" 892 1053 basechar 0 14
AnchorPoint: "cedilla" 1098 0 basechar 0 12
AnchorPoint: "below" 644 0 basechar 0 15
AnchorPoint: "above" 644 1409 basechar 0 13
AnchorPoint: "ogonek" 1098 0 basechar 0 12
LayerCount: 3
Fore
SplineSet
108 1392 m 1,0,-1
 319 1392 l 1,1,-1
 662 854 l 1,2,-1
 1002 1391 l 1,3,-1
 1190 1391 l 1,4,-1
 756 706 l 1,5,-1
 1204 1 l 1,6,-1
 992 1 l 1,7,-1
 633 566 l 1,8,-1
 272 -5 l 1,9,-1
 84 -5 l 1,10,-1
 539 714 l 1,11,-1
 108 1392 l 1,0,-1
1098 0 m 29,12,-1
644 1409 m 29,13,-1
892 1053 m 29,14,-1
644 0 m 29,15,-1
EndSplineSet
Layer: 2
SplineSet
1002 1391 m 17
 1190 1391 l 9
 732 668 l 9
 544 668 l 17
 1002 1391 l 17
541 718 m 17
 729 718 l 9
 272 -5 l 9
 84 -5 l 17
 541 718 l 17
1204 1 m 9
 992 1 l 17
 108 1392 l 17
 319 1392 l 1
 1204 1 l 9
EndSplineSet
EndChar

StartChar: Y
Encoding: 89 89 60
Width: 1241
GlyphClass: 2
Flags: MW
AnchorPoint: "topright" 896 1053 basechar 0 10
AnchorPoint: "cedilla" 620 0 basechar 0 11
AnchorPoint: "below" 620 0 basechar 0 11
AnchorPoint: "ogonek" 620 0 basechar 0 11
AnchorPoint: "above" 620 1409 basechar 0 9
LayerCount: 3
Fore
SplineSet
1014 1391 m 1,0,-1
 1182 1391 l 1,1,-1
 711 618 l 1,2,-1
 711 0 l 1,3,-1
 530 0 l 1,4,-1
 530 619 l 1,5,-1
 59 1391 l 1,6,-1
 237 1391 l 1,7,-1
 626 754 l 1,8,-1
 1014 1391 l 1,0,-1
620 1409 m 25,9,-1
896 1053 m 25,10,-1
620 0 m 25,11,-1
EndSplineSet
Layer: 2
SplineSet
532 616 m 1
 59 1391 l 17
 237 1391 l 9
 710 616 l 1
 532 616 l 1
1014 1391 m 1
 1182 1391 l 9
 710 616 l 1
 542 616 l 1
 1014 1391 l 1
711 741 m 9
 711 0 l 25
 530 0 l 17
 530 741 l 17
 711 741 l 9
EndSplineSet
EndChar

StartChar: Z
Encoding: 90 90 61
Width: 1259
GlyphClass: 2
Flags: MW
AnchorPoint: "ogonek" 1048 0 basechar 0 8
AnchorPoint: "above" 601 1409 basechar 0 9
AnchorPoint: "below" 601 0 basechar 0 11
AnchorPoint: "cedilla" 1048 0 basechar 0 8
AnchorPoint: "topright" 808 1053 basechar 0 10
LayerCount: 3
Fore
SplineSet
87 1391 m 1,0,-1
 1116 1391 l 1,1,-1
 320 139 l 1,2,-1
 1116 139 l 1,3,-1
 1116 -1 l 1,4,-1
 50 0 l 1,5,-1
 846 1252 l 1,6,-1
 87 1252 l 1,7,-1
 87 1391 l 1,0,-1
1048 0 m 25,8,-1
601 1409 m 25,9,-1
808 1053 m 25,10,-1
601 0 m 25,11,-1
EndSplineSet
Layer: 2
SplineSet
168 139 m 1
 1116 139 l 1
 1116 -1 l 1
 50 0 l 1
 168 139 l 1
87 1391 m 1
 1116 1391 l 1
 980 1252 l 1
 87 1252 l 1
 87 1391 l 1
50 0 m 17
 935 1391 l 1
 1116 1391 l 9
 232 0 l 9
 50 0 l 17
EndSplineSet
EndChar

StartChar: bracketleft
Encoding: 91 91 62
Width: 581
GlyphClass: 2
Flags: MW
LayerCount: 3
Fore
SplineSet
100 -490 m 1,0,-1
 100 1475 l 1,1,-1
 522 1475 l 1,2,-1
 522 1347 l 1,3,-1
 261 1347 l 1,4,-1
 261 -362 l 1,5,-1
 522 -362 l 1,6,-1
 522 -490 l 1,7,-1
 100 -490 l 1,0,-1
EndSplineSet
Layer: 2
SplineSet
100 -490 m 1
 100 1475 l 1
 522 1475 l 1
 522 1347 l 1
 261 1347 l 1
 261 -362 l 1
 522 -362 l 1
 522 -490 l 1
 100 -490 l 1
EndSplineSet
EndChar

StartChar: backslash
Encoding: 92 92 63
Width: 645
GlyphClass: 2
Flags: MW
LayerCount: 3
Fore
SplineSet
152 1475 m 1,0,-1
 621 0 l 1,1,-1
 493 0 l 1,2,-1
 24 1475 l 1,3,-1
 152 1475 l 1,0,-1
EndSplineSet
Layer: 2
SplineSet
152 1475 m 9
 621 0 l 9
 493 0 l 17
 24 1475 l 17
 152 1475 l 9
EndSplineSet
EndChar

StartChar: bracketright
Encoding: 93 93 64
Width: 581
GlyphClass: 2
Flags: MW
LayerCount: 3
Fore
SplineSet
522 -490 m 1,0,-1
 100 -490 l 1,1,-1
 100 -362 l 1,2,-1
 361 -362 l 1,3,-1
 361 1347 l 1,4,-1
 100 1347 l 1,5,-1
 100 1475 l 1,6,-1
 522 1475 l 1,7,-1
 522 -490 l 1,0,-1
EndSplineSet
Layer: 2
SplineSet
522 -490 m 1
 100 -490 l 1
 100 -362 l 1
 361 -362 l 1
 361 1347 l 1
 100 1347 l 1
 100 1475 l 1
 522 1475 l 1
 522 -490 l 1
EndSplineSet
EndChar

StartChar: asciicircum
Encoding: 94 94 65
Width: 1085
GlyphClass: 2
Flags: MW
LayerCount: 3
Fore
SplineSet
600 1409 m 1,0,-1
 1015 828 l 1,1,-1
 915 795 l 1,2,-1
 540 1310 l 1,3,-1
 165 795 l 1,4,-1
 65 828 l 1,5,-1
 480 1409 l 1,6,-1
 600 1409 l 1,0,-1
EndSplineSet
Layer: 2
SplineSet
600 1409 m 25
 1015 828 l 25
 915 795 l 25
 540 1310 l 25
 165 795 l 25
 65 828 l 25
 480 1409 l 25
 600 1409 l 25
EndSplineSet
EndChar

StartChar: underscore
Encoding: 95 95 66
Width: 1048
GlyphClass: 2
Flags: MW
LayerCount: 3
Fore
SplineSet
983 -297 m 1,0,-1
 65 -297 l 1,1,-1
 65 -188 l 1,2,-1
 983 -188 l 1,3,-1
 983 -297 l 1,0,-1
EndSplineSet
Layer: 2
SplineSet
983 -297 m 25
 65 -297 l 25
 65 -188 l 17
 983 -188 l 9
 983 -297 l 25
EndSplineSet
EndChar

StartChar: grave
Encoding: 96 96 67
Width: 491
GlyphClass: 2
Flags: MW
LayerCount: 3
Fore
SplineSet
10 1475 m 1,0,-1
 198 1475 l 1,1,-1
 360 1100 l 1,2,-1
 249 1100 l 1,3,-1
 10 1475 l 1,0,-1
EndSplineSet
Layer: 2
SplineSet
10 1475 m 25
 198 1475 l 25
 341 1144 l 25
 249 1100 l 25
 10 1475 l 25
EndSplineSet
EndChar

StartChar: a
Encoding: 97 97 68
Width: 894
GlyphClass: 2
Flags: MWO
AnchorPoint: "topright" 774 828 basechar 0 56
AnchorPoint: "ogonek" 720 0 basechar 0 55
AnchorPoint: "cedilla" 693 0 basechar 0 53
AnchorPoint: "below" 439 0 basechar 0 54
AnchorPoint: "above" 439 956 basechar 0 52
LayerCount: 3
Fore
SplineSet
611 416 m 1,0,-1
 605 416 l 2,1,2
 497 416 497 416 413 397.5 c 128,-1,3
 329 379 329 379 275.5 338.5 c 128,-1,4
 222 298 222 298 222 239 c 0,5,6
 222 190 222 190 260 148 c 128,-1,7
 298 106 298 106 376 106 c 0,8,9
 596 106 596 106 611 331 c 1,10,-1
 611 416 l 1,0,-1
145 890 m 1,11,12
 325 953 325 953 444 953 c 0,13,14
 555 953 555 953 638 896 c 128,-1,15
 721 839 721 839 750 727 c 0,16,17
 766 664 766 664 766 467 c 2,18,-1
 766 160 l 2,19,20
 766 72 766 72 780 0 c 1,21,-1
 624 0 l 9,22,23
 610 44 610 44 611 100 c 1,24,25
 586 70 586 70 556 48 c 0,26,27
 462 -21 462 -21 356 -21 c 0,28,29
 292 -21 292 -21 241 -3 c 128,-1,30
 190 15 190 15 160 42.5 c 128,-1,31
 130 70 130 70 110.5 106 c 128,-1,32
 91 142 91 142 83.5 173.5 c 128,-1,33
 76 205 76 205 76 235 c 0,34,35
 76 295 76 295 103.5 345 c 128,-1,36
 131 395 131 395 178.5 428 c 128,-1,37
 226 461 226 461 281 482 c 128,-1,38
 336 503 336 503 399 515 c 0,39,40
 474 529 474 529 593 529 c 2,41,-1
 611 529 l 1,42,-1
 611 633 l 2,43,44
 611 664 611 664 609.5 683.5 c 128,-1,45
 608 703 608 703 598 734 c 128,-1,46
 588 765 588 765 569 783 c 128,-1,47
 550 801 550 801 512 815 c 128,-1,48
 474 829 474 829 420 829 c 0,49,50
 292 829 292 829 153 765 c 1,51,-1
 145 890 l 1,11,12
439 956 m 25,52,-1
693 0 m 25,53,-1
439 0 m 25,54,-1
720 0 m 25,55,-1
774 828 m 25,56,-1
EndSplineSet
Layer: 2
SplineSet
766 160 m 2
 766 101.333 770.667 48 780 0 c 1
 624 0 l 9
 614.667 29.3333 610.333 62.6667 611 100 c 1
 611 599 l 1
 611 610 611 622 611 633 c 0
 611 709 609 829 420 829 c 0
 353 829 251 810 153 765 c 1
 145 890 l 1
 288 940 384 953 444 953 c 0
 584 953 710 882 750 727 c 0
 764 672 767 614 767 556 c 0
 767 526 766 497 766 467 c 2
 766 160 l 2
222 239 m 0
 222 186 260 106 376 106 c 0
 627 106 612 329 612 380 c 2
 612 386 l 1
 612 416 l 1
 702 404 l 1
 702 368 l 2
 702 304 685 144 556 48 c 0
 485 -5 424 -21 356 -21 c 0
 132 -21 76 145 76 235 c 0
 76 403 240 486 399 515 c 0
 463 527 528 529 593 529 c 2
 666 529 l 1
 672 416 l 1
 605 416 l 2
 397 416 222 361 222 239 c 0
EndSplineSet
EndChar

StartChar: b
Encoding: 98 98 69
Width: 1059
GlyphClass: 2
Flags: MW
AnchorPoint: "ogonek" 555 0 basechar 0 34
AnchorPoint: "topright" 841 828 basechar 0 35
AnchorPoint: "above" 244 1475 basechar 0 36
AnchorPoint: "below" 555 0 basechar 0 34
AnchorPoint: "cedilla" 555 0 basechar 0 34
LayerCount: 3
Fore
SplineSet
594 828 m 0,0,1
 431 827 431 827 325 648 c 1,2,-1
 325 148 l 1,3,4
 383 111 383 111 490 111 c 0,5,6
 576 111 576 111 643.5 141 c 128,-1,7
 711 171 711 171 753 223 c 128,-1,8
 795 275 795 275 816.5 343 c 128,-1,9
 838 411 838 411 838 490 c 0,10,11
 838 582 838 582 816.5 650.5 c 128,-1,12
 795 719 795 719 758.5 756 c 128,-1,13
 722 793 722 793 681 810.5 c 128,-1,14
 640 828 640 828 594 828 c 0,0,1
606 956 m 0,15,16
 684 956 684 956 753 928.5 c 128,-1,17
 822 901 822 901 878 846 c 128,-1,18
 934 791 934 791 966.5 697.5 c 128,-1,19
 999 604 999 604 999 482 c 0,20,21
 999 387 999 387 970.5 304.5 c 128,-1,22
 942 222 942 222 894.5 164 c 128,-1,23
 847 106 847 106 785.5 64 c 128,-1,24
 724 22 724 22 658 2 c 128,-1,25
 592 -18 592 -18 526 -18 c 0,26,27
 323 -18 323 -18 164 80 c 1,28,-1
 164 1475 l 1,29,-1
 325 1475 l 1,30,-1
 325 828 l 1,31,32
 390 901 390 901 457 928.5 c 128,-1,33
 524 956 524 956 606 956 c 0,15,16
555 0 m 25,34,-1
841 828 m 25,35,-1
244 1475 m 25,36,-1
EndSplineSet
Layer: 2
SplineSet
594 828 m 0
 463 827 382 744 325 648 c 9
 325 148 l 17
 367 121 433 111 490 111 c 0
 725 111 838 283 838 490 c 0
 838 746 709 829 594 828 c 0
606 956 m 0
 808 956 999 818 999 482 c 0
 999 155 742 -18 526 -18 c 0
 388 -18 268 16 164 80 c 9
 164 1475 l 25
 325 1475 l 25
 325 828 l 17
 418 932 506 956 606 956 c 0
EndSplineSet
EndChar

StartChar: c
Encoding: 99 99 70
Width: 888
GlyphClass: 2
Flags: MW
AnchorPoint: "ogonek" 516 0 basechar 0 29
AnchorPoint: "cedilla" 516 0 basechar 0 29
AnchorPoint: "below" 486 0 basechar 0 28
AnchorPoint: "above" 486 956 basechar 0 26
AnchorPoint: "topright" 773 828 basechar 0 27
LayerCount: 3
Fore
SplineSet
61 469 m 256,0,1
 61 690 61 690 181.5 823 c 128,-1,2
 302 956 302 956 508 956 c 0,3,4
 633 956 633 956 695 935 c 128,-1,5
 757 914 757 914 836 856 c 1,6,-1
 774 748 l 1,7,8
 715 791 715 791 661 809.5 c 128,-1,9
 607 828 607 828 543 827 c 0,10,11
 397 827 397 827 309.5 722 c 128,-1,12
 222 617 222 617 222 469 c 256,13,14
 222 321 222 321 309.5 216 c 128,-1,15
 397 111 397 111 543 111 c 0,16,17
 607 110 607 110 661 128.5 c 128,-1,18
 715 147 715 147 774 190 c 1,19,-1
 836 82 l 1,20,21
 757 24 757 24 695 3 c 128,-1,22
 633 -18 633 -18 508 -18 c 0,23,24
 302 -18 302 -18 181.5 115 c 128,-1,25
 61 248 61 248 61 469 c 256,0,1
486 956 m 25,26,-1
773 828 m 17,27,-1
486 0 m 9,28,-1
516 0 m 25,29,-1
EndSplineSet
Layer: 2
SplineSet
61 469 m 4
 61 762 231 956 508 956 c 4
 687 956 741 925 836 856 c 5
 774 748 l 5
 695 806 627 828 543 827 c 4
 340 827 222 657 222 469 c 4
 222 281 340 111 543 111 c 4
 627 110 695 132 774 190 c 5
 836 82 l 5
 741 13 687 -18 508 -18 c 4
 231 -18 61 176 61 469 c 4
EndSplineSet
EndChar

StartChar: d
Encoding: 100 100 71
Width: 1063
GlyphClass: 2
Flags: MW
AnchorPoint: "topright" 816 828 basechar 0 32
AnchorPoint: "below" 482 0 basechar 0 31
AnchorPoint: "ogonek" 816 0 basechar 0 33
AnchorPoint: "cedilla" 482 0 basechar 0 31
AnchorPoint: "above" 816 1475 basechar 0 30
LayerCount: 3
Fore
SplineSet
465 -18 m 0,0,1
 349 -18 349 -18 255 46 c 128,-1,2
 161 110 161 110 111 212.5 c 128,-1,3
 61 315 61 315 61 432 c 0,4,5
 61 665 61 665 196.5 810.5 c 128,-1,6
 332 956 332 956 533 956 c 0,7,8
 617 956 617 956 734 924 c 1,9,-1
 734 1475 l 1,10,-1
 899 1475 l 1,11,-1
 899 0 l 1,12,-1
 734 0 l 1,13,-1
 734 110 l 1,14,15
 621 -18 621 -18 465 -18 c 0,0,1
734 784 m 1,16,17
 651 828 651 828 543 828 c 0,18,19
 488 828 488 828 431.5 799.5 c 128,-1,20
 375 771 375 771 328 721.5 c 128,-1,21
 281 672 281 672 251.5 597 c 128,-1,22
 222 522 222 522 222 436 c 0,23,24
 222 297 222 297 296.5 204 c 128,-1,25
 371 111 371 111 480 111 c 0,26,27
 554 111 554 111 621 161.5 c 128,-1,28
 688 212 688 212 734 290 c 1,29,-1
 734 784 l 1,16,17
816 1475 m 25,30,-1
482 0 m 25,31,-1
816 828 m 25,32,-1
816 0 m 25,33,-1
EndSplineSet
Layer: 2
SplineSet
465 -18 m 0
 225 -18 61 198 61 432 c 0
 61 748 270 956 533 956 c 0
 615 956 668 942 734 924 c 1
 734 1475 l 1
 899 1475 l 1
 899 0 l 1
 734 0 l 1
 734 110 l 1
 696 67 613 -18 465 -18 c 0
734 784 m 1
 702 801 630 828 543 828 c 0
 398 828 222 674 222 436 c 0
 222 250 336 111 480 111 c 0
 585 111 677 194 734 290 c 1
 734 784 l 1
EndSplineSet
EndChar

StartChar: e
Encoding: 101 101 72
Width: 939
GlyphClass: 2
Flags: MW
AnchorPoint: "below" 495 0 basechar 0 42
AnchorPoint: "above" 495 956 basechar 0 39
AnchorPoint: "ogonek" 740 0 basechar 0 41
AnchorPoint: "cedilla" 495 0 basechar 0 42
AnchorPoint: "topright" 773 828 basechar 0 40
LayerCount: 3
Fore
SplineSet
500 828 m 0,0,1
 361 828 361 828 292 744 c 0,2,3
 244 686 244 686 229 580 c 1,4,-1
 714 580 l 1,5,6
 705 689 705 689 648.5 758.5 c 128,-1,7
 592 828 592 828 500 828 c 0,0,1
222 460 m 1,8,9
 224 294 224 294 310 204 c 0,10,11
 398 111 398 111 543 111 c 0,12,13
 586 111 586 111 605.5 112.5 c 128,-1,14
 625 114 625 114 675 127.5 c 128,-1,15
 725 141 725 141 795 170 c 1,16,-1
 838 55 l 1,17,18
 782 17 782 17 700.5 -0.5 c 128,-1,19
 619 -18 619 -18 546 -18 c 0,20,21
 313 -18 313 -18 187 115 c 128,-1,22
 61 248 61 248 61 469 c 0,23,24
 61 571 61 571 86 654.5 c 128,-1,25
 111 738 111 738 152 793 c 128,-1,26
 193 848 193 848 248 885.5 c 128,-1,27
 303 923 303 923 361 939.5 c 128,-1,28
 419 956 419 956 480 956 c 0,29,30
 552 956 552 956 611 938 c 128,-1,31
 670 920 670 920 709.5 891 c 128,-1,32
 749 862 749 862 779.5 821.5 c 128,-1,33
 810 781 810 781 826.5 742 c 128,-1,34
 843 703 843 703 854 658.5 c 128,-1,35
 865 614 865 614 868 582.5 c 128,-1,36
 871 551 871 551 872 520 c 1,37,-1
 848 460 l 1,38,-1
 222 460 l 1,8,9
495 956 m 25,39,-1
773 828 m 25,40,-1
740 0 m 25,41,-1
495 0 m 25,42,-1
EndSplineSet
Layer: 2
SplineSet
500 828 m 4
 321 828 222 729 222 469 c 4
 222 231 357 111 543 111 c 4
 605 111 646 108 795 170 c 5
 838 55 l 5
 756 0 629 -18 546 -18 c 4
 228 -18 61 183 61 469 c 4
 61 822 285 956 480 956 c 4
 828 956 870 640 872 520 c 13
 848 460 l 29
 202 460 l 29
 208 580 l 29
 714 580 l 21
 702 720 627 828 500 828 c 4
EndSplineSet
EndChar

StartChar: f
Encoding: 102 102 73
Width: 675
GlyphClass: 2
Flags: MW
AnchorPoint: "cedilla" 302 0 basechar 0 25
AnchorPoint: "below" 302 0 basechar 0 25
AnchorPoint: "above" 564 1475 basechar 0 27
AnchorPoint: "topright" 580 828 basechar 0 26
AnchorPoint: "ogonek" 302 0 basechar 0 25
LayerCount: 3
Fore
SplineSet
383 0 m 1,0,-1
 222 0 l 1,1,-1
 222 810 l 1,2,-1
 56 810 l 1,3,-1
 56 938 l 1,4,-1
 222 938 l 1,5,-1
 222 1020 l 2,6,7
 222 1464 222 1464 573 1464 c 0,8,9
 632 1464 632 1464 681 1452.5 c 128,-1,10
 730 1441 730 1441 753.5 1429.5 c 128,-1,11
 777 1418 777 1418 807 1398.5 c 128,-1,12
 837 1379 837 1379 846 1374 c 1,13,-1
 802 1247 l 1,14,15
 761 1283 761 1283 699.5 1309.5 c 128,-1,16
 638 1336 638 1336 575 1336 c 0,17,18
 500 1336 500 1336 441.5 1264 c 128,-1,19
 383 1192 383 1192 383 1107 c 2,20,-1
 383 938 l 1,21,-1
 612 938 l 1,22,-1
 612 810 l 1,23,-1
 383 810 l 1,24,-1
 383 0 l 1,0,-1
302 0 m 25,25,-1
580 828 m 25,26,-1
564 1475 m 25,27,-1
EndSplineSet
Layer: 2
SplineSet
383 0 m 29
 222 0 l 29
 222 810 l 29
 56 810 l 29
 56 938 l 29
 222 938 l 29
 222 1020 l 22
 222 1270 306 1464 573 1464 c 4
 743 1464 796 1400 846 1374 c 13
 802 1247 l 21
 754 1289 666 1336 575 1336 c 4
 474 1336 383 1219 383 1107 c 30
 383 938 l 29
 612 938 l 29
 612 810 l 29
 383 810 l 29
 383 0 l 29
EndSplineSet
EndChar

StartChar: g
Encoding: 103 103 74
Width: 980
GlyphClass: 2
Flags: MW
AnchorPoint: "topright" 892 828 basechar 0 95
AnchorPoint: "cedilla" 516 -492 basechar 0 93
AnchorPoint: "ogonek" 516 -492 basechar 0 93
AnchorPoint: "above" 516 956 basechar 0 94
AnchorPoint: "below" 495 -492 basechar 0
LayerCount: 3
Fore
SplineSet
492 827 m 256,0,1
 435 827 435 827 392 806.5 c 128,-1,2
 349 786 349 786 325 752 c 128,-1,3
 301 718 301 718 289.5 680 c 128,-1,4
 278 642 278 642 278 602 c 0,5,6
 278 519 278 519 329 466.5 c 128,-1,7
 380 414 380 414 492 414 c 0,8,9
 549 414 549 414 592 433 c 128,-1,10
 635 452 635 452 659 483.5 c 128,-1,11
 683 515 683 515 694.5 550 c 128,-1,12
 706 585 706 585 706 621 c 0,13,14
 706 655 706 655 694.5 689.5 c 128,-1,15
 683 724 683 724 659 755.5 c 128,-1,16
 635 787 635 787 592 807 c 128,-1,17
 549 827 549 827 492 827 c 256,0,1
805 810 m 1,18,19
 867 722 867 722 867 621 c 0,20,21
 867 574 867 574 855 528 c 128,-1,22
 843 482 843 482 815 437.5 c 128,-1,23
 787 393 787 393 745 359.5 c 128,-1,24
 703 326 703 326 638 305.5 c 128,-1,25
 573 285 573 285 492 285 c 0,26,27
 406 285 406 285 338 303 c 1,28,29
 279 258 279 258 279 201 c 0,30,31
 279 176 279 176 301 159 c 128,-1,32
 323 142 323 142 364 134.5 c 128,-1,33
 405 127 405 127 444 124.5 c 128,-1,34
 483 122 483 122 536 122 c 0,35,36
 594 122 594 122 646.5 115.5 c 128,-1,37
 699 109 699 109 754 92 c 128,-1,38
 809 75 809 75 848.5 49 c 128,-1,39
 888 23 888 23 913 -21 c 128,-1,40
 938 -65 938 -65 938 -121 c 0,41,42
 938 -244 938 -244 869 -329 c 128,-1,43
 800 -414 800 -414 686.5 -453 c 128,-1,44
 573 -492 573 -492 424 -492 c 0,45,46
 265 -492 265 -492 165.5 -428 c 128,-1,47
 66 -364 66 -364 66 -241 c 0,48,49
 66 -195 66 -195 78 -157 c 128,-1,50
 90 -119 90 -119 114.5 -88 c 128,-1,51
 139 -57 139 -57 168.5 -33 c 128,-1,52
 198 -9 198 -9 242 18 c 1,53,54
 118 60 118 60 118 170 c 0,55,56
 118 211 118 211 146 262 c 128,-1,57
 174 313 174 313 231 353 c 1,58,59
 120 433 120 433 117 598 c 0,60,61
 116 662 116 662 136 722.5 c 128,-1,62
 156 783 156 783 198 837 c 128,-1,63
 240 891 240 891 316 923.5 c 128,-1,64
 392 956 392 956 492 956 c 0,65,66
 563 956 563 956 624 938 c 1,67,-1
 938 938 l 1,68,-1
 938 810 l 1,69,-1
 805 810 l 1,18,19
396 -6 m 1,70,71
 369 -21 369 -21 350.5 -32 c 128,-1,72
 332 -43 332 -43 306.5 -63.5 c 128,-1,73
 281 -84 281 -84 265.5 -105 c 128,-1,74
 250 -126 250 -126 238.5 -156.5 c 128,-1,75
 227 -187 227 -187 227 -222 c 0,76,77
 227 -273 227 -273 262 -306 c 128,-1,78
 297 -339 297 -339 345 -351 c 128,-1,79
 393 -363 393 -363 454 -363 c 0,80,81
 537 -363 537 -363 607.5 -342.5 c 128,-1,82
 678 -322 678 -322 727.5 -273.5 c 128,-1,83
 777 -225 777 -225 777 -156 c 0,84,85
 777 -122 777 -122 763 -95.5 c 128,-1,86
 749 -69 749 -69 721 -53.5 c 128,-1,87
 693 -38 693 -38 664 -28 c 128,-1,88
 635 -18 635 -18 591.5 -13.5 c 128,-1,89
 548 -9 548 -9 517.5 -8 c 128,-1,90
 487 -7 487 -7 442 -7 c 0,91,92
 418 -7 418 -7 396 -6 c 1,70,71
516 -492 m 25,93,-1
516 956 m 25,94,-1
892 828 m 25,95,-1
EndSplineSet
Layer: 2
SplineSet
66 -241 m 4xe480
 66 -96 157 -31 291 48 c 13
 407 0 l 21
 336 -38 227 -95 227 -222 c 4xe480
 227 -330 343 -363 454 -363 c 4
 610 -363 777 -301 777 -156 c 4
 777 -13 584.99 -7 442 -7 c 20
 182 -7 118 77 118 170 c 4
 118 227 161 324 282 384 c 13
 390 336 l 21
 313 294 279 254 279 201 c 4xe280
 279 130 417 122 536 122 c 4
 714 122 938 74 938 -121 c 4
 938 -374 714 -492 424 -492 c 4
 222 -492 66 -412 66 -241 c 4xe480
557 938 m 29xf080
 938 938 l 29
 938 810 l 29
 772 810 l 29
 557 938 l 29xf080
492 827 m 4xe9
 333 827 278 702 278 602 c 4
 278 502 333 414 492 414 c 4
 651 414 706 530 706 621 c 4
 706 706 651 827 492 827 c 4xe9
492 956 m 4
 771 956 867 748 867 621 c 4
 867 470 771 285 492 285 c 4
 213 285 120 429 117 598 c 4
 114 760 213 956 492 956 c 4
EndSplineSet
EndChar

StartChar: h
Encoding: 104 104 75
Width: 1121
GlyphClass: 2
Flags: MW
AnchorPoint: "above" 244 1475 basechar 0 27
AnchorPoint: "below" 555 0 basechar 0 24
AnchorPoint: "cedilla" 876 0 basechar 0 25
AnchorPoint: "ogonek" 876 0 basechar 0 25
AnchorPoint: "topright" 907 828 basechar 0 26
LayerCount: 3
Fore
SplineSet
164 0 m 1,0,-1
 164 1475 l 1,1,-1
 325 1475 l 1,2,-1
 325 766 l 1,3,4
 415 956 415 956 618 956 c 0,5,6
 654 956 654 956 694 946.5 c 128,-1,7
 734 937 734 937 782.5 910 c 128,-1,8
 831 883 831 883 868.5 841 c 128,-1,9
 906 799 906 799 931.5 727 c 128,-1,10
 957 655 957 655 957 563 c 2,11,-1
 957 0 l 1,12,-1
 796 0 l 1,13,-1
 796 507 l 2,14,15
 796 678 796 678 736 753 c 128,-1,16
 676 828 676 828 566 828 c 0,17,18
 507 828 507 828 458 796.5 c 128,-1,19
 409 765 409 765 382 721 c 128,-1,20
 355 677 355 677 340 638.5 c 128,-1,21
 325 600 325 600 325 578 c 2,22,-1
 325 0 l 1,23,-1
 164 0 l 1,0,-1
555 0 m 25,24,-1
876 0 m 25,25,-1
907 828 m 25,26,-1
244 1475 m 25,27,-1
EndSplineSet
Layer: 2
SplineSet
796 507 m 6
 796 747 703 828 566 828 c 4
 398 828 325 628.01 325 578 c 14
 325 0 l 21
 164 0 l 29
 164.002 1475 l 29
 325.002 1475 l 29
 325 766 l 21
 359 838 435 956 618 956 c 4
 723 956 957 885 957 563 c 14
 957 0 l 29
 796 0 l 29
 796 507 l 6
EndSplineSet
EndChar

StartChar: k
Encoding: 107 107 78
Width: 935
GlyphClass: 2
Flags: MW
AnchorPoint: "topright" 632.5 828 basechar 0 13
AnchorPoint: "ogonek" 555 0 basechar 0 12
AnchorPoint: "cedilla" 555 0 basechar 0 12
AnchorPoint: "below" 555 0 basechar 0 11
AnchorPoint: "above" 244 1475 basechar 0 14
LayerCount: 3
Fore
SplineSet
325 0 m 1,0,-1
 164 0 l 1,1,-1
 164 1475 l 1,2,-1
 325 1475 l 1,3,-1
 325 624 l 1,4,-1
 644 938 l 1,5,-1
 844 938 l 1,6,-1
 458 562 l 1,7,-1
 913 0 l 1,8,-1
 714 0 l 1,9,-1
 325 479 l 1,10,-1
 325 0 l 1,0,-1
555 0 m 29,11,-1
555 0 m 29,12,-1
632.5 828 m 29,13,-1
244 1475 m 29,14,-1
EndSplineSet
Layer: 2
SplineSet
244 544 m 25
 644 938 l 17
 844 938 l 9
 372 478 l 25
 244 544 l 25
290 522 m 25
 404 630 l 25
 914 0 l 17
 714 0 l 9
 290 522 l 25
325 0 m 17
 164 0 l 25
 164 1475 l 25
 325 1475 l 25
 325 0 l 17
EndSplineSet
EndChar

StartChar: l
Encoding: 108 108 79
Width: 593
GlyphClass: 2
Flags: MW
AnchorPoint: "above" 244 1475 basechar 0 16
AnchorPoint: "below" 344 0 basechar 0 14
AnchorPoint: "cedilla" 344 0 basechar 0 14
AnchorPoint: "ogonek" 344 0 basechar 0 14
AnchorPoint: "topright" 244 828 basechar 0 15
LayerCount: 3
Fore
SplineSet
325 1475 m 1,0,-1
 325 256 l 2,1,2
 325 179 325 179 355.5 145.5 c 128,-1,3
 386 112 386 112 423 112 c 0,4,5
 438 112 438 112 526 120 c 1,6,-1
 539 3 l 1,7,8
 439 -18 439 -18 372 -18 c 0,9,10
 270 -18 270 -18 217 44.5 c 128,-1,11
 164 107 164 107 164 246 c 2,12,-1
 164 1475 l 1,13,-1
 325 1475 l 1,0,-1
344 0 m 25,14,-1
244 828 m 25,15,-1
244 1475 m 25,16,-1
EndSplineSet
Layer: 2
SplineSet
325 1475 m 17
 325 256 l 2
 325 142 384 112 423 112 c 0
 463 112 482 116 526 120 c 1
 539 3 l 1
 482 -9 443 -18 372 -18 c 0
 241 -18 164 55 164 246 c 2
 164 1475 l 9
 325 1475 l 17
EndSplineSet
EndChar

StartChar: m
Encoding: 109 109 80
Width: 1645
GlyphClass: 2
Flags: MW
AnchorPoint: "topright" 1431 828 basechar 0 37
AnchorPoint: "above" 825 956 basechar 0 36
AnchorPoint: "below" 825 0 basechar 0 35
AnchorPoint: "cedilla" 1403 0 basechar 0 38
AnchorPoint: "ogonek" 1403 0 basechar 0 38
LayerCount: 3
Fore
SplineSet
164 0 m 1,0,-1
 164 938 l 1,1,-1
 325 938 l 1,2,-1
 325 789 l 1,3,4
 356 862 356 862 416.5 909 c 128,-1,5
 477 956 477 956 567 956 c 0,6,7
 793 956 793 956 867 731 c 1,8,9
 946 956 946 956 1145 956 c 0,10,11
 1310 956 1310 956 1395.5 833 c 128,-1,12
 1481 710 1481 710 1481 469 c 2,13,-1
 1481 1 l 1,14,-1
 1325 0 l 1,15,-1
 1325 469 l 2,16,17
 1325 828 1325 828 1111 828 c 0,18,19
 1053 828 1053 828 1006 785 c 128,-1,20
 959 742 959 742 933.5 679.5 c 0,21,22
 903 617 903 617 903 549 c 2,23,-1
 903 0 l 1,24,-1
 747 0 l 1,25,-1
 747 469 l 2,26,27
 747 828 747 828 533 828 c 0,28,29
 475 828 475 828 428 785 c 128,-1,30
 381 742 381 742 355.5 679.5 c 0,31,32
 325 617 325 617 325 549 c 2,33,-1
 325 0 l 1,34,-1
 164 0 l 1,0,-1
825 0 m 25,35,-1
825 956 m 25,36,-1
1431 828 m 25,37,-1
1403 0 m 25,38,-1
EndSplineSet
Layer: 2
SplineSet
164 0 m 1
 164 938 l 1
 325 938 l 1
 325 789 l 1
 362 876 438 956 567 956 c 0
 716 956 818 880 867 731 c 1
 903 834 979 956 1145 956 c 0
 1365 956 1481 791 1481 469 c 2
 1481 0 l 1
 1325 0 l 1
 1325 469 l 2
 1325 670 1274 828 1111 828 c 0
 990 828 912 681 903 549 c 2
 903 0 l 1
 747 0 l 1
 747 469 l 2
 747 670 696 828 533 828 c 0
 412 828 334 681 325 549 c 2
 325 0 l 1
 164 0 l 1
EndSplineSet
EndChar

StartChar: n
Encoding: 110 110 81
Width: 1121
GlyphClass: 2
Flags: MW
AnchorPoint: "topright" 795 828 basechar 0 26
AnchorPoint: "ogonek" 876 0 basechar 0 27
AnchorPoint: "cedilla" 876 0 basechar 0 27
AnchorPoint: "below" 555 0 basechar 0 24
AnchorPoint: "above" 555 956 basechar 0 25
LayerCount: 3
Fore
SplineSet
796 507 m 2,0,1
 796 678 796 678 736 753 c 128,-1,2
 676 828 676 828 566 828 c 0,3,4
 507 828 507 828 458 796.5 c 128,-1,5
 409 765 409 765 382 721 c 128,-1,6
 355 677 355 677 340 638.5 c 128,-1,7
 325 600 325 600 325 578 c 2,8,-1
 325 0 l 1,9,-1
 164 0 l 1,10,-1
 164 938 l 1,11,-1
 325 938 l 1,12,-1
 325 766 l 1,13,14
 415 956 415 956 618 956 c 0,15,16
 654 956 654 956 694 946.5 c 128,-1,17
 734 937 734 937 782.5 910 c 128,-1,18
 831 883 831 883 868.5 841 c 128,-1,19
 906 799 906 799 931.5 727 c 128,-1,20
 957 655 957 655 957 563 c 2,21,-1
 957 0 l 1,22,-1
 796 0 l 1,23,-1
 796 507 l 2,0,1
555 0 m 25,24,-1
555 956 m 25,25,-1
795 828 m 25,26,-1
876 0 m 25,27,-1
EndSplineSet
Layer: 2
SplineSet
796 507 m 2
 796 747 703 828 566 828 c 0
 398 828 325 628.01 325 578 c 10
 325 0 l 17
 164 0 l 25
 164 938 l 25
 325 938 l 25
 325 766 l 17
 359 838 435 956 618 956 c 0
 723 956 957 885 957 563 c 10
 957 0 l 25
 796 0 l 25
 796 507 l 2
EndSplineSet
EndChar

StartChar: o
Encoding: 111 111 82
Width: 1012
GlyphClass: 2
Flags: MW
AnchorPoint: "topright" 773 828 basechar 0 45
AnchorPoint: "ogonek" 506 0 basechar 0 46
AnchorPoint: "cedilla" 506 0 basechar 0 46
AnchorPoint: "below" 506 0 basechar 0 46
AnchorPoint: "above" 506 956 basechar 0 44
LayerCount: 3
Fore
SplineSet
222 469 m 256,0,1
 222 372 222 372 246.5 299.5 c 128,-1,2
 271 227 271 227 312.5 187.5 c 128,-1,3
 354 148 354 148 402.5 129.5 c 128,-1,4
 451 111 451 111 506 111 c 256,5,6
 561 111 561 111 609 129.5 c 128,-1,7
 657 148 657 148 698.5 187.5 c 128,-1,8
 740 227 740 227 764 299.5 c 128,-1,9
 788 372 788 372 788 469 c 256,10,11
 788 566 788 566 764 638.5 c 128,-1,12
 740 711 740 711 698.5 750.5 c 128,-1,13
 657 790 657 790 609 808.5 c 128,-1,14
 561 827 561 827 506 827 c 256,15,16
 451 827 451 827 402.5 808.5 c 128,-1,17
 354 790 354 790 312.5 750.5 c 128,-1,18
 271 711 271 711 246.5 638.5 c 128,-1,19
 222 566 222 566 222 469 c 256,0,1
61 469 m 256,20,21
 61 576 61 576 86.5 661 c 128,-1,22
 112 746 112 746 154.5 800.5 c 128,-1,23
 197 855 197 855 255.5 890.5 c 128,-1,24
 314 926 314 926 376 941 c 128,-1,25
 438 956 438 956 506 956 c 256,26,27
 574 956 574 956 636 941 c 128,-1,28
 698 926 698 926 756.5 890.5 c 128,-1,29
 815 855 815 855 857.5 800.5 c 128,-1,30
 900 746 900 746 925.5 661 c 128,-1,31
 951 576 951 576 951 469 c 256,32,33
 951 362 951 362 925.5 277 c 128,-1,34
 900 192 900 192 857.5 137.5 c 128,-1,35
 815 83 815 83 756.5 47.5 c 128,-1,36
 698 12 698 12 636 -3 c 128,-1,37
 574 -18 574 -18 506 -18 c 256,38,39
 438 -18 438 -18 376 -3 c 128,-1,40
 314 12 314 12 255.5 47.5 c 128,-1,41
 197 83 197 83 154.5 137.5 c 128,-1,42
 112 192 112 192 86.5 277 c 128,-1,43
 61 362 61 362 61 469 c 256,20,21
506 956 m 25,44,-1
773 828 m 25,45,-1
506 0 m 25,46,-1
EndSplineSet
Layer: 2
SplineSet
222 469 m 4
 222 198 367 111 506 111 c 4
 645 111 788 198 788 469 c 4
 788 740 645 827 506 827 c 4
 367 827 222 740 222 469 c 4
61 469 m 4
 61 838 288 956 506 956 c 4
 724 956 951 838 951 469 c 4
 951 100 724 -18 506 -18 c 4
 288 -18 61 100 61 469 c 4
EndSplineSet
EndChar

StartChar: p
Encoding: 112 112 83
Width: 1063
GlyphClass: 2
Flags: MW
AnchorPoint: "cedilla" 244 -492 basechar 0 32
AnchorPoint: "below" 244 -492 basechar 0 32
AnchorPoint: "above" 555 956 basechar 0 30
AnchorPoint: "topright" 841 828 basechar 0 31
AnchorPoint: "ogonek" 244 -492 basechar 0 32
LayerCount: 3
Fore
SplineSet
329 154 m 1,0,1
 409 110 409 110 520 110 c 0,2,3
 575 110 575 110 631.5 138.5 c 128,-1,4
 688 167 688 167 735 216.5 c 128,-1,5
 782 266 782 266 811.5 341 c 128,-1,6
 841 416 841 416 841 502 c 0,7,8
 841 641 841 641 766.5 734 c 128,-1,9
 692 827 692 827 583 827 c 0,10,11
 509 827 509 827 442 776.5 c 128,-1,12
 375 726 375 726 329 648 c 1,13,-1
 329 154 l 1,0,1
598 956 m 0,14,15
 714 956 714 956 808 892 c 128,-1,16
 902 828 902 828 952 725.5 c 128,-1,17
 1002 623 1002 623 1002 506 c 0,18,19
 1002 273 1002 273 866.5 127.5 c 128,-1,20
 731 -18 731 -18 530 -18 c 0,21,22
 446 -18 446 -18 329 14 c 1,23,-1
 329 -492 l 1,24,-1
 164 -492 l 1,25,-1
 164 938 l 1,26,-1
 329 938 l 1,27,-1
 329 828 l 1,28,29
 442 956 442 956 598 956 c 0,14,15
555 956 m 25,30,-1
841 828 m 25,31,-1
244 -492 m 25,32,-1
EndSplineSet
Layer: 2
SplineSet
598 956 m 4
 838 956 1002 740 1002 506 c 4
 1002 190 793 -18 530 -18 c 4
 448 -18 395 -4 329 14 c 5
 329 -492 l 5
 164 -492 l 5
 164 938 l 5
 329 938 l 5
 329 828 l 5
 367 871 450 956 598 956 c 4
329 154 m 5
 360 137 433 110 520 110 c 4
 665 110 841 264 841 502 c 4
 841 688 727 827 583 827 c 4
 478 827 386 744 329 648 c 5
 329 154 l 5
EndSplineSet
EndChar

StartChar: q
Encoding: 113 113 84
Width: 1060
GlyphClass: 2
Flags: MW
AnchorPoint: "ogonek" 816 -492 basechar 0 36
AnchorPoint: "topright" 816 828 basechar 0 35
AnchorPoint: "above" 555 956 basechar 0 34
AnchorPoint: "below" 816 -492 basechar 0 36
AnchorPoint: "cedilla" 816 -492 basechar 0 36
LayerCount: 3
Fore
SplineSet
454 -18 m 0,0,1
 376 -18 376 -18 307 9.5 c 128,-1,2
 238 37 238 37 182 92 c 128,-1,3
 126 147 126 147 93.5 240.5 c 128,-1,4
 61 334 61 334 61 456 c 0,5,6
 61 551 61 551 89.5 633.5 c 128,-1,7
 118 716 118 716 165.5 774 c 128,-1,8
 213 832 213 832 274.5 874 c 128,-1,9
 336 916 336 916 402 936 c 128,-1,10
 468 956 468 956 534 956 c 0,11,12
 737 956 737 956 896 858 c 1,13,-1
 896 -492 l 1,14,-1
 735 -492 l 1,15,-1
 735 110 l 1,16,17
 670 37 670 37 603 9.5 c 128,-1,18
 536 -18 536 -18 454 -18 c 0,0,1
464 110 m 0,19,20
 628 110 628 110 735 290 c 1,21,-1
 735 790 l 1,22,23
 677 827 677 827 570 827 c 0,24,25
 484 827 484 827 416.5 797 c 128,-1,26
 349 767 349 767 307 715 c 128,-1,27
 265 663 265 663 243.5 595 c 128,-1,28
 222 527 222 527 222 448 c 0,29,30
 222 357 222 357 243.5 288.5 c 128,-1,31
 265 220 265 220 301 182.5 c 128,-1,32
 337 145 337 145 377.5 127.5 c 128,-1,33
 418 110 418 110 464 110 c 0,19,20
555 956 m 25,34,-1
816 828 m 29,35,-1
816 -492 m 25,36,-1
EndSplineSet
Layer: 2
SplineSet
466 110 m 4
 597 111 678 194 735 290 c 13
 735 790 l 21
 693 817 627 827 570 827 c 4
 335 827 222 655 222 448 c 4
 222 192 351 109 466 110 c 4
454 -18 m 4
 252 -18 61 120 61 456 c 4
 61 783 318 956 534 956 c 4
 672 956 792 922 896 858 c 13
 896 -492 l 29
 735 -492 l 29
 735 110 l 21
 642 6 554 -18 454 -18 c 4
EndSplineSet
EndChar

StartChar: r
Encoding: 114 114 85
Width: 830
GlyphClass: 2
Flags: MW
AnchorPoint: "above" 465 956 basechar 0 21
AnchorPoint: "below" 244 0 basechar 0 20
AnchorPoint: "cedilla" 244 0 basechar 0 20
AnchorPoint: "ogonek" 244 0 basechar 0 20
AnchorPoint: "topright" 728 828 basechar 0 22
LayerCount: 3
Fore
SplineSet
164 0 m 1,0,-1
 164 938 l 1,1,-1
 325 938 l 1,2,-1
 325 766 l 1,3,4
 361 844 361 844 427.5 900 c 128,-1,5
 494 956 494 956 589 956 c 0,6,7
 663 956 663 956 717.5 926.5 c 128,-1,8
 772 897 772 897 790 864 c 1,9,-1
 722 762 l 1,10,11
 708 780 708 780 695 792.5 c 128,-1,12
 682 805 682 805 650.5 816.5 c 128,-1,13
 619 828 619 828 578 828 c 0,14,15
 514 828 514 828 456 781.5 c 128,-1,16
 398 735 398 735 364 668 c 128,-1,17
 330 601 330 601 325 534 c 2,18,-1
 325 0 l 1,19,-1
 164 0 l 1,0,-1
244 0 m 29,20,-1
465 956 m 29,21,-1
728 828 m 29,22,-1
EndSplineSet
Layer: 2
SplineSet
164 0 m 25
 164 938 l 25
 325 938 l 25
 325 766 l 17
 365 853 449 956 589 956 c 0
 698 956 770 900 790 864 c 9
 722 762 l 1
 701 790 667 828 578 828 c 0
 444 828 335 666 325 534 c 9
 325 0 l 17
 164 0 l 25
EndSplineSet
EndChar

StartChar: s
Encoding: 115 115 86
Width: 782
GlyphClass: 2
Flags: MW
AnchorPoint: "topright" 597 828 basechar 0 40
AnchorPoint: "ogonek" 400 0 basechar 0 38
AnchorPoint: "cedilla" 400 0 basechar 0 38
AnchorPoint: "below" 400 0 basechar 0 38
AnchorPoint: "above" 400 956 basechar 0 39
LayerCount: 3
Fore
SplineSet
396 956 m 0,0,1
 486 956 486 956 556 932.5 c 128,-1,2
 626 909 626 909 664 879 c 1,3,-1
 607 759 l 1,4,5
 576 784 576 784 519 806 c 128,-1,6
 462 828 462 828 406 828 c 0,7,8
 331 828 331 828 289 789 c 128,-1,9
 247 750 247 750 247 705 c 0,10,11
 247 654 247 654 279 622 c 128,-1,12
 311 590 311 590 408 556 c 2,13,-1
 506 522 l 2,14,15
 613 485 613 485 664.5 424.5 c 128,-1,16
 716 364 716 364 716 264 c 0,17,18
 716 134 716 134 628 58 c 128,-1,19
 540 -18 540 -18 388 -18 c 0,20,21
 307 -18 307 -18 232.5 -1.5 c 128,-1,22
 158 15 158 15 66 68 c 1,23,-1
 124 192 l 1,24,25
 201 146 201 146 255 128.5 c 128,-1,26
 309 111 309 111 382 111 c 0,27,28
 555 111 555 111 555 260 c 0,29,30
 555 350 555 350 390 404 c 2,31,-1
 292 438 l 2,32,33
 187 475 187 475 136.5 543.5 c 128,-1,34
 86 612 86 612 86 695 c 0,35,36
 86 799 86 799 173 877.5 c 128,-1,37
 260 956 260 956 396 956 c 0,0,1
400 0 m 25,38,-1
400 956 m 25,39,-1
597 828 m 25,40,-1
EndSplineSet
Layer: 2
SplineSet
410 956 m 0
 544 956 638 910 678 879 c 9
 621 759 l 17
 586 788 502 828 420 828 c 0
 311 828 261 756 261 705 c 0
 261 641 286 603 422 556 c 2
 520 522 l 2
 657 474 730 402 730 264 c 0
 730 92 606 -18 402 -18 c 0
 316 -18 216 -10 80 68 c 9
 138 192 l 17
 238 132 296 111 396 111 c 0
 510 111 569 160 569 260 c 0
 569 325 507 370 404 404 c 2
 306 438 l 2
 158 490 100 592 100 695 c 0
 100 828 222 956 410 956 c 0
EndSplineSet
EndChar

StartChar: t
Encoding: 116 116 87
Width: 669
GlyphClass: 2
Flags: MW
AnchorPoint: "ogonek" 372 0 basechar 0 22
AnchorPoint: "cedilla" 372 0 basechar 0 22
AnchorPoint: "below" 372 0 basechar 0 22
AnchorPoint: "topright" 510 828 basechar 0 24
AnchorPoint: "above" 254 956 basechar 0 23
LayerCount: 3
Fore
SplineSet
335 1188 m 1,0,-1
 335 938 l 1,1,-1
 564 938 l 1,2,-1
 564 810 l 1,3,-1
 335 810 l 1,4,-1
 335 256 l 2,5,6
 335 179 335 179 374 145.5 c 128,-1,7
 413 112 413 112 461 112 c 0,8,9
 554 112 554 112 606 128 c 1,10,-1
 626 15 l 1,11,12
 534 -18 534 -18 412 -18 c 0,13,14
 295 -18 295 -18 234.5 44.5 c 128,-1,15
 174 107 174 107 174 246 c 2,16,-1
 174 810 l 1,17,-1
 8 810 l 1,18,-1
 8 938 l 1,19,-1
 174 938 l 1,20,-1
 174 1128 l 1,21,-1
 335 1188 l 1,0,-1
372 0 m 25,22,-1
254 956 m 25,23,-1
510 828 m 25,24,-1
EndSplineSet
Layer: 2
SplineSet
335 1188 m 17
 335 938 l 9
 564 938 l 25
 564 810 l 25
 335 810 l 17
 335 256 l 2
 335 142 410 112 461 112 c 0
 511 112 557 113 606 128 c 1
 626 15 l 1
 576 -3 522 -18 412 -18 c 0
 262 -18 174 55 174 246 c 2
 174 810 l 1
 8 810 l 9
 8 938 l 25
 174 938 l 17
 174 1188 l 1
 335 1188 l 17
EndSplineSet
EndChar

StartChar: u
Encoding: 117 117 88
Width: 1121
GlyphClass: 2
Flags: MW
AnchorPoint: "above" 555 956 basechar 0 25
AnchorPoint: "below" 555 0 basechar 0 24
AnchorPoint: "cedilla" 876 0 basechar 0 27
AnchorPoint: "ogonek" 876 0 basechar 0 27
AnchorPoint: "topright" 907 828 basechar 0 26
LayerCount: 3
Fore
SplineSet
325 431 m 2,0,1
 325 260 325 260 385 185 c 128,-1,2
 445 110 445 110 555 110 c 0,3,4
 614 110 614 110 663 141.5 c 128,-1,5
 712 173 712 173 739 217 c 128,-1,6
 766 261 766 261 781 299.5 c 128,-1,7
 796 338 796 338 796 360 c 2,8,-1
 796 938 l 1,9,-1
 957 938 l 1,10,-1
 957 0 l 1,11,-1
 796 0 l 1,12,-1
 796 172 l 1,13,14
 706 -18 706 -18 503 -18 c 0,15,16
 467 -18 467 -18 427 -8.5 c 128,-1,17
 387 1 387 1 338.5 28 c 128,-1,18
 290 55 290 55 252.5 97 c 128,-1,19
 215 139 215 139 189.5 211 c 128,-1,20
 164 283 164 283 164 375 c 2,21,-1
 164 938 l 1,22,-1
 325 938 l 1,23,-1
 325 431 l 2,0,1
555 0 m 25,24,-1
555 956 m 25,25,-1
907 828 m 25,26,-1
876 0 m 25,27,-1
EndSplineSet
Layer: 2
SplineSet
325 431 m 2
 325 191 418 110 555 110 c 0
 723 110 796 309.99 796 360 c 10
 796 938 l 17
 957 938 l 25
 957 0 l 25
 796 0 l 25
 796 172 l 17
 762 100 686 -18 503 -18 c 0
 398 -18 164 53 164 375 c 10
 164 938 l 25
 325 938 l 25
 325 431 l 2
EndSplineSet
EndChar

StartChar: v
Encoding: 118 118 89
Width: 984
GlyphClass: 2
Flags: MW
AnchorPoint: "above" 492 956 basechar 0 8
AnchorPoint: "below" 492 0 basechar 0 7
AnchorPoint: "cedilla" 492 0 basechar 0 7
AnchorPoint: "ogonek" 492 0 basechar 0 7
AnchorPoint: "topright" 846 828 basechar 0 9
LayerCount: 3
Fore
SplineSet
801 938 m 1,0,-1
 963 938 l 1,1,-1
 546 0 l 1,2,-1
 440 0 l 1,3,-1
 21 938 l 1,4,-1
 194 938 l 1,5,-1
 498 266 l 1,6,-1
 801 938 l 1,0,-1
492 0 m 25,7,-1
492 956 m 25,8,-1
846 828 m 25,9,-1
EndSplineSet
Layer: 2
SplineSet
801 938 m 25
 963 938 l 17
 546 0 l 9
 440 0 l 25
 21 938 l 25
 194 938 l 25
 498 266 l 25
 801 938 l 25
EndSplineSet
EndChar

StartChar: w
Encoding: 119 119 90
Width: 1512
GlyphClass: 2
Flags: MW
AnchorPoint: "topright" 1362 828 basechar 0 15
AnchorPoint: "ogonek" 1068 0 basechar 0 16
AnchorPoint: "cedilla" 1068 0 basechar 0 16
AnchorPoint: "below" 756 0 basechar 0 13
AnchorPoint: "above" 756 956 basechar 0 14
LayerCount: 3
Fore
SplineSet
1329 938 m 1,0,-1
 1491 938 l 1,1,-1
 1124 0 l 1,2,-1
 1020 0 l 1,3,-1
 756 671 l 1,4,-1
 494 0 l 1,5,-1
 390 0 l 1,6,-1
 21 938 l 1,7,-1
 194 938 l 1,8,-1
 447 266 l 1,9,-1
 699 938 l 1,10,-1
 824 938 l 1,11,-1
 1077 266 l 1,12,-1
 1329 938 l 1,0,-1
756 0 m 25,13,-1
756 956 m 25,14,-1
1362 828 m 25,15,-1
1068 0 m 25,16,-1
EndSplineSet
Layer: 2
SplineSet
1329 938 m 25
 1491 938 l 17
 1124 0 l 9
 1020 0 l 17
 698 819 l 1
 699 938 l 9
 824 938 l 25
 1077 266 l 25
 1329 938 l 25
699 938 m 25
 792 879 l 17
 799 780 l 1
 494 0 l 9
 390 0 l 25
 21 938 l 25
 194 938 l 25
 447 266 l 25
 699 938 l 25
EndSplineSet
EndChar

StartChar: x
Encoding: 120 120 91
Width: 945
GlyphClass: 2
Flags: MW
AnchorPoint: "topright" 738 828 basechar 0 14
AnchorPoint: "ogonek" 790 0 basechar 0 15
AnchorPoint: "cedilla" 790 0 basechar 0 15
AnchorPoint: "below" 472 0 basechar 0 12
AnchorPoint: "above" 472 956 basechar 0 13
LayerCount: 3
Fore
SplineSet
61 938 m 1,0,-1
 247 938 l 1,1,-1
 482 592 l 1,2,-1
 726 935 l 1,3,-1
 898 935 l 1,4,-1
 562 474 l 1,5,-1
 883 0 l 1,6,-1
 697 0 l 1,7,-1
 463 345 l 1,8,-1
 218 0 l 1,9,-1
 46 0 l 1,10,-1
 383 463 l 1,11,-1
 61 938 l 1,0,-1
472 0 m 29,12,-1
472 956 m 29,13,-1
738 828 m 29,14,-1
790 0 m 29,15,-1
EndSplineSet
Layer: 2
SplineSet
898 935 m 9
 547 453 l 25
 449 546 l 25
 726 935 l 17
 898 935 l 9
46 0 m 9
 406 495 l 17
 504 402 l 9
 218 0 l 17
 46 0 l 9
61 938 m 1
 247 938 l 1
 883 0 l 9
 697 0 l 17
 61 938 l 1
EndSplineSet
EndChar

StartChar: y
Encoding: 121 121 92
Width: 1027
GlyphClass: 2
Flags: MW
AnchorPoint: "above" 515 956 basechar 0 25
AnchorPoint: "below" 515 -492 basechar 0 24
AnchorPoint: "cedilla" 170 -492 basechar 0 27
AnchorPoint: "ogonek" 170 -492 basechar 0 27
AnchorPoint: "topright" 880 828 basechar 0 26
LayerCount: 3
Fore
SplineSet
24 938 m 1,0,-1
 197 938 l 1,1,-1
 520 207 l 1,2,-1
 844 938 l 1,3,-1
 1006 938 l 1,4,-1
 592 18 l 2,5,6
 503 -187 503 -187 433 -299.5 c 128,-1,7
 363 -412 363 -412 303.5 -454 c 128,-1,8
 244 -496 244 -496 170 -496 c 0,9,10
 70 -496 70 -496 -1 -420 c 1,11,-1
 57 -322 l 1,12,13
 76 -338 76 -338 87.5 -345.5 c 128,-1,14
 99 -353 99 -353 118 -360 c 128,-1,15
 137 -367 137 -367 157 -367 c 0,16,17
 181 -367 181 -367 205 -354 c 128,-1,18
 229 -341 229 -341 253 -313.5 c 128,-1,19
 277 -286 277 -286 298 -255.5 c 128,-1,20
 319 -225 319 -225 343.5 -177.5 c 128,-1,21
 368 -130 368 -130 387 -89 c 128,-1,22
 406 -48 406 -48 433 11 c 1,23,-1
 24 938 l 1,0,-1
515 -492 m 25,24,-1
515 956 m 25,25,-1
880 828 m 25,26,-1
170 -492 m 25,27,-1
EndSplineSet
Layer: 2
SplineSet
-1 -420 m 13
 57 -322 l 5
 88 -347 114 -367 157 -367 c 4
 273 -367 367.626 -135.463 477 111 c 14
 844 938 l 21
 1006 938 l 13
 592 18 l 22
 413 -395 311 -496 170 -496 c 4
 78 -496 28 -451 -1 -420 c 13
24 938 m 5
 197 938 l 5
 534 174 l 5
 518 75 l 13
 438 0 l 21
 24 938 l 5
EndSplineSet
EndChar

StartChar: z
Encoding: 122 122 93
Width: 972
GlyphClass: 2
Flags: MW
AnchorPoint: "above" 508 956 basechar 0 9
AnchorPoint: "below" 508 0 basechar 0 8
AnchorPoint: "cedilla" 820 0 basechar 0 11
AnchorPoint: "ogonek" 820 0 basechar 0 11
AnchorPoint: "topright" 738 828 basechar 0 10
LayerCount: 3
Fore
SplineSet
111 938 m 1,0,-1
 889 938 l 1,1,-1
 340 128 l 1,2,-1
 905 128 l 1,3,-1
 905 0 l 1,4,-1
 67 0 l 1,5,-1
 616 810 l 1,6,-1
 111 810 l 1,7,-1
 111 938 l 1,0,-1
508 0 m 25,8,-1
508 956 m 25,9,-1
738 828 m 25,10,-1
820 0 m 25,11,-1
EndSplineSet
Layer: 2
SplineSet
206 128 m 25
 905 128 l 25
 905 0 l 17
 67 0 l 9
 206 128 l 25
750 810 m 25
 111 810 l 25
 111 938 l 17
 889 938 l 9
 750 810 l 25
889 938 m 1
 253 0 l 9
 67 0 l 17
 703 938 l 1
 889 938 l 1
EndSplineSet
EndChar

StartChar: braceleft
Encoding: 123 123 94
Width: 667
GlyphClass: 2
Flags: MW
LayerCount: 3
Fore
SplineSet
214 492 m 1,0,1
 281 470 281 470 320.5 437 c 128,-1,2
 360 404 360 404 383.5 339.5 c 128,-1,3
 407 275 407 275 407 174 c 0,4,5
 407 114 407 114 395 -12 c 128,-1,6
 383 -138 383 -138 383 -156 c 0,7,8
 383 -194 383 -194 387.5 -223.5 c 128,-1,9
 392 -253 392 -253 406.5 -293 c 128,-1,10
 421 -333 421 -333 456.5 -370.5 c 128,-1,11
 492 -408 492 -408 546 -441 c 1,12,-1
 520 -522 l 1,13,14
 222 -441 222 -441 222 -152 c 0,15,16
 222 -76 222 -76 234 31.5 c 128,-1,17
 246 139 246 139 246 174 c 0,18,19
 246 246 246 246 226 302 c 128,-1,20
 206 358 206 358 175.5 388 c 128,-1,21
 145 418 145 418 113.5 432.5 c 128,-1,22
 82 447 82 447 53 447 c 1,23,-1
 53 537 l 1,24,25
 82 537 82 537 113.5 551.5 c 128,-1,26
 145 566 145 566 175.5 596 c 128,-1,27
 206 626 206 626 226 682 c 128,-1,28
 246 738 246 738 246 810 c 0,29,30
 246 845 246 845 234 952.5 c 128,-1,31
 222 1060 222 1060 222 1136 c 0,32,33
 222 1425 222 1425 520 1506 c 1,34,-1
 546 1425 l 1,35,36
 492 1392 492 1392 456.5 1354.5 c 128,-1,37
 421 1317 421 1317 406.5 1277 c 128,-1,38
 392 1237 392 1237 387.5 1207.5 c 128,-1,39
 383 1178 383 1178 383 1140 c 0,40,41
 383 1122 383 1122 395 996 c 128,-1,42
 407 870 407 870 407 810 c 0,43,44
 407 709 407 709 383.5 644.5 c 128,-1,45
 360 580 360 580 320.5 547 c 128,-1,46
 281 514 281 514 214 492 c 1,0,1
EndSplineSet
Layer: 2
SplineSet
214 492 m 5
 339 534 407 603 407 810 c 4
 407 916 383 1090 383 1140 c 4
 383 1222 393 1332 546 1425 c 13
 520 1506 l 21
 372 1466 222 1372 222 1136 c 4
 222 997 246 894 246 810 c 4
 246 606 124 537 53 537 c 5
 53 447 l 5
 124 447 246 378 246 174 c 4
 246 90 222 -13 222 -152 c 4
 222 -388 372 -482 520 -522 c 13
 546 -441 l 21
 393 -348 383 -238 383 -156 c 4
 383 -106 407 68 407 174 c 4
 407 381 339 450 214 492 c 5
EndSplineSet
EndChar

StartChar: bar
Encoding: 124 124 95
Width: 310
GlyphClass: 2
Flags: MW
LayerCount: 3
Fore
SplineSet
210 1477 m 1,0,-1
 210 -488 l 1,1,-1
 100 -488 l 1,2,-1
 100 1477 l 1,3,-1
 210 1477 l 1,0,-1
EndSplineSet
Layer: 2
SplineSet
210 1475 m 5
 210 -490 l 5
 100 -490 l 5
 100 1475 l 5
 210 1475 l 5
EndSplineSet
EndChar

StartChar: braceright
Encoding: 125 125 96
Width: 667
GlyphClass: 2
Flags: MW
LayerCount: 3
Fore
SplineSet
453 492 m 1,0,1
 386 514 386 514 346.5 547 c 128,-1,2
 307 580 307 580 283.5 644.5 c 128,-1,3
 260 709 260 709 260 810 c 0,4,5
 260 870 260 870 272 996 c 128,-1,6
 284 1122 284 1122 284 1140 c 0,7,8
 284 1178 284 1178 279.5 1207.5 c 128,-1,9
 275 1237 275 1237 260.5 1277 c 128,-1,10
 246 1317 246 1317 210.5 1354.5 c 128,-1,11
 175 1392 175 1392 121 1425 c 1,12,-1
 147 1506 l 1,13,14
 445 1425 445 1425 445 1136 c 0,15,16
 445 1060 445 1060 433 952.5 c 128,-1,17
 421 845 421 845 421 810 c 0,18,19
 421 738 421 738 441 682 c 128,-1,20
 461 626 461 626 491.5 596 c 128,-1,21
 522 566 522 566 553.5 551.5 c 128,-1,22
 585 537 585 537 614 537 c 1,23,-1
 614 447 l 1,24,25
 585 447 585 447 553.5 432.5 c 128,-1,26
 522 418 522 418 491.5 388 c 128,-1,27
 461 358 461 358 441 302 c 128,-1,28
 421 246 421 246 421 174 c 0,29,30
 421 139 421 139 433 31.5 c 128,-1,31
 445 -76 445 -76 445 -152 c 0,32,33
 445 -441 445 -441 147 -522 c 1,34,-1
 121 -441 l 1,35,36
 175 -408 175 -408 210.5 -370.5 c 128,-1,37
 246 -333 246 -333 260.5 -293 c 128,-1,38
 275 -253 275 -253 279.5 -223.5 c 128,-1,39
 284 -194 284 -194 284 -156 c 0,40,41
 284 -138 284 -138 272 -12 c 128,-1,42
 260 114 260 114 260 174 c 0,43,44
 260 275 260 275 283.5 339.5 c 128,-1,45
 307 404 307 404 346.5 437 c 128,-1,46
 386 470 386 470 453 492 c 1,0,1
EndSplineSet
Layer: 2
SplineSet
385 492 m 5
 260 450 192 381 192 174 c 4
 192 68 216 -106 216 -156 c 4
 216 -238 206 -348 53 -441 c 13
 79 -522 l 21
 227 -482 377 -388 377 -152 c 4
 377 -13 353 90 353 174 c 4
 353 378 475 447 546 447 c 5
 546 537 l 5
 475 537 353 606 353 810 c 4
 353 894 377 997 377 1136 c 4
 377 1372 227 1466 79 1506 c 13
 53 1425 l 21
 206 1332 216 1222 216 1140 c 4
 216 1090 192 916 192 810 c 4
 192 603 260 534 385 492 c 5
EndSplineSet
EndChar

StartChar: asciitilde
Encoding: 126 126 97
Width: 1144
GlyphClass: 2
Flags: MW
LayerCount: 3
Fore
SplineSet
167 423 m 1,0,-1
 59 489 l 1,1,2
 205 695 205 695 375 695 c 0,3,4
 437 695 437 695 512.5 669 c 128,-1,5
 588 643 588 643 660 617 c 128,-1,6
 732 591 732 591 785 591 c 0,7,8
 893 591 893 591 978 699 c 1,9,-1
 1086 633 l 1,10,11
 940 427 940 427 770 427 c 0,12,13
 708 427 708 427 632.5 453 c 128,-1,14
 557 479 557 479 485 505 c 128,-1,15
 413 531 413 531 360 531 c 0,16,17
 252 531 252 531 167 423 c 1,0,-1
EndSplineSet
Layer: 2
SplineSet
167 423 m 9
 59 489 l 17
 172 648 276 695 375 695 c 0
 522 695 656 591 785 591 c 0
 850 591 914 618 978 699 c 1
 1086 633 l 17
 973 474 869 427 770 427 c 0
 623 427 489 531 360 531 c 0
 295 531 231 504 167 423 c 9
EndSplineSet
EndChar

StartChar: dotlessi
Encoding: 305 305 98
Width: 547
GlyphClass: 2
Flags: MW
AnchorPoint: "topright" 302 828 basechar 0 7
AnchorPoint: "ogonek" 302 0 basechar 0 8
AnchorPoint: "cedilla" 302 0 basechar 0 8
AnchorPoint: "below" 302 0 basechar 0 8
AnchorPoint: "above" 302 956 basechar 0 6
LayerCount: 3
Fore
SplineSet
383 938 m 1,0,-1
 383 0 l 1,1,-1
 222 0 l 1,2,-1
 222 810 l 1,3,-1
 56 810 l 1,4,-1
 56 938 l 1,5,-1
 383 938 l 1,0,-1
302 956 m 25,6,-1
302 828 m 25,7,-1
302 0 m 25,8,-1
EndSplineSet
Layer: 2
SplineSet
383 938 m 9
 383 0 l 17
 222 0 l 9
 222 810 l 25
 56 810 l 25
 56 938 l 17
 383 938 l 9
EndSplineSet
EndChar

StartChar: uni0237
Encoding: 567 567 99
Width: 547
GlyphClass: 2
Flags: MW
AnchorPoint: "above" 302 956 basechar 0 19
AnchorPoint: "below" 222 -492 basechar 0 21
AnchorPoint: "cedilla" 222 -492 basechar 0 21
AnchorPoint: "ogonek" 222 -492 basechar 0 21
AnchorPoint: "topright" 302 828 basechar 0 20
LayerCount: 3
Fore
SplineSet
383 938 m 1,0,-1
 383 111 l 2,1,2
 383 48 383 48 381 5.5 c 128,-1,3
 379 -37 379 -37 370.5 -94.5 c 128,-1,4
 362 -152 362 -152 343 -204 c 128,-1,5
 324 -256 324 -256 293 -304 c 0,6,7
 226 -409 226 -409 100 -492 c 1,8,-1
 10 -420 l 1,9,10
 48 -383 48 -383 68.5 -361 c 128,-1,11
 89 -339 89 -339 115.5 -303 c 128,-1,12
 142 -267 142 -267 160 -230 c 0,13,14
 222 -103 222 -103 222 111 c 2,15,-1
 222 810 l 1,16,-1
 56 810 l 1,17,-1
 56 938 l 1,18,-1
 383 938 l 1,0,-1
302 956 m 25,19,-1
302 828 m 25,20,-1
222 -492 m 25,21,-1
EndSplineSet
Layer: 2
SplineSet
383 938 m 25
 383 111 l 18
 383 -25 379 -169 293 -304 c 0
 251 -370 190 -433 100 -492 c 1
 10 -420 l 1
 69 -362 122 -309 160 -230 c 0
 198 -152 222 -48 222 111 c 10
 222 810 l 25
 56 810 l 25
 56 938 l 25
 383 938 l 25
EndSplineSet
EndChar

StartChar: uni0251
Encoding: 593 593 100
Width: 1016
GlyphClass: 2
Flags: MW
AnchorPoint: "topright" 816 828 basechar 0 47
AnchorPoint: "ogonek" 848 0 basechar 0 45
AnchorPoint: "cedilla" 848 0 basechar 0 45
AnchorPoint: "below" 555 0 basechar 0 46
AnchorPoint: "above" 555 956 basechar 0 48
LayerCount: 3
Fore
SplineSet
735 156 m 1,0,1
 717 129 717 129 712 122 c 128,-1,2
 707 115 707 115 690 91.5 c 128,-1,3
 673 68 673 68 664 60.5 c 128,-1,4
 655 53 655 53 636.5 36 c 128,-1,5
 618 19 618 19 601.5 12.5 c 128,-1,6
 585 6 585 6 562 -3 c 128,-1,7
 539 -12 539 -12 512 -15 c 128,-1,8
 485 -18 485 -18 454 -18 c 0,9,10
 376 -18 376 -18 307 9.5 c 128,-1,11
 238 37 238 37 182 92 c 128,-1,12
 126 147 126 147 93.5 240.5 c 128,-1,13
 61 334 61 334 61 456 c 0,14,15
 61 551 61 551 89.5 633.5 c 128,-1,16
 118 716 118 716 165.5 774 c 128,-1,17
 213 832 213 832 274.5 874 c 128,-1,18
 336 916 336 916 402 936 c 128,-1,19
 468 956 468 956 534 956 c 0,20,21
 737 956 737 956 896 858 c 1,22,-1
 896 209 l 2,23,24
 896 126 896 126 903 87.5 c 128,-1,25
 910 49 910 49 929 0 c 1,26,-1
 768 0 l 1,27,28
 749 27 749 27 742 56.5 c 128,-1,29
 735 86 735 86 735 156 c 1,0,1
464 110 m 0,30,31
 628 110 628 110 735 290 c 1,32,-1
 735 790 l 1,33,34
 677 827 677 827 570 827 c 0,35,36
 484 827 484 827 416.5 797 c 128,-1,37
 349 767 349 767 307 715 c 128,-1,38
 265 663 265 663 243.5 595 c 128,-1,39
 222 527 222 527 222 448 c 0,40,41
 222 357 222 357 243.5 288.5 c 128,-1,42
 265 220 265 220 301 182.5 c 128,-1,43
 337 145 337 145 377.5 127.5 c 128,-1,44
 418 110 418 110 464 110 c 0,30,31
848 0 m 29,45,-1
555 0 m 29,46,-1
816 828 m 29,47,-1
555 956 m 29,48,-1
EndSplineSet
Layer: 2
SplineSet
466 110 m 0
 597 111 678 194 735 290 c 9
 735 790 l 17
 693 817 627 827 570 827 c 0
 335 827 222 655 222 448 c 0
 222 192 351 109 466 110 c 0
735 156 m 1
 675 66 624 -18 454 -18 c 0
 252 -18 61 120 61 456 c 0
 61 783 318 956 534 956 c 0
 672 956 792 922 896 858 c 9
 896 209 l 18
 896 88 907 57 929 0 c 1
 768 0 l 1
 744 34 735 58 735 156 c 1
EndSplineSet
EndChar

StartChar: uni0261
Encoding: 609 609 102
Width: 1060
GlyphClass: 2
Flags: MW
LayerCount: 3
Fore
SplineSet
454 -18 m 0,0,1
 376 -18 376 -18 307 9.5 c 128,-1,2
 238 37 238 37 182 92 c 128,-1,3
 126 147 126 147 93.5 240.5 c 128,-1,4
 61 334 61 334 61 456 c 0,5,6
 61 551 61 551 89.5 633.5 c 128,-1,7
 118 716 118 716 165.5 774 c 128,-1,8
 213 832 213 832 274.5 874 c 128,-1,9
 336 916 336 916 402 936 c 128,-1,10
 468 956 468 956 534 956 c 0,11,12
 737 956 737 956 896 858 c 1,13,-1
 896 28 l 2,14,15
 896 -248 896 -248 797.5 -370 c 128,-1,16
 699 -492 699 -492 472 -492 c 0,17,18
 363 -492 363 -492 271 -462.5 c 128,-1,19
 179 -433 179 -433 120 -393 c 1,20,-1
 176 -281 l 1,21,22
 224 -315 224 -315 311 -339.5 c 128,-1,23
 398 -364 398 -364 471 -364 c 0,24,25
 575 -364 575 -364 631 -325 c 128,-1,26
 687 -286 687 -286 711 -194.5 c 128,-1,27
 735 -103 735 -103 735 68 c 2,28,-1
 735 110 l 1,29,30
 670 37 670 37 603 9.5 c 128,-1,31
 536 -18 536 -18 454 -18 c 0,0,1
463.951 109.991 m 0,32,33
 628.402 109.991 628.402 109.991 735 290 c 1,34,-1
 735 790 l 1,35,36
 677 827 677 827 570 827 c 0,37,38
 484 827 484 827 416.5 797 c 128,-1,39
 349 767 349 767 307 715 c 128,-1,40
 265 663 265 663 243.5 595 c 128,-1,41
 222 527 222 527 222 448 c 0,42,43
 222 356.737 222 356.737 243.253 288.521 c 128,-1,44
 264.506 220.306 264.506 220.306 300.5 182.871 c 128,-1,45
 336.493 145.435 336.493 145.435 377.398 127.713 c 128,-1,46
 418.302 109.991 418.302 109.991 463.951 109.991 c 0,32,33
EndSplineSet
Layer: 2
SplineSet
454 -18 m 0
 252 -18 61 120 61 456 c 0
 61 783 318 956 534 956 c 0
 672 956 792 922 896 858 c 1
 896 28 l 2
 896 -339 776 -492 472 -492 c 0
 313.177 -492 186 -438 120 -393 c 1
 176 -281 l 1
 240 -327 373.87 -364 471 -364 c 0
 675 -364 735 -266.476 735 68 c 2
 735 110 l 1
 642 6 554 -18 454 -18 c 0
  Spiro
    454 -18 o
    262.508 30.1236 o
    117.893 183.989 o
    61 456 o
    135.491 730.741 o
    315.581 899.15 o
    534 956 o
    665.948 944.837 o
    786.707 911.808 o
    896 858 v
    896 28 ]
    853.717 -269.695 o
    716.849 -438.849 o
    472 -492 o
    324.954 -476.362 o
    205.195 -438.623 o
    120 -393 v
    176 -281 v
    259.243 -322.926 o
    365.682 -352.725 o
    471 -364 o
    629.994 -326.408 o
    711.938 -192.464 o
    735 68 [
    735 110 v
    643.129 30.6495 o
    550.536 -7.94813 o
    0 0 z
  EndSpiro
466 110 m 0
 597 111 678 194 735 290 c 9
 735 790 l 17
 693 817 627 827 570 827 c 0
 335 827 222 655 222 448 c 0
 222 193.519 349.474 109.991 463.951 109.991 c 0
 464.635 109.991 465.318 109.994 466 110 c 0
  Spiro
    466 110 o
    581.196 135.73 o
    669.113 200.969 o
    735 290 v
    735 790 v
    686.277 811.576 o
    628.718 823.415 o
    570 827 o
    375.488 774.84 o
    259.924 638.091 o
    222 448 o
    259.219 247.416 o
    350.452 141.006 o
    463.951 109.991 o
    464.634 109.992 o
    465.318 109.995 o
    0 0 z
  EndSpiro
EndSplineSet
EndChar

StartChar: uni0307
Encoding: 775 775 103
Width: 0
GlyphClass: 2
Flags: MW
AnchorPoint: "above" 0 956 mark 0 13
AnchorPoint: "mark-above" 0 1475 basemark 0 12
AnchorPoint: "mark-above" 0 1120 mark 0 14
LayerCount: 3
Fore
SplineSet
-118 1309 m 256,0,1
 -118 1359 -118 1359 -83.5 1394.5 c 128,-1,2
 -49 1430 -49 1430 0 1430 c 256,3,4
 49 1430 49 1430 83.5 1394.5 c 128,-1,5
 118 1359 118 1359 118 1309 c 256,6,7
 118 1259 118 1259 83.5 1223.5 c 128,-1,8
 49 1188 49 1188 0 1188 c 256,9,10
 -49 1188 -49 1188 -83.5 1223.5 c 128,-1,11
 -118 1259 -118 1259 -118 1309 c 256,0,1
0 1475 m 25,12,-1
0 956 m 25,13,-1
0 1120 m 25,14,-1
EndSplineSet
Layer: 2
SplineSet
-118 1309 m 0
 -118 1376 -65 1430 0 1430 c 0
 65 1430 118 1376 118 1309 c 0
 118 1242 65 1188 0 1188 c 0
 -65 1188 -118 1242 -118 1309 c 0
EndSplineSet
EndChar

StartChar: uni0308
Encoding: 776 776 104
Width: 0
Flags: MW
AnchorPoint: "mark-above" 0 1120 mark 0 26
AnchorPoint: "mark-above" 0 1475 basemark 0 25
AnchorPoint: "above" 0 956 mark 0 24
LayerCount: 3
Fore
SplineSet
-354 1309 m 256,0,1
 -354 1359 -354 1359 -319.5 1394.5 c 128,-1,2
 -285 1430 -285 1430 -236 1430 c 256,3,4
 -187 1430 -187 1430 -152.5 1394.5 c 128,-1,5
 -118 1359 -118 1359 -118 1309 c 256,6,7
 -118 1259 -118 1259 -152.5 1223.5 c 128,-1,8
 -187 1188 -187 1188 -236 1188 c 256,9,10
 -285 1188 -285 1188 -319.5 1223.5 c 128,-1,11
 -354 1259 -354 1259 -354 1309 c 256,0,1
118 1309 m 256,12,13
 118 1359 118 1359 152.5 1394.5 c 128,-1,14
 187 1430 187 1430 236 1430 c 256,15,16
 285 1430 285 1430 319.5 1394.5 c 128,-1,17
 354 1359 354 1359 354 1309 c 256,18,19
 354 1259 354 1259 319.5 1223.5 c 128,-1,20
 285 1188 285 1188 236 1188 c 256,21,22
 187 1188 187 1188 152.5 1223.5 c 128,-1,23
 118 1259 118 1259 118 1309 c 256,12,13
0 956 m 25,24,-1
0 1475 m 25,25,-1
0 1120 m 25,26,-1
EndSplineSet
EndChar

StartChar: gravecomb
Encoding: 768 768 106
Width: 0
Flags: MW
AnchorPoint: "mark-above" 0 956 mark 0 5
AnchorPoint: "mark-above" 0 1475 basemark 0 4
AnchorPoint: "above" 0 956 mark 0 5
LayerCount: 3
Fore
SplineSet
-249 1475 m 25,0,-1
 -61 1475 l 1,1,-1
 82 1144 l 1,2,-1
 -10 1100 l 1,3,-1
 -249 1475 l 25,0,-1
0 1475 m 25,4,-1
0 956 m 25,5,-1
EndSplineSet
Layer: 2
SplineSet
-249 1475 m 25
 -61 1475 l 25
 82 1144 l 25
 -10 1100 l 25
 -249 1475 l 25
EndSplineSet
EndChar

StartChar: acutecomb
Encoding: 769 769 107
Width: 0
Flags: MW
AnchorPoint: "mark-above" 0 956 mark 0 5
AnchorPoint: "mark-above" 0 1475 basemark 0 4
AnchorPoint: "above" 0 956 mark 0 5
LayerCount: 3
Fore
SplineSet
249 1475 m 25,0,-1
 10 1100 l 1,1,-1
 -82 1144 l 1,2,-1
 61 1475 l 1,3,-1
 249 1475 l 25,0,-1
0 1475 m 25,4,-1
0 956 m 25,5,-1
EndSplineSet
Layer: 2
SplineSet
249 1475 m 29
 10 1100 l 29
 -82 1144 l 29
 61 1475 l 29
 249 1475 l 29
EndSplineSet
EndChar

StartChar: uni0302
Encoding: 770 770 108
Width: 0
Flags: MW
AnchorPoint: "above" 0 956 mark 0 8
AnchorPoint: "mark-above" 0 1475 basemark 0 7
AnchorPoint: "mark-above" 0 956 mark 0 8
LayerCount: 3
Fore
SplineSet
9.10383e-15 1348.98 m 1,0,-1
 -234 1100 l 1,1,-1
 -309 1149 l 1,2,-1
 -94 1449 l 1,3,-1
 94 1449 l 1,4,-1
 309 1149 l 1,5,-1
 234 1100 l 1,6,-1
 9.10383e-15 1348.98 l 1,0,-1
0 1475 m 25,7,-1
0 956 m 25,8,-1
EndSplineSet
Layer: 2
SplineSet
9.10383e-15 1348.98 m 5
 -234 1100 l 5
 -309 1149 l 5
 -94 1449 l 5
 94 1449 l 5
 309 1149 l 5
 234 1100 l 5
 9.10383e-15 1348.98 l 5
EndSplineSet
EndChar

StartChar: tildecomb
Encoding: 771 771 109
Width: 0
Flags: MW
AnchorPoint: "mark-above" 0 1035 mark 0 26
AnchorPoint: "mark-above" 0 1410 basemark 0 24
AnchorPoint: "above" 0 956 mark 0 25
LayerCount: 3
Fore
SplineSet
-272 1107.3 m 9,0,-1
 -342 1166.7 l 1,1,2
 -316.036 1217.6 -316.036 1217.6 -284.846 1254.7 c 128,-1,3
 -253.656 1291.81 -253.656 1291.81 -223.654 1310.72 c 128,-1,4
 -193.652 1329.64 -193.652 1329.64 -168.221 1338.07 c 128,-1,5
 -142.79 1346.5 -142.79 1346.5 -120 1346.5 c 0,6,7
 -78 1346.5 -78 1346.5 -2.5 1302 c 128,-1,8
 73 1257.5 73 1257.5 108 1257.5 c 0,9,10
 140.796 1257.5 140.796 1257.5 181.966 1281.83 c 128,-1,11
 223.135 1306.15 223.135 1306.15 251 1355.7 c 1,12,-1
 321 1296.3 l 1,13,14
 295.036 1245.4 295.036 1245.4 263.846 1208.3 c 128,-1,15
 232.656 1171.19 232.656 1171.19 202.654 1152.28 c 128,-1,16
 172.652 1133.36 172.652 1133.36 147.221 1124.93 c 128,-1,17
 121.79 1116.5 121.79 1116.5 99 1116.5 c 0,18,19
 57 1116.5 57 1116.5 -18.5 1161 c 128,-1,20
 -94 1205.5 -94 1205.5 -128 1205.5 c 0,21,22
 -161.495 1205.5 -161.495 1205.5 -202.792 1181.21 c 128,-1,23
 -244.089 1156.93 -244.089 1156.93 -272 1107.3 c 9,0,-1
0 1410 m 25,24,-1
0 956 m 25,25,-1
0 1035 m 25,26,-1
EndSplineSet
Layer: 2
SplineSet
-272 1048.8 m 13x60
 -342 1108.2 l 21
 -269 1251.3 -175 1288 -120 1288 c 4x60
 -39 1288 36 1199 108 1199 c 4
 144 1199 210 1224.3 251 1297.2 c 5
 321 1237.8 l 21
 248 1094.7 154 1058 99 1058 c 4xa0
 18 1058 -57 1147 -128 1147 c 4
 -165 1147 -231 1121.7 -272 1048.8 c 13x60
EndSplineSet
EndChar

StartChar: uni0254
Encoding: 596 596 110
Width: 921
Flags: MW
AnchorPoint: "cedilla" 429 0 basechar 0 30
AnchorPoint: "below" 429 0 basechar 0 30
AnchorPoint: "above" 429 956 basechar 0 32
AnchorPoint: "topright" 707 828 basechar 0 31
LayerCount: 3
Fore
SplineSet
860 469 m 0,0,1
 860 248 860 248 739.5 115 c 128,-1,2
 619 -18 619 -18 413 -18 c 0,3,4
 350.884 -18 350.884 -18 297.435 -2.71875 c 128,-1,5
 243.985 12.5625 243.985 12.5625 207.157 36.1143 c 128,-1,6
 170.33 59.667 170.33 59.667 140.123 92.585 c 128,-1,7
 109.915 125.504 109.915 125.504 92.085 156.019 c 128,-1,8
 74.2549 186.533 74.2549 186.533 61 220.5 c 1,9,-1
 173 282.5 l 1,10,11
 187.077 246.687 187.077 246.687 205.158 218.648 c 128,-1,12
 223.24 190.61 223.24 190.61 250.904 164.875 c 128,-1,13
 278.569 139.14 278.569 139.14 319.283 125.07 c 128,-1,14
 359.998 111 359.998 111 411 111 c 0,15,16
 554 111 554 111 626.5 213.5 c 128,-1,17
 699 316 699 316 699 469 c 0,18,19
 699 617 699 617 611.5 722 c 128,-1,20
 524 827 524 827 378 827 c 0,21,22
 314 828 314 828 260 809.5 c 128,-1,23
 206 791 206 791 147 748 c 1,24,-1
 85 856 l 1,25,26
 231 956 231 956 392 956 c 0,27,28
 607 956 607 956 733.5 820.5 c 128,-1,29
 860 685 860 685 860 469 c 0,0,1
429 0 m 25,30,-1
707 828 m 25,31,-1
429 956 m 29,32,-1
EndSplineSet
Layer: 2
SplineSet
860 469 m 0xa0
 860 176 690 -18 413 -18 c 0
 197 -18 101 118 61 220.5 c 1
 173 282.5 l 1
 207 196 269 111 411 111 c 0
 614 111 699 281 699 469 c 0
 699 657 581 827 378 827 c 0
 294 828 226 806 147 748 c 1
 85 856 l 1
 172.5 916 267 956 392 956 c 0
 683 956 860 752 860 469 c 0xa0
EndSplineSet
EndChar

StartChar: uni025B
Encoding: 603 603 111
Width: 822
Flags: MW
AnchorPoint: "above" 448.5 956 basechar 0
AnchorPoint: "below" 448.5 0 basechar 0
AnchorPoint: "cedilla" 478.5 0 basechar 0
AnchorPoint: "topright" 668.5 828 basechar 0
LayerCount: 3
Fore
SplineSet
741 884 m 9,0,-1
 680 768 l 1,1,2
 642 790 642 790 582 809 c 128,-1,3
 522 828 522 828 466 828 c 0,4,5
 424 828 424 828 382 818.5 c 128,-1,6
 340 809 340 809 303 778.5 c 128,-1,7
 266 748 266 748 266 702 c 0,8,9
 266 637 266 637 327 601 c 128,-1,10
 388 565 388 565 502 565 c 2,11,-1
 588 565 l 1,12,-1
 572 445 l 1,13,-1
 472 445 l 2,14,15
 351 445 351 445 286.5 403 c 128,-1,16
 222 361 222 361 222 286 c 0,17,18
 222 226 222 226 259.5 184.5 c 128,-1,19
 297 143 297 143 344 127 c 128,-1,20
 391 111 391 111 440 111 c 0,21,22
 504 111 504 111 560 130 c 128,-1,23
 616 149 616 149 640.5 166.5 c 128,-1,24
 665 184 665 184 698 213 c 1,25,-1
 762 111 l 1,26,27
 716 57 716 57 632.5 19.5 c 128,-1,28
 549 -18 549 -18 434 -18 c 0,29,30
 338 -18 338 -18 254 14.5 c 128,-1,31
 170 47 170 47 115.5 114.5 c 128,-1,32
 61 182 61 182 61 272 c 0,33,34
 61 363 61 363 107.5 421 c 128,-1,35
 154 479 154 479 222 505 c 1,36,37
 100 557 100 557 100 702 c 0,38,39
 100 777 100 777 152 836.5 c 128,-1,40
 204 896 204 896 283 926 c 128,-1,41
 362 956 362 956 450 956 c 0,42,43
 554 956 554 956 631 933.5 c 128,-1,44
 708 911 708 911 741 884 c 9,0,-1
EndSplineSet
Layer: 2
SplineSet
741 884 m 9
 680 768 l 17
 639 792 549 828 466 828 c 0
 396 828 266 802 266 702 c 0
 266 616 348 565 502 565 c 10
 588 565 l 25
 572 445 l 17
 472 445 l 2
 308 445 222 384 222 286 c 0
 222 158 352 111 440 111 c 0
 580 111 651 172 698 213 c 9
 762 111 l 17
 710 50 602 -18 434 -18 c 0
 246 -18 61 85 61 272 c 0
 61 405 145 475 222 505 c 1
 168 528 100 582 100 702 c 0
 100 858 278 956 450 956 c 0
 605 956 706 912 741 884 c 9
EndSplineSet
EndChar

StartChar: Eng
Encoding: 330 330 112
Width: 1490
Flags: MW
AnchorPoint: "ogonek" 755 -492 basechar 0 48
AnchorPoint: "above" 755 1409 basechar 0 46
AnchorPoint: "below" 755 -492 basechar 0 48
AnchorPoint: "cedilla" 755 -492 basechar 0 48
AnchorPoint: "topright" 1170 1053 basechar 0 47
LayerCount: 3
Fore
SplineSet
1127 684 m 18,0,1
 1127 985 1127 985 1028 1128 c 128,-1,2
 929 1271 929 1271 753 1271 c 0,3,4
 678 1271 678 1271 610.5 1247 c 128,-1,5
 543 1223 543 1223 499 1189 c 128,-1,6
 455 1155 455 1155 422 1117.5 c 128,-1,7
 389 1080 389 1080 374 1052 c 128,-1,8
 359 1024 359 1024 359 1012 c 2,9,-1
 361 0 l 1,10,-1
 180 0 l 1,11,-1
 180 1391 l 1,12,-1
 361 1391 l 1,13,-1
 361 1219 l 1,14,15
 372 1234 372 1234 390.5 1254 c 128,-1,16
 409 1274 409 1274 446.5 1302.5 c 128,-1,17
 484 1331 484 1331 528.5 1353.5 c 128,-1,18
 573 1376 573 1376 637.5 1392.5 c 128,-1,19
 702 1409 702 1409 772 1409 c 0,20,21
 822 1409 822 1409 868.5 1402.5 c 128,-1,22
 915 1396 915 1396 970.5 1376 c 128,-1,23
 1026 1356 1026 1356 1072.5 1324 c 128,-1,24
 1119 1292 1119 1292 1164 1236.5 c 128,-1,25
 1209 1181 1209 1181 1240.5 1108 c 128,-1,26
 1272 1035 1272 1035 1291 928.5 c 128,-1,27
 1310 822 1310 822 1310 693 c 2,28,-1
 1310 28 l 2,29,30
 1310 -378.621 1310 -378.621 940.33 -465.159 c 0,31,32
 825.67 -492 825.67 -492 631 -492 c 1,33,-1
 600 -354 l 1,34,35
 676 -352 676 -352 735 -347.5 c 128,-1,36
 794 -343 794 -343 844.5 -333 c 128,-1,37
 895 -323 895 -323 932 -312 c 128,-1,38
 969 -301 969 -301 999 -281 c 128,-1,39
 1029 -261 1029 -261 1049 -241 c 128,-1,40
 1069 -221 1069 -221 1084 -187.5 c 128,-1,41
 1099 -154 1099 -154 1107 -123 c 128,-1,42
 1115 -92 1115 -92 1119.5 -42.5 c 128,-1,43
 1124 7 1124 7 1125.5 52.5 c 128,-1,44
 1127 98 1127 98 1127 166 c 2,45,-1
 1127 684 l 18,0,1
755 1409 m 25,46,-1
1170 1053 m 25,47,-1
755 -492 m 25,48,-1
EndSplineSet
Layer: 2
SplineSet
1127 684 m 22
 1127 1100 977 1271 753 1271 c 4
 488 1271 361 1044.89 361 1012 c 14
 361 0 l 21
 180 0 l 29
 180 1391 l 21
 361 1391 l 13
 361 1219 l 21
 388 1258 526 1409 772 1409 c 4
 982 1409 1310 1317 1310 693 c 14
 1310 28 l 22
 1310 -476 890 -492 631 -492 c 5
 600 -354 l 21
 1095 -339 1127 -240 1127 166 c 14
 1127 684 l 22
EndSplineSet
EndChar

StartChar: eng
Encoding: 331 331 113
Width: 1121
Flags: MW
AnchorPoint: "above" 555 956 basechar 0 40
AnchorPoint: "below" 555 -492 basechar 0 42
AnchorPoint: "cedilla" 555 -492 basechar 0 42
AnchorPoint: "ogonek" 555 -492 basechar 0 42
AnchorPoint: "topright" 795 828 basechar 0 41
LayerCount: 3
Fore
SplineSet
796 68 m 10,0,-1
 796 507 l 2,1,2
 796 678 796 678 736 753 c 128,-1,3
 676 828 676 828 566 828 c 0,4,5
 507 828 507 828 458 796.5 c 128,-1,6
 409 765 409 765 382 721 c 128,-1,7
 355 677 355 677 340 638.5 c 128,-1,8
 325 600 325 600 325 578 c 2,9,-1
 325 0 l 1,10,-1
 164 0 l 1,11,-1
 164 938 l 1,12,-1
 325 938 l 1,13,-1
 325 766 l 1,14,15
 415 956 415 956 618 956 c 0,16,17
 654 956 654 956 694 946.5 c 128,-1,18
 734 937 734 937 782.5 910 c 128,-1,19
 831 883 831 883 868.5 841 c 128,-1,20
 906 799 906 799 931.5 727 c 128,-1,21
 957 655 957 655 957 563 c 2,22,-1
 957 28 l 2,23,24
 957 -76 957 -76 939 -159.5 c 128,-1,25
 921 -243 921 -243 893.5 -296 c 128,-1,26
 866 -349 866 -349 825.5 -388 c 128,-1,27
 785 -427 785 -427 749 -446.5 c 128,-1,28
 713 -466 713 -466 668 -477 c 128,-1,29
 623 -488 623 -488 597 -490 c 128,-1,30
 571 -492 571 -492 540 -492 c 1,31,-1
 527 -364 l 1,32,33
 566 -359 566 -359 590 -354.5 c 128,-1,34
 614 -350 614 -350 646 -337.5 c 128,-1,35
 678 -325 678 -325 697 -307.5 c 128,-1,36
 716 -290 716 -290 737 -258 c 128,-1,37
 758 -226 758 -226 769.5 -183 c 128,-1,38
 781 -140 781 -140 788.5 -76.5 c 128,-1,39
 796 -13 796 -13 796 68 c 10,0,-1
555 956 m 25,40,-1
795 828 m 25,41,-1
555 -492 m 25,42,-1
EndSplineSet
Layer: 2
SplineSet
796 68 m 10
 796 507 l 2
 796 747 703 828 566 828 c 0
 398 828 325 628.01 325 578 c 10
 325 0 l 17
 164 0 l 25
 164 938 l 25
 325 938 l 25
 325 766 l 17
 359 838 435 956 618 956 c 0
 723 956 957 885 957 563 c 10
 957 28 l 18
 957 -475.678 645 -492 540 -492 c 1
 527 -364 l 1
 678 -345 796 -318.001 796 68 c 10
EndSplineSet
EndChar

StartChar: uni0327
Encoding: 807 807 114
Width: 0
Flags: MW
AnchorPoint: "mark-below" 0 -492 basemark 0 18
AnchorPoint: "cedilla" 0 0 mark 0 19
LayerCount: 3
Fore
SplineSet
-48 36 m 9,0,-1
 45 36 l 1,1,2
 3 -36 3 -36 3 -106 c 1,3,4
 53 -119 53 -119 89 -170 c 128,-1,5
 125 -221 125 -221 125 -288 c 0,6,7
 125 -370 125 -370 82.5 -414.5 c 128,-1,8
 40 -459 40 -459 -46 -494 c 1,9,-1
 -125 -419 l 1,10,11
 -63 -393 -63 -393 -29.5 -364 c 128,-1,12
 4 -335 4 -335 4 -288 c 0,13,14
 4 -235 4 -235 -29.5 -203.5 c 128,-1,15
 -63 -172 -63 -172 -121 -172 c 1,16,17
 -121 -47 -121 -47 -48 36 c 9,0,-1
0 -492 m 25,18,-1
0 0 m 25,19,-1
EndSplineSet
Layer: 2
SplineSet
-48 36 m 9
 45 36 l 1
 17 -12 3 -59.3333 3 -106 c 1
 36.3333 -114.667 65 -136 89 -170 c 0
 113 -204 125 -243.333 125 -288 c 0
 125 -342.667 110.833 -384.833 82.5 -414.5 c 0
 54.1667 -444.167 11.3333 -470.667 -46 -494 c 1
 -125 -419 l 1
 -83.6667 -401.667 -51.8333 -383.333 -29.5 -364 c 0
 -7.16667 -344.667 4 -319.333 4 -288 c 0
 4 -252.667 -7.16667 -224.5 -29.5 -203.5 c 0
 -51.8333 -182.5 -82.3333 -172 -121 -172 c 1
 -121 -88.6667 -96.6667 -19.3333 -48 36 c 9
EndSplineSet
EndChar

StartChar: uni030C
Encoding: 780 780 115
Width: 0
Flags: MW
AnchorPoint: "above" 0 956 mark 0 8
AnchorPoint: "mark-above" 0 1475 basemark 0 7
AnchorPoint: "mark-above" 0 956 mark 0 8
LayerCount: 3
Fore
SplineSet
0 1200.02 m 1,0,-1
 234 1449 l 1,1,-1
 309 1400 l 1,2,-1
 94 1100 l 1,3,-1
 -94 1100 l 1,4,-1
 -309 1400 l 1,5,-1
 -234 1449 l 1,6,-1
 0 1200.02 l 1,0,-1
0 1475 m 25,7,-1
0 956 m 25,8,-1
EndSplineSet
Layer: 2
SplineSet
0 1200.02 m 5
 234 1449 l 5
 309 1400 l 5
 94 1100 l 5
 -94 1100 l 5
 -309 1400 l 5
 -234 1449 l 5
 0 1200.02 l 5
EndSplineSet
EndChar

StartChar: dotbelowcomb
Encoding: 803 803 116
Width: 0
Flags: MW
AnchorPoint: "mark-below" 0 -349 basemark 0 12
AnchorPoint: "mark-below" 0 0 mark 0 13
AnchorPoint: "below" 0 0 mark 0 13
LayerCount: 3
Fore
SplineSet
-118 -183 m 256,0,1
 -118 -133 -118 -133 -83.5 -97.5 c 128,-1,2
 -49 -62 -49 -62 0 -62 c 256,3,4
 49 -62 49 -62 83.5 -97.5 c 128,-1,5
 118 -133 118 -133 118 -183 c 256,6,7
 118 -233 118 -233 83.5 -268.5 c 128,-1,8
 49 -304 49 -304 0 -304 c 256,9,10
 -49 -304 -49 -304 -83.5 -268.5 c 128,-1,11
 -118 -233 -118 -233 -118 -183 c 256,0,1
0 -349 m 25,12,-1
0 0 m 25,13,-1
EndSplineSet
Layer: 2
SplineSet
-118 -371 m 0
 -118 -304 -65 -250 0 -250 c 0
 65 -250 118 -304 118 -371 c 0
 118 -438 65 -492 0 -492 c 0
 -65 -492 -118 -438 -118 -371 c 0
EndSplineSet
EndChar

StartChar: uni0253
Encoding: 595 595 118
Width: 1059
Flags: MW
AnchorPoint: "cedilla" 555 0 basechar 0 47
AnchorPoint: "below" 555 0 basechar 0 47
AnchorPoint: "above" 555 1475 basechar 0
AnchorPoint: "topright" 841 828 basechar 0 48
AnchorPoint: "ogonek" 555 0 basechar 0 47
LayerCount: 3
Fore
SplineSet
594 828 m 0,0,1
 431 827 431 827 325 648 c 1,2,-1
 325 148 l 1,3,4
 383 111 383 111 490 111 c 0,5,6
 576 111 576 111 643.5 141 c 128,-1,7
 711 171 711 171 753 223 c 128,-1,8
 795 275 795 275 816.5 343 c 128,-1,9
 838 411 838 411 838 490 c 0,10,11
 838 582 838 582 816.5 650.5 c 128,-1,12
 795 719 795 719 758.5 756 c 128,-1,13
 722 793 722 793 681 810.5 c 128,-1,14
 640 828 640 828 594 828 c 0,0,1
325 828 m 17,15,16
 390 901 390 901 457 928.5 c 128,-1,17
 524 956 524 956 606 956 c 0,18,19
 684 956 684 956 753 928.5 c 128,-1,20
 822 901 822 901 878 846 c 128,-1,21
 934 791 934 791 966.5 697.5 c 128,-1,22
 999 604 999 604 999 482 c 0,23,24
 999 387 999 387 970.5 304.5 c 128,-1,25
 942 222 942 222 894.5 164 c 128,-1,26
 847 106 847 106 785.5 64 c 128,-1,27
 724 22 724 22 658 2 c 128,-1,28
 592 -18 592 -18 526 -18 c 0,29,30
 323 -18 323 -18 164 80 c 1,31,-1
 164 1020 l 2,32,33
 164 1464 164 1464 515 1464 c 0,34,35
 574 1464 574 1464 623 1452.5 c 128,-1,36
 672 1441 672 1441 695.5 1429.5 c 128,-1,37
 719 1418 719 1418 749 1398.5 c 128,-1,38
 779 1379 779 1379 788 1374 c 1,39,-1
 744 1247 l 1,40,41
 703 1283 703 1283 641.5 1309.5 c 128,-1,42
 580 1336 580 1336 517 1336 c 0,43,44
 442 1336 442 1336 383.5 1264 c 128,-1,45
 325 1192 325 1192 325 1107 c 2,46,-1
 325 828 l 17,15,16
555 0 m 25,47,-1
841 828 m 25,48,-1
555 1475 m 25,49,-1
EndSplineSet
Layer: 2
SplineSet
594 828 m 0
 463 827 382 744 325 648 c 9
 325 148 l 17
 367 121 433 111 490 111 c 0
 725 111 838 283 838 490 c 0
 838 746 709 829 594 828 c 0
325 828 m 17
 418 932 506 956 606 956 c 0
 808 956 999 818 999 482 c 0
 999 155 742 -18 526 -18 c 0
 388 -18 268 16 164 80 c 9
 164 1020 l 18
 164 1270 248 1464 515 1464 c 0
 685 1464 738 1400 788 1374 c 9
 744 1247 l 17
 696 1289 608 1336 517 1336 c 0
 416 1336 325 1219 325 1107 c 26
 325 828 l 17
EndSplineSet
EndChar

StartChar: uni0190
Encoding: 400 400 119
Width: 1001
Flags: MW
AnchorPoint: "above" 516 1409 basechar 0 49
AnchorPoint: "below" 516 0 basechar 0 51
AnchorPoint: "cedilla" 516 0 basechar 0 51
AnchorPoint: "ogonek" 516 0 basechar 0 51
AnchorPoint: "topright" 808 1053 basechar 0 50
LayerCount: 3
Fore
SplineSet
564 122 m 0,0,1
 629 122 629 122 705.5 153.5 c 128,-1,2
 782 185 782 185 834 232 c 1,3,-1
 912 111 l 1,4,5
 755 -18 755 -18 548 -18 c 0,6,7
 436 -18 436 -18 341 18 c 128,-1,8
 246 54 246 54 182.5 115 c 128,-1,9
 119 176 119 176 84 256.5 c 128,-1,10
 49 337 49 337 49 426 c 0,11,12
 49 652 49 652 296 764 c 1,13,14
 219 792 219 792 151.5 867 c 128,-1,15
 84 942 84 942 84 1038 c 0,16,17
 84 1123 84 1123 113.5 1189.5 c 128,-1,18
 143 1256 143 1256 189 1296 c 128,-1,19
 235 1336 235 1336 298.5 1362.5 c 128,-1,20
 362 1389 362 1389 424 1399 c 128,-1,21
 486 1409 486 1409 553 1409 c 0,22,23
 651 1409 651 1409 747.5 1373 c 128,-1,24
 844 1337 844 1337 884 1304 c 1,25,-1
 806 1188 l 1,26,27
 757 1222 757 1222 687 1245.5 c 128,-1,28
 617 1269 617 1269 558 1269 c 0,29,30
 488 1269 488 1269 435 1252 c 128,-1,31
 382 1235 382 1235 353 1210 c 128,-1,32
 324 1185 324 1185 305.5 1151 c 128,-1,33
 287 1117 287 1117 281.5 1089.5 c 128,-1,34
 276 1062 276 1062 276 1034 c 0,35,36
 276 975 276 975 306.5 929 c 128,-1,37
 337 883 337 883 383 858.5 c 128,-1,38
 429 834 429 834 474.5 822 c 128,-1,39
 520 810 520 810 558 810 c 2,40,-1
 700 810 l 1,41,-1
 700 670 l 1,42,-1
 543 670 l 2,43,44
 396 670 396 670 318.5 598 c 128,-1,45
 241 526 241 526 241 420 c 0,46,47
 241 292 241 292 330 207 c 128,-1,48
 419 122 419 122 564 122 c 0,0,1
516 1409 m 8,49,-1
808 1053 m 25,50,-1
516 0 m 25,51,-1
EndSplineSet
Layer: 2
SplineSet
564 122 m 4
 652 122 766 170 834 232 c 5
 912 111 l 5
 818 34 702 -18 548 -18 c 4
 240 -18 49 189.185 49 426 c 4
 49 636 212 726 296 764 c 5
 210 795 84 897 84 1038 c 4
 84 1332 346 1409 553 1409 c 4
 699 1409 843 1338 884 1304 c 5
 806 1188 l 5
 743 1231 640 1269 558 1269 c 4
 314 1269 276 1114 276 1034 c 4
 276 866 466 810 558 810 c 6
 700 810 l 13
 700 670 l 29
 543 670 l 22
 336 670 241 552 241 420 c 4
 241 252 368 122 564 122 c 4
EndSplineSet
EndChar

StartChar: uni0186
Encoding: 390 390 120
Width: 1255
Flags: MW
AnchorPoint: "topright" 1048 1053 basechar 0 31
AnchorPoint: "ogonek" 584 0 basechar 0 32
AnchorPoint: "cedilla" 584 0 basechar 0 32
AnchorPoint: "below" 584 0 basechar 0 32
AnchorPoint: "above" 584 1409 basechar 0 30
LayerCount: 3
Fore
SplineSet
549 -18 m 0,0,1
 198 -18 198 -18 61 276 c 1,2,-1
 175.666 340 l 1,3,4
 219.24 242.164 219.24 242.164 310.343 182.082 c 128,-1,5
 401.445 122 401.445 122 543 122 c 0,6,7
 777 122 777 122 895.5 275 c 128,-1,8
 1014 428 1014 428 1014 696 c 0,9,10
 1014 807 1014 807 980.5 909.5 c 128,-1,11
 947 1012 947 1012 886.5 1092.5 c 128,-1,12
 826 1173 826 1173 732.5 1221 c 128,-1,13
 639 1269 639 1269 527 1269 c 0,14,15
 429 1271 429 1271 346 1241 c 128,-1,16
 263 1211 263 1211 177 1146 c 1,17,-1
 89 1265 l 1,18,19
 148 1308 148 1308 186 1330.5 c 128,-1,20
 224 1353 224 1353 279 1373.5 c 128,-1,21
 334 1394 334 1394 400 1401.5 c 128,-1,22
 466 1409 466 1409 562 1409 c 0,23,24
 758 1409 758 1409 905 1319 c 128,-1,25
 1052 1229 1052 1229 1129 1067.5 c 128,-1,26
 1206 906 1206 906 1206 695 c 0,27,28
 1206 374 1206 374 1029.5 178 c 128,-1,29
 853 -18 853 -18 549 -18 c 0,0,1
584 1409 m 25,30,-1
1048 1053 m 25,31,-1
584 0 m 25,32,-1
EndSplineSet
Layer: 2
SplineSet
549 -18 m 0
 258 -18 126 136 61 276 c 1
 175.666 340 l 1
 228.666 221 342 122 543 122 c 0
 864 122 1014 351 1014 696 c 0
 1014 990 840 1269 532 1269 c 0
 399.275 1271.09 290.017 1231.47 177 1146 c 1
 89 1265 l 1
 226 1365 375 1409 542 1409 c 0
 909 1409 1206 1158 1206 695 c 0
 1206 272 960 -18 549 -18 c 0
EndSplineSet
EndChar

StartChar: afii57929
Encoding: 700 700 121
Width: 450
Flags: MW
LayerCount: 3
Fore
SplineSet
205 1158 m 4,0,1
 205 1170 205 1170 189.5 1180.5 c 132,-1,3
 174 1191 174 1191 156 1199.5 c 132,-1,5
 138 1208 138 1208 122.5 1233 c 132,-1,7
 107 1258 107 1258 107 1296 c 4,8,9
 107 1338 107 1338 138.5 1373.5 c 132,-1,11
 170 1409 170 1409 225 1409 c 4,12,13
 266 1409 266 1409 293.5 1391.5 c 132,-1,15
 321 1374 321 1374 332 1346 c 132,-1,17
 343 1318 343 1318 347 1297 c 132,-1,19
 351 1276 351 1276 351 1254 c 4,20,21
 351 1176 351 1176 312 1089.5 c 132,-1,23
 273 1003 273 1003 157 891 c 5,24,-1
 75 963 l 5,25,26
 205 1087 205 1087 205 1158 c 4,0,1
EndSplineSet
Layer: 2
SplineSet
205 1158 m 4
 205 1197 107 1185 107 1296 c 4
 107 1345.5 145.5 1409 225 1409 c 4
 341 1409 351 1296 351 1254 c 4
 351 1172 329 1057 157 891 c 13
 75 963 l 21
 166 1050 205 1114 205 1158 c 4
EndSplineSet
EndChar

StartChar: afii64937
Encoding: 701 701 122
Width: 450
Flags: MW
LayerCount: 3
Fore
SplineSet
221 1158 m 0,0,1
 221 1087 221 1087 351 963 c 1,2,-1
 269 891 l 1,3,4
 153 1003 153 1003 114 1089.5 c 0,5,6
 75 1176 75 1176 75 1254 c 0,7,8
 75 1276 75 1276 79 1297 c 0,9,10
 83 1318 83 1318 94 1346 c 0,11,12
 105 1374 105 1374 132.5 1391.5 c 0,13,14
 160 1409 160 1409 201 1409 c 0,15,16
 256 1409 256 1409 287.5 1373.5 c 0,17,18
 319 1338 319 1338 319 1296 c 0,19,20
 319 1258 319 1258 303.5 1233 c 0,21,22
 288 1208 288 1208 270 1199.5 c 0,23,24
 252 1191 252 1191 236.5 1180.5 c 0,25,26
 221 1170 221 1170 221 1158 c 0,0,1
EndSplineSet
Layer: 2
SplineSet
221 1158 m 0
 221 1114 260 1050 351 963 c 9
 269 891 l 17
 97 1057 75 1172 75 1254 c 0
 75 1296 85 1409 201 1409 c 0
 280.5 1409 319 1345.5 319 1296 c 0
 319 1185 221 1197 221 1158 c 0
EndSplineSet
EndChar

StartChar: uni02BB
Encoding: 699 699 123
Width: 450
Flags: MW
LayerCount: 3
Fore
SplineSet
221 1142 m 0,0,1
 221 1130 221 1130 236.5 1119.5 c 128,-1,2
 252 1109 252 1109 270 1100.5 c 128,-1,3
 288 1092 288 1092 303.5 1067 c 128,-1,4
 319 1042 319 1042 319 1004 c 0,5,6
 319 962 319 962 287.5 926.5 c 128,-1,7
 256 891 256 891 201 891 c 0,8,9
 160 891 160 891 132.5 908.5 c 128,-1,10
 105 926 105 926 94 954 c 128,-1,11
 83 982 83 982 79 1003 c 128,-1,12
 75 1024 75 1024 75 1046 c 0,13,14
 75 1124 75 1124 114 1210.5 c 128,-1,15
 153 1297 153 1297 269 1409 c 1,16,-1
 351 1337 l 1,17,18
 221 1213 221 1213 221 1142 c 0,0,1
EndSplineSet
Layer: 2
SplineSet
221 1142 m 0
 221 1103 319 1115 319 1004 c 0
 319 954.5 280.5 891 201 891 c 0
 85 891 75 1004 75 1046 c 0
 75 1128 97 1243 269 1409 c 9
 351 1337 l 17
 260 1250 221 1186 221 1142 c 0
EndSplineSet
EndChar

StartChar: quoteleft
Encoding: 8216 8216 124
Width: 450
Flags: MW
LayerCount: 3
Fore
SplineSet
221 1142 m 0,0,1
 221 1130 221 1130 236.5 1119.5 c 128,-1,3
 252 1109 252 1109 270 1100.5 c 128,-1,5
 288 1092 288 1092 303.5 1067 c 128,-1,7
 319 1042 319 1042 319 1004 c 0,8,9
 319 962 319 962 287.5 926.5 c 128,-1,11
 256 891 256 891 201 891 c 0,12,13
 160 891 160 891 132.5 908.5 c 128,-1,15
 105 926 105 926 94 954 c 128,-1,17
 83 982 83 982 79 1003 c 128,-1,19
 75 1024 75 1024 75 1046 c 0,20,21
 75 1124 75 1124 114 1210.5 c 128,-1,23
 153 1297 153 1297 269 1409 c 1,24,-1
 351 1337 l 1,25,26
 221 1213 221 1213 221 1142 c 0,0,1
EndSplineSet
Layer: 2
SplineSet
221 1142 m 0
 221 1103 319 1115 319 1004 c 0
 319 954.5 280.5 891 201 891 c 0
 85 891 75 1004 75 1046 c 0
 75 1128 97 1243 269 1409 c 9
 351 1337 l 17
 260 1250 221 1186 221 1142 c 0
EndSplineSet
EndChar

StartChar: quoteright
Encoding: 8217 8217 125
Width: 450
Flags: MW
LayerCount: 3
Fore
SplineSet
205 1158 m 0,0,1
 205 1170 205 1170 189.5 1180.5 c 0,2,3
 174 1191 174 1191 156 1199.5 c 0,4,5
 138 1208 138 1208 122.5 1233 c 0,6,7
 107 1258 107 1258 107 1296 c 0,8,9
 107 1338 107 1338 138.5 1373.5 c 0,10,11
 170 1409 170 1409 225 1409 c 0,12,13
 266 1409 266 1409 293.5 1391.5 c 0,14,15
 321 1374 321 1374 332 1346 c 0,16,17
 343 1318 343 1318 347 1297 c 0,18,19
 351 1276 351 1276 351 1254 c 0,20,21
 351 1176 351 1176 312 1089.5 c 0,22,23
 273 1003 273 1003 157 891 c 1,24,-1
 75 963 l 1,25,26
 205 1087 205 1087 205 1158 c 0,0,1
EndSplineSet
Layer: 2
SplineSet
205 1158 m 4
 205 1197 107 1185 107 1296 c 4
 107 1345.5 145.5 1409 225 1409 c 4
 341 1409 351 1296 351 1254 c 4
 351 1172 329 1057 157 891 c 13
 75 963 l 21
 166 1050 205 1114 205 1158 c 4
EndSplineSet
EndChar

StartChar: quotereversed
Encoding: 8219 8219 127
Width: 450
Flags: MW
LayerCount: 3
Fore
SplineSet
221 1158 m 0,0,1
 221 1087 221 1087 351 963 c 1,2,-1
 269 891 l 1,3,4
 153 1003 153 1003 114 1089.5 c 0,5,6
 75 1176 75 1176 75 1254 c 0,7,8
 75 1276 75 1276 79 1297 c 0,9,10
 83 1318 83 1318 94 1346 c 0,11,12
 105 1374 105 1374 132.5 1391.5 c 0,13,14
 160 1409 160 1409 201 1409 c 0,15,16
 256 1409 256 1409 287.5 1373.5 c 0,17,18
 319 1338 319 1338 319 1296 c 0,19,20
 319 1258 319 1258 303.5 1233 c 0,21,22
 288 1208 288 1208 270 1199.5 c 0,23,24
 252 1191 252 1191 236.5 1180.5 c 0,25,26
 221 1170 221 1170 221 1158 c 0,0,1
EndSplineSet
Layer: 2
SplineSet
221 1158 m 4
 221 1114 260 1050 351 963 c 13
 269 891 l 21
 97 1057 75 1172 75 1254 c 4
 75 1296 85 1409 201 1409 c 4
 280.5 1409 319 1345.5 319 1296 c 4
 319 1185 221 1197 221 1158 c 4
EndSplineSet
EndChar

StartChar: guillemotleft
Encoding: 171 171 132
Width: 978
Flags: MW
LayerCount: 3
Fore
SplineSet
646 525 m 25,0,-1
 873 268 l 1,1,-1
 840 168 l 1,2,-1
 487.808 525 l 1,3,-1
 840 882 l 1,4,-1
 873 782 l 1,5,-1
 646 525 l 25,0,-1
187 525 m 29,7,-1
 467 268 l 5,8,-1
 434 168 l 5,9,-1
 18 525.087 l 5,10,-1
 434 882 l 5,11,-1
 467 782 l 5,12,-1
 187 525 l 29,7,-1
EndSplineSet
Layer: 2
SplineSet
646 525 m 25
 873 268 l 25
 840 168 l 25
 487.808 525 l 25
 840 882 l 25
 873 782 l 25
 646 525 l 25
187 525 m 25
 467 268 l 25
 434 168 l 25
 18 525.087 l 25
 434 882 l 25
 467 782 l 25
 187 525 l 25
EndSplineSet
EndChar

StartChar: guillemotright
Encoding: 187 187 133
Width: 978
Flags: MW
LayerCount: 3
Fore
SplineSet
332 525 m 25,0,-1
 105 782 l 1,1,-1
 138 882 l 1,2,-1
 490.192 525 l 1,3,-1
 138 168 l 1,4,-1
 105 268 l 1,5,-1
 332 525 l 25,0,-1
791 525 m 25,6,-1
 511 782 l 1,7,-1
 544 882 l 1,8,-1
 960 524.913 l 1,9,-1
 544 168 l 1,10,-1
 511 268 l 1,11,-1
 791 525 l 25,6,-1
EndSplineSet
Layer: 2
SplineSet
332 525 m 25
 105 782 l 25
 138 882 l 25
 490.192 525 l 25
 138 168 l 25
 105 268 l 25
 332 525 l 25
791 525 m 25
 511 782 l 25
 544 882 l 25
 960 524.913 l 25
 544 168 l 25
 511 268 l 25
 791 525 l 25
EndSplineSet
EndChar

StartChar: uni0257
Encoding: 599 599 134
Width: 1063
Flags: MW
AnchorPoint: "above" 816 1475 basechar 0 45
AnchorPoint: "cedilla" 482 0 basechar 0 46
AnchorPoint: "ogonek" 816 0 basechar 0 48
AnchorPoint: "below" 482 0 basechar 0 46
AnchorPoint: "topright" 816 828 basechar 0 47
LayerCount: 3
Fore
SplineSet
734 924 m 9,0,-1
 734 1016 l 2,1,2
 734 1124 734 1124 752 1206.5 c 128,-1,3
 770 1289 770 1289 798 1336.5 c 128,-1,4
 826 1384 826 1384 865.5 1414 c 128,-1,5
 905 1444 905 1444 941 1454 c 128,-1,6
 977 1464 977 1464 1018 1464 c 0,7,8
 1081 1464 1081 1464 1133.5 1440.5 c 128,-1,9
 1186 1417 1186 1417 1209 1394.5 c 128,-1,10
 1232 1372 1232 1372 1246 1349 c 1,11,-1
 1162 1254.5 l 1,12,13
 1102.12 1336 1102.12 1336 1024 1336 c 0,14,15
 970 1336 970 1336 934.5 1267.5 c 128,-1,16
 899 1199 899 1199 899 1067 c 2,17,-1
 899 0 l 1,18,-1
 734 0 l 1,19,-1
 734 110 l 1,20,21
 621 -18 621 -18 465 -18 c 0,22,23
 349 -18 349 -18 255 46 c 128,-1,24
 161 110 161 110 111 212.5 c 128,-1,25
 61 315 61 315 61 432 c 0,26,27
 61 665 61 665 196.5 810.5 c 128,-1,28
 332 956 332 956 533 956 c 0,29,30
 617 956 617 956 734 924 c 9,0,-1
734 784 m 1,31,32
 651 828 651 828 543 828 c 0,33,34
 488 828 488 828 431.5 799.5 c 128,-1,35
 375 771 375 771 328 721.5 c 128,-1,36
 281 672 281 672 251.5 597 c 128,-1,37
 222 522 222 522 222 436 c 0,38,39
 222 297 222 297 296.5 204 c 128,-1,40
 371 111 371 111 480 111 c 0,41,42
 554 111 554 111 621 161.5 c 128,-1,43
 688 212 688 212 734 290 c 1,44,-1
 734 784 l 1,31,32
816 1475 m 25,45,-1
482 0 m 25,46,-1
816 828 m 25,47,-1
816 0 m 25,48,-1
EndSplineSet
Layer: 2
SplineSet
734 924 m 9
 734 1016 l 18
 734 1392 896 1464 1018 1464 c 0
 1156 1464 1226 1382 1246 1349 c 9
 1162 1254.5 l 17
 1144 1279 1095 1336 1024 1336 c 0
 956 1336 899 1251 899 1067 c 2
 899 0 l 1
 734 0 l 1
 734 110 l 1
 696 67 613 -18 465 -18 c 0
 225 -18 61 198 61 432 c 0
 61 748 270 956 533 956 c 0
 615 956 668 942 734 924 c 9
734 784 m 1
 702 801 630 828 543 828 c 0
 398 828 222 674 222 436 c 0
 222 250 336 111 480 111 c 0
 585 111 677 194 734 290 c 1
 734 784 l 1
EndSplineSet
EndChar

StartChar: uni0256
Encoding: 598 598 135
Width: 1063
Flags: MW
AnchorPoint: "above" 816 1475 basechar 0 46
AnchorPoint: "cedilla" 1063 -492 basechar 0 48
AnchorPoint: "ogonek" 1063 -492 basechar 0 48
AnchorPoint: "below" 482 0 basechar 0 47
AnchorPoint: "topright" 816 828 basechar 0 49
LayerCount: 3
Fore
SplineSet
899 68 m 18,0,1
 899 -13 899 -13 906.5 -76.5 c 128,-1,2
 914 -140 914 -140 925.5 -183 c 128,-1,3
 937 -226 937 -226 958 -258 c 128,-1,4
 979 -290 979 -290 998 -307.5 c 128,-1,5
 1017 -325 1017 -325 1049 -337.5 c 128,-1,6
 1081 -350 1081 -350 1105 -354.5 c 128,-1,7
 1129 -359 1129 -359 1168 -364 c 1,8,-1
 1155 -492 l 1,9,10
 1124 -492 1124 -492 1098 -490 c 128,-1,11
 1072 -488 1072 -488 1026.5 -477 c 128,-1,12
 981 -466 981 -466 945 -447 c 128,-1,13
 909 -428 909 -428 867.5 -389 c 128,-1,14
 826 -350 826 -350 798.5 -297 c 128,-1,15
 771 -244 771 -244 752.5 -161 c 128,-1,16
 734 -78 734 -78 734 26 c 2,17,-1
 734 110 l 1,18,19
 621 -18 621 -18 465 -18 c 0,20,21
 349 -18 349 -18 255 46 c 128,-1,22
 161 110 161 110 111 212.5 c 128,-1,23
 61 315 61 315 61 432 c 0,24,25
 61 665 61 665 196.5 810.5 c 128,-1,26
 332 956 332 956 533 956 c 0,27,28
 617 956 617 956 734 924 c 1,29,-1
 734 1475 l 1,30,-1
 899 1475 l 1,31,-1
 899 68 l 18,0,1
734 784 m 1,32,33
 651 828 651 828 543 828 c 0,34,35
 488 828 488 828 431.5 799.5 c 128,-1,36
 375 771 375 771 328 721.5 c 128,-1,37
 281 672 281 672 251.5 597 c 128,-1,38
 222 522 222 522 222 436 c 0,39,40
 222 297 222 297 296.5 204 c 128,-1,41
 371 111 371 111 480 111 c 0,42,43
 554 111 554 111 621 161.5 c 128,-1,44
 688 212 688 212 734 290 c 1,45,-1
 734 784 l 1,32,33
816 1475 m 25,46,-1
482 0 m 25,47,-1
1063 -492 m 25,48,-1
816 828 m 25,49,-1
EndSplineSet
Layer: 2
SplineSet
899 68 m 22
 899 -318.001 1017 -345 1168 -364 c 5
 1155 -492 l 5
 1050 -492 734 -477.678 734 26 c 6
 734 110 l 5
 696 67 613 -18 465 -18 c 4
 225 -18 61 198 61 432 c 4
 61 748 270 956 533 956 c 4
 615 956 668 942 734 924 c 5
 734 1475 l 5
 899 1475 l 13
 899 68 l 22
734 784 m 5
 702 801 630 828 543 828 c 4
 398 828 222 674 222 436 c 4
 222 250 336 111 480 111 c 4
 585 111 677 194 734 290 c 5
 734 784 l 5
EndSplineSet
EndChar

StartChar: longs
Encoding: 383 383 136
Width: 675
Flags: MW
LayerCount: 3
Fore
SplineSet
383 0 m 25,0,-1
 222 0 l 1,1,-1
 222 810 l 1,2,-1
 56 810 l 1,3,-1
 56 938 l 1,4,-1
 222 938 l 1,5,-1
 222 1020 l 2,6,7
 222 1464 222 1464 573 1464 c 0,8,9
 632 1464 632 1464 681 1452.5 c 128,-1,11
 730 1441 730 1441 753.5 1429.5 c 128,-1,13
 777 1418 777 1418 807 1398.5 c 128,-1,15
 837 1379 837 1379 846 1374 c 1,16,-1
 802 1247 l 1,17,18
 761 1283 761 1283 699.5 1309.5 c 128,-1,20
 638 1336 638 1336 575 1336 c 0,21,22
 500 1336 500 1336 441.5 1265.5 c 128,-1,24
 383 1195 383 1195 383 1107 c 2,25,-1
 383 0 l 25,0,-1
EndSplineSet
Layer: 2
SplineSet
383 0 m 25
 222 0 l 25
 222 810 l 25
 56 810 l 25
 56 938 l 25
 222 938 l 25
 222 1020 l 18
 222 1270 306 1464 573 1464 c 0
 743 1464 796 1400 846 1374 c 9
 802 1247 l 17
 754 1289 666 1336 575 1336 c 0
 474 1336 383 1223.55 383 1107 c 26
 383 0 l 25
EndSplineSet
EndChar

StartChar: germandbls
Encoding: 223 223 137
Width: 1162
Flags: MW
LayerCount: 3
Fore
SplineSet
505 1336 m 0,13,14
 416 1336 416 1336 370.5 1269 c 128,-1,16
 325 1202 325 1202 325 1082 c 2,17,-1
 325 0 l 1,18,-1
 164 0 l 1,19,-1
 164 1044 l 2,20,21
 164 1464 164 1464 503 1464 c 0,22,23
 616 1464 616 1464 694 1438.5 c 128,-1,25
 772 1413 772 1413 815.5 1362.5 c 128,-1,27
 859 1312 859 1312 878 1245 c 128,-1,29
 897 1178 897 1178 897 1086 c 0,30,31
 897 1035.23 897 1035.23 881.31 993.676 c 128,-1,33
 865.619 952.118 865.619 952.118 840.529 924.452 c 128,-1,35
 815.438 896.786 815.438 896.786 785.094 873.548 c 128,-1,37
 754.75 850.31 754.75 850.31 724.406 830.983 c 128,-1,39
 694.062 811.656 694.062 811.656 668.971 792.323 c 128,-1,41
 643.881 772.991 643.881 772.991 628.19 747.589 c 128,-1,43
 612.5 722.187 612.5 722.187 612.5 692 c 0,44,45
 612.5 642.769 612.5 642.769 645.895 612.086 c 128,-1,47
 679.291 581.403 679.291 581.403 773.5 549 c 2,48,-1
 852 522 l 2,49,50
 959 485 959 485 1010.5 424.5 c 128,-1,52
 1062 364 1062 364 1062 264 c 0,53,54
 1062 134 1062 134 974 58 c 128,-1,56
 886 -18 886 -18 734 -18 c 0,57,58
 653 -18 653 -18 578.5 -1.5 c 128,-1,60
 504 15 504 15 412 68 c 1,61,-1
 470 192 l 1,62,63
 547 146 547 146 601 128.5 c 128,-1,65
 655 111 655 111 728 111 c 0,66,67
 901 111 901 111 901 260 c 0,68,69
 901 350 901 350 736 404 c 2,70,-1
 657.5 431 l 2,71,72
 552.871 467.761 552.871 467.761 502.186 539.374 c 128,-1,74
 451.5 610.987 451.5 610.987 451.5 695 c 0,75,76
 451.5 744.27 451.5 744.27 467.19 783.549 c 128,-1,78
 482.881 822.828 482.881 822.828 507.971 848.471 c 128,-1,80
 533.062 874.114 533.062 874.114 563.406 895.753 c 128,-1,82
 593.75 917.393 593.75 917.393 624.094 936.92 c 128,-1,84
 654.438 956.447 654.438 956.447 679.529 977.59 c 128,-1,86
 704.619 998.733 704.619 998.733 720.31 1029.29 c 128,-1,88
 736 1059.84 736 1059.84 736 1098 c 0,89,90
 736 1336 736 1336 505 1336 c 0,13,14
EndSplineSet
Layer: 2
SplineSet
505 1336 m 0
 384 1336 325 1238 325 1082 c 10
 325 0 l 25
 164 0 l 25
 164 1044 l 18
 164 1266 237 1464 503 1464 c 0
 810 1464 897 1321.25 897 1086 c 0
 897 836 612.5 842 612.5 692 c 0
 612.5 628 645.032 593.186 773.5 549 c 2
 852 522 l 2
 989 474 1062 402 1062 264 c 0
 1062 92 938 -18 734 -18 c 0
 648 -18 548 -10 412 68 c 9
 470 192 l 17
 570 132 628 111 728 111 c 0
 842 111 901 160 901 260 c 0
 901 325 839 370 736 404 c 2
 657.5 431 l 2
 509.5 483 451.5 592 451.5 695 c 0
 451.5 938 736 909 736 1098 c 0
 736 1189.5 713 1336 505 1336 c 0
EndSplineSet
EndChar

StartChar: uni0181
Encoding: 385 385 138
Width: 1116
Flags: MW
LayerCount: 3
Fore
SplineSet
180 1202 m 1,0,0
 -22 1125 -22 1125 -22 1018 c 0,1,2
 -22 953 -22 953 0 896 c 1,3,-1
 -174 870 l 1,4,5
 -207 932 -207 932 -207 1026 c 0,6,7
 -207 1128 -207 1128 -138.5 1205.5 c 128,-1,9
 -70 1283 -70 1283 39.5 1325.5 c 128,-1,11
 149 1368 149 1368 266 1388.5 c 128,-1,13
 383 1409 383 1409 500 1409 c 0,14,15
 702 1409 702 1409 832.5 1322 c 128,-1,17
 963 1235 963 1235 963 1084 c 0,18,19
 963 953 963 953 894 867 c 128,-1,21
 825 781 825 781 717 752 c 1,22,23
 769 745 769 745 815 732 c 128,-1,25
 861 719 861 719 908.5 693 c 128,-1,27
 956 667 956 667 990.5 631 c 128,-1,29
 1025 595 1025 595 1046.5 538.5 c 128,-1,31
 1068 482 1068 482 1068 413 c 0,32,33
 1068 271 1068 271 992.5 172 c 128,-1,35
 917 73 917 73 793 27.5 c 128,-1,37
 669 -18 669 -18 508 -18 c 0,38,39
 433 -18 433 -18 335 -9 c 128,-1,41
 237 0 237 0 180 13 c 1,42,-1
 180 1202 l 1,0,0
361 1252 m 1,0,-1
 361 795 l 1,1,-1
 427 795 l 2,2,3
 594 795 594 795 682.5 858 c 128,-1,5
 771 921 771 921 771 1040 c 0,6,7
 771 1095 771 1095 750 1137.5 c 128,-1,9
 729 1180 729 1180 698 1204 c 128,-1,11
 667 1228 667 1228 626 1244 c 128,-1,13
 585 1260 585 1260 551 1265 c 128,-1,15
 517 1270 517 1270 484 1270 c 0,16,17
 420 1270 420 1270 361 1252 c 1,0,-1
361 655 m 1,8,-1
 361 140 l 1,9,10
 379 134 379 134 425 128 c 128,-1,12
 471 122 471 122 499 122 c 0,13,14
 687 122 687 122 785 191.5 c 128,-1,16
 883 261 883 261 883 390 c 0,17,18
 883 655 883 655 421 655 c 2,19,-1
 361 655 l 1,8,-1
EndSplineSet
Layer: 2
SplineSet
180 1202 m 1
 72 1161 -22 1101 -22 1018 c 0
 -22 968 -10 922 0 896 c 9
 -174 870 l 17
 -192 904 -207 960 -207 1026 c 0
 -207 1312 210 1409 500 1409 c 0
 762 1409 963 1290 963 1084 c 0xf0
 963 902 853 788 717 752 c 1
 875 732 1068 654 1068 413 c 0
 1068 120 822 -18 508 -18 c 0
 411 -18 258 -5 180 13 c 1
 180 1202 l 1
361 1252 m 1xf0
 361 795 l 1
 427 795 l 2
 649 795 771 881 771 1040 c 0
 771 1232 579 1270 484 1270 c 0
 426 1270 387 1260 361 1252 c 1xf0
361 655 m 1
 361 140 l 1
 386 131 464 122 499 122 c 0
 752 122 883 220 883 390 c 0xe8
 883 579 709 655 421 655 c 2
 361 655 l 1
EndSplineSet
EndChar

StartChar: uni018E
Encoding: 398 398 139
Width: 1077
Flags: MW
LayerCount: 3
Fore
SplineSet
716 747 m 1,0,-1
 716 1252 l 1,1,-1
 102 1251 l 1,2,-1
 102 1391 l 1,3,-1
 897 1391 l 1,4,-1
 897 0 l 1,5,-1
 102 0 l 1,6,-1
 102 139 l 1,7,-1
 716 139 l 1,8,-1
 716 608 l 1,9,-1
 298 607 l 1,10,-1
 298 747 l 1,11,-1
 716 747 l 1,0,-1
EndSplineSet
Layer: 2
SplineSet
716 747 m 1
 716 1252 l 1
 102 1251 l 1
 102 1391 l 1
 897 1391 l 1
 897 0 l 1
 102 0 l 1
 102 139 l 1
 716 139 l 1
 716 608 l 1
 298 607 l 1
 298 747 l 1
 716 747 l 1
EndSplineSet
EndChar

StartChar: uni018F
Encoding: 399 399 140
Width: 1333
Flags: MW
AnchorPoint: "topright" 1188 1053 basechar 0 42
AnchorPoint: "ogonek" 652 0 basechar 0 43
AnchorPoint: "cedilla" 652 0 basechar 0 43
AnchorPoint: "below" 652 0 basechar 0 43
AnchorPoint: "above" 652 1409 basechar 0 41
LayerCount: 3
Fore
SplineSet
646 -18 m 0,0,1
 515 -18 515 -18 406.5 21 c 128,-1,2
 298 60 298 60 215 137.5 c 128,-1,3
 132 215 132 215 86 340 c 128,-1,4
 40 465 40 465 40 627 c 1,5,-1
 128 720 l 1,6,-1
 1091.61 720 l 1,7,8
 1088.9 803.393 1088.9 803.393 1068.34 882.416 c 128,-1,9
 1047.78 961.439 1047.78 961.439 1007.8 1031.73 c 128,-1,10
 967.812 1102.02 967.812 1102.02 912.761 1154.74 c 128,-1,11
 857.709 1207.46 857.709 1207.46 780.901 1238.23 c 128,-1,12
 704.094 1269 704.094 1269 615 1269 c 0,13,14
 499 1269 499 1269 406.5 1232 c 128,-1,15
 314 1195 314 1195 222 1132 c 1,16,-1
 134 1251 l 1,17,18
 235 1323 235 1323 346.5 1366 c 128,-1,19
 458 1409 458 1409 614 1409 c 0,20,21
 778 1409 778 1409 908 1352 c 128,-1,22
 1038 1295 1038 1295 1119 1196 c 128,-1,23
 1200 1097 1200 1097 1242 969.5 c 128,-1,24
 1284 842 1284 842 1284 695 c 0,25,26
 1284 363 1284 363 1117.5 172.5 c 128,-1,27
 951 -18 951 -18 646 -18 c 0,0,1
1086.75 580 m 1,28,-1
 222 580 l 1,29,30
 222 490 222 490 247 413 c 128,-1,31
 272 336 272 336 313.5 283.5 c 128,-1,32
 355 231 355 231 410 194 c 128,-1,33
 465 157 465 157 524.5 139.5 c 128,-1,34
 584 122 584 122 646 122 c 0,35,36
 732.873 122 732.873 122 802.898 144.604 c 128,-1,37
 872.922 167.208 872.922 167.208 921.912 207.15 c 128,-1,38
 970.902 247.092 970.902 247.092 1005.79 305.299 c 128,-1,39
 1040.69 363.506 1040.69 363.506 1059.82 431.028 c 128,-1,40
 1078.96 498.551 1078.96 498.551 1086.75 580 c 1,28,-1
652 1409 m 8,41,-1
1188 1053 m 25,42,-1
652 0 m 25,43,-1
EndSplineSet
Layer: 2
SplineSet
646 -18 m 0
 304 -18 40 184 40 627 c 1
 128 720 l 1
 1136 720 l 1
 1136 580 l 1
 222 580 l 1
 222 268 445 122 646 122 c 0
 984 122 1092 376 1092 696 c 0
 1092 978 930 1269 615 1269 c 0
 444 1269 321 1200 222 1132 c 1
 134 1251 l 1
 243 1329 384 1409 614 1409 c 0
 1065 1409 1284 1080 1284 695 c 0
 1284 258 1057 -18 646 -18 c 0
EndSplineSet
EndChar

StartChar: uni018A
Encoding: 394 394 141
Width: 1375
Flags: MW
LayerCount: 3
Fore
SplineSet
544 1409 m 0,5,6
 663 1409 663 1409 777 1379 c 128,-1,8
 891 1349 891 1349 991 1288.5 c 128,-1,10
 1091 1228 1091 1228 1166.5 1143.5 c 128,-1,12
 1242 1059 1242 1059 1286 942 c 128,-1,14
 1330 825 1330 825 1330 691 c 0,15,16
 1330 524 1330 524 1267.5 387 c 128,-1,18
 1205 250 1205 250 1100.5 163 c 128,-1,20
 996 76 996 76 863 29 c 128,-1,22
 730 -18 730 -18 584 -18 c 0,23,24
 367 -18 367 -18 180 13 c 1,25,-1
 180.091 1209.98 l 1,26,27
 -22 1141.22 -22 1141.22 -22 1018 c 0,28,29
 -22 952 -22 952 0 896 c 1,30,-1
 -174 870 l 1,31,32
 -207 932 -207 932 -207 1026 c 0,33,34
 -207 1101 -207 1101 -172 1162.5 c 128,-1,36
 -137 1224 -137 1224 -76 1264.5 c 128,-1,38
 -15 1305 -15 1305 59 1334.5 c 128,-1,40
 133 1364 133 1364 221 1379.5 c 128,-1,42
 309 1395 309 1395 387 1402 c 128,-1,44
 465 1409 465 1409 544 1409 c 0,5,6
361 1252 m 1,9,-1
 360 140 l 1,10,11
 452 122 452 122 557 122 c 0,12,13
 665 122 665 122 768 159 c 128,-1,15
 871 196 871 196 955 264.5 c 128,-1,17
 1039 333 1039 333 1090.5 443.5 c 128,-1,19
 1142 554 1142 554 1142 688 c 0,20,21
 1142 799 1142 799 1105.5 895 c 128,-1,23
 1069 991 1069 991 1009 1058.5 c 128,-1,25
 949 1126 949 1126 871.5 1175 c 128,-1,27
 794 1224 794 1224 710.5 1247 c 128,-1,29
 627 1270 627 1270 546 1270 c 0,30,31
 439 1270 439 1270 361 1252 c 1,9,-1
EndSplineSet
Layer: 2
SplineSet
544 1409 m 0
 938 1409 1330 1152 1330 691 c 0
 1330 230 968 -18 584 -18 c 0
 362 -18 267.5 -1.5 180 13 c 1
 180.091 1209.98 l 1
 69.6865 1172.42 -22 1112.49 -22 1018 c 0
 -22 968.249 -10.5 922.5 0 896 c 9
 -174 870 l 17
 -192 904 -207 960.105 -207 1026 c 0
 -207 1338 254 1409 544 1409 c 0
361 1252 m 1
 360 140 l 1
 426.5 127 468 122 557 122 c 0
 840 122 1142 316 1142 688 c 0
 1142 1071 813 1270 546 1270 c 0
 476 1270 395.5 1260 361 1252 c 1
EndSplineSet
EndChar

StartChar: uni01B3
Encoding: 435 435 142
Width: 1307
Flags: MW
LayerCount: 3
Fore
SplineSet
985.282 1068 m 2,0,-1
 711 617.642 l 1,1,-1
 711 0 l 1,2,-1
 530 0 l 1,3,-1
 530 619.277 l 1,4,-1
 59 1391 l 1,5,-1
 237 1391 l 1,6,-1
 625.911 753.778 l 1,7,-1
 817.282 1068 l 2,8,9
 901.585 1206.42 901.585 1206.42 964.019 1279.65 c 0,10,11
 1026.45 1352.88 1026.45 1352.88 1081.08 1380.94 c 0,12,13
 1135.7 1409 1135.7 1409 1206 1409 c 0,14,15
 1444 1409 1444 1409 1478 1119 c 1,16,-1
 1317 1095 l 1,17,18
 1311 1140 1311 1140 1305.5 1165.5 c 0,19,20
 1300 1191 1300 1191 1287.5 1218 c 0,21,22
 1275 1245 1275 1245 1253.5 1257 c 0,23,24
 1232 1269 1232 1269 1199 1269 c 0,25,26
 1179.38 1269 1179.38 1269 1158.88 1260.46 c 0,27,28
 1138.38 1251.92 1138.38 1251.92 1122.92 1242.09 c 0,29,30
 1107.45 1232.26 1107.45 1232.26 1087.55 1210.41 c 0,31,32
 1067.64 1188.56 1067.64 1188.56 1057.51 1176.79 c 0,33,34
 1047.38 1165.01 1047.38 1165.01 1028.68 1136.74 c 0,35,36
 1009.98 1108.47 1009.98 1108.47 1005.79 1101.64 c 0,37,38
 1001.61 1094.81 1001.61 1094.81 985.282 1068 c 2,0,-1
EndSplineSet
Layer: 2
SplineSet
985.282 1068 m 2
 711 617.642 l 1
 711 0 l 1
 530 0 l 1
 530 619.277 l 1
 59 1391 l 1
 237 1391 l 1
 625.911 753.778 l 1
 817.282 1068 l 2
 985.003 1343.39 1071 1409 1206 1409 c 0
 1311 1409 1449 1368 1478 1119 c 9
 1317 1095 l 17
 1304 1195 1290 1269 1199 1269 c 0
 1104 1269 1026.89 1136.33 985.282 1068 c 2
EndSplineSet
EndChar

StartChar: uni01B4
Encoding: 436 436 143
Width: 1130
Flags: MW
LayerCount: 3
Fore
SplineSet
853 598 m 2,0,-1
 592 18 l 2,1,2
 499 -188 499 -188 430.5 -299 c 128,-1,4
 362 -410 362 -410 302.5 -453 c 128,-1,6
 243 -496 243 -496 170 -496 c 0,7,8
 70 -496 70 -496 -1 -420 c 1,9,-1
 57 -322 l 1,10,11
 76 -338 76 -338 87.5 -345.5 c 128,-1,13
 99 -353 99 -353 118 -360 c 128,-1,15
 137 -367 137 -367 157 -367 c 0,16,17
 181.413 -367 181.413 -367 205.44 -354.069 c 128,-1,19
 229.466 -341.137 229.466 -341.137 253.138 -313.809 c 128,-1,21
 276.81 -286.48 276.81 -286.48 297.78 -255.762 c 128,-1,23
 318.75 -225.044 318.75 -225.044 343.396 -177.326 c 128,-1,25
 368.042 -129.607 368.042 -129.607 387.248 -88.8503 c 128,-1,27
 406.454 -48.0937 406.454 -48.0937 432.943 11.4572 c 1,28,-1
 24 938 l 1,29,-1
 197 938 l 1,30,-1
 519.523 206.821 l 1,31,-1
 708 636 l 2,32,33
 747 723 747 723 782.5 782.5 c 128,-1,35
 818 842 818 842 848.5 876 c 128,-1,37
 879 910 879 910 915.5 928 c 128,-1,39
 952 946 952 946 982.5 951 c 128,-1,41
 1013 956 1013 956 1059 956 c 0,42,43
 1078 956 1078 956 1099 952.5 c 128,-1,45
 1120 949 1120 949 1155.5 932.5 c 128,-1,47
 1191 916 1191 916 1218.5 888 c 128,-1,49
 1246 860 1246 860 1270.5 803.5 c 128,-1,51
 1295 747 1295 747 1301 672 c 1,52,-1
 1140 642 l 1,53,54
 1137 695 1137 695 1104.5 755.5 c 128,-1,56
 1072 816 1072 816 1027 816 c 0,57,58
 1008 816 1008 816 989 805.5 c 128,-1,60
 970 795 970 795 954.5 778 c 128,-1,62
 939 761 939 761 924 738.5 c 128,-1,64
 909 716 909 716 897 692 c 128,-1,66
 885 668 885 668 873.5 643.5 c 128,-1,68
 862 619 862 619 853 598 c 2,0,-1
EndSplineSet
Layer: 2
SplineSet
853 598 m 2
 592 18 l 2
 407.286 -392.477 311 -496 170 -496 c 0
 78 -496 28 -451 -1 -420 c 1
 57 -322 l 1
 88 -347 114 -367 157 -367 c 0
 257.166 -367 341.394 -194.359 432.943 11.4572 c 1
 24 938 l 1
 197 938 l 1
 519.523 206.821 l 1
 708 636 l 2
 838.792 930.726 924 956 1059 956 c 0
 1101 956 1278 939 1301 672 c 9
 1140 642 l 17
 1137 699 1094 816 1027 816 c 0
 946 816 890.796 681.992 853 598 c 2
EndSplineSet
EndChar

StartChar: uni0198
Encoding: 408 408 144
Width: 1161
Flags: MW
LayerCount: 3
Fore
SplineSet
1103 1 m 5,0,-1
 892 1 l 1,1,-1
 361 679 l 1,2,-1
 361 0 l 1,3,-1
 180 0 l 1,4,-1
 180 1391 l 1,5,-1
 361 1391 l 1,6,-1
 361 693 l 1,7,-1
 637 1071 l 2,8,9
 699 1155 699 1155 740 1207 c 128,-1,11
 781 1259 781 1259 821 1302 c 0,12,13
 861 1344 861 1344 895 1366 c 0,14,15
 928 1387 928 1387 963 1398 c 128,-1,17
 998 1409 998 1409 1039 1409 c 0,18,19
 1075 1409 1075 1409 1108 1403 c 0,20,21
 1140 1397 1140 1397 1178 1378 c 0,22,23
 1217 1359 1217 1359 1246 1328 c 0,24,25
 1276 1298 1276 1298 1300 1244 c 128,-1,27
 1324 1190 1324 1190 1332 1119 c 1,28,-1
 1171 1095 l 1,29,30
 1160 1177 1160 1177 1128 1223 c 128,-1,32
 1096 1269 1096 1269 1032 1269 c 0,33,34
 1014 1269 1014 1269 993 1257 c 0,35,36
 972 1246 972 1246 956 1233 c 128,-1,38
 940 1220 940 1220 917 1192 c 0,39,40
 893 1164 893 1164 883 1151 c 0,41,42
 873 1137 873 1137 849 1104 c 128,-1,44
 825 1071 825 1071 822 1066 c 2,45,-1
 555 701 l 1,46,-1
 1103 1 l 5,0,-1
EndSplineSet
Layer: 2
SplineSet
1103 1 m 1
 892 1 l 1
 361 679 l 1
 361 0 l 1
 180 0 l 1
 180 1391 l 1
 361 1391 l 1
 361 693 l 1
 637 1071 l 2
 827 1331 904 1409 1039 1409 c 0
 1144 1409 1303 1368 1332 1119 c 9
 1171 1095 l 17
 1158 1195 1123 1269 1032 1269 c 0
 957 1269 872 1135 822 1066 c 2
 555 701 l 1
 1103 1 l 1
EndSplineSet
EndChar

StartChar: uni0199
Encoding: 409 409 145
Width: 936
Flags: MW
LayerCount: 3
Fore
SplineSet
325 0 m 5,0,-1
 164 0 l 5,1,-1
 164 1020 l 6,2,3
 164 1464 164 1464 515 1464 c 4,4,5
 574 1464 574 1464 623 1452.5 c 132,-1,6
 672 1441 672 1441 695.5 1429.5 c 132,-1,7
 719 1418 719 1418 749 1398.5 c 132,-1,8
 779 1379 779 1379 788 1374 c 5,9,-1
 744 1247 l 5,10,11
 703 1283 703 1283 641.5 1309.5 c 132,-1,12
 580 1336 580 1336 517 1336 c 4,13,14
 442 1336 442 1336 383.5 1265.5 c 132,-1,15
 325 1195 325 1195 325 1107 c 6,16,-1
 325 624 l 5,17,-1
 644 938 l 5,18,-1
 844 938 l 5,19,-1
 459 562 l 5,20,-1
 914 0 l 5,21,-1
 714 0 l 5,22,-1
 325 479 l 5,23,-1
 325 0 l 5,0,-1
EndSplineSet
Layer: 2
SplineSet
325 0 m 1
 164 0 l 1
 164 1020 l 2
 164 1270 248 1464 515 1464 c 0
 685 1464 738 1400 788 1374 c 9
 744 1247 l 17
 696 1289 608 1336 517 1336 c 0
 416 1336 325 1224 325 1107 c 18
 325 624 l 1
 644 938 l 1
 844 938 l 1
 459 562 l 1
 914 0 l 1
 714 0 l 1
 325 479 l 1
 325 0 l 1
EndSplineSet
EndChar

StartChar: uni028B
Encoding: 651 651 146
Width: 1121
Flags: MW
AnchorPoint: "above" 492 956 basechar 0 29
AnchorPoint: "below" 492 0 basechar 0 27
AnchorPoint: "cedilla" 492 0 basechar 0 27
AnchorPoint: "ogonek" 492 0 basechar 0 27
AnchorPoint: "topright" 765 828 basechar 0 28
LayerCount: 3
Fore
SplineSet
164 938 m 25,0,-1
 325 938 l 1,1,-1
 325 366 l 2,2,3
 325 264 325 264 375 187.5 c 128,-1,4
 425 111 425 111 516 111 c 0,5,6
 589 111 589 111 643 139 c 128,-1,7
 697 167 697 167 728 219.5 c 128,-1,8
 759 272 759 272 773.5 338.5 c 128,-1,9
 788 405 788 405 788 489 c 0,10,11
 788 546 788 546 774 598.5 c 128,-1,12
 760 651 760 651 731.5 700.5 c 128,-1,13
 703 750 703 750 683.5 777 c 128,-1,14
 664 804 664 804 628 850 c 1,15,-1
 759 956 l 1,16,17
 951 705 951 705 951 489 c 0,18,19
 951 382 951 382 925 292 c 128,-1,20
 899 202 899 202 846.5 131.5 c 128,-1,21
 794 61 794 61 707.5 21.5 c 128,-1,22
 621 -18 621 -18 507 -18 c 0,23,24
 352 -18 352 -18 258 85 c 128,-1,25
 164 188 164 188 164 366 c 2,26,-1
 164 938 l 25,0,-1
492 0 m 25,27,-1
765 828 m 25,28,-1
492 956 m 25,29,-1
EndSplineSet
Layer: 2
SplineSet
164 938 m 25
 325 938 l 25
 325 366 l 26
 325 241.746 387 111 516 111 c 0
 717 111 788.671 273 788 489 c 0
 787.5 650 696 764 628 850 c 9
 759 956 l 17
 834 858 951 689 951 489 c 0
 951 210 819 -18 507 -18 c 0
 302 -18 164 126 164 366 c 10
 164 938 l 25
EndSplineSet
EndChar

StartChar: uni028C
Encoding: 652 652 147
Width: 984
Flags: MW
AnchorPoint: "topright" 846 828 basechar 0 8
AnchorPoint: "ogonek" 876 0 basechar 0 10
AnchorPoint: "cedilla" 876 0 basechar 0 10
AnchorPoint: "below" 492 0 basechar 0 7
AnchorPoint: "above" 492 956 basechar 0 9
LayerCount: 3
Fore
SplineSet
486 672 m 1,0,-1
 183 0 l 25,1,-1
 21 0 l 1,2,-1
 438 938 l 1,3,-1
 544 938 l 1,4,-1
 963 0 l 1,5,-1
 790 0 l 1,6,-1
 486 672 l 1,0,-1
492 0 m 29,7,-1
846 828 m 29,8,-1
492 956 m 29,9,-1
876 0 m 29,10,-1
EndSplineSet
Layer: 2
SplineSet
183 0 m 25xa0
 21 0 l 17
 438 938 l 9
 544 938 l 25
 963 0 l 25
 790 0 l 25
 486 672 l 25
 183 0 l 25xa0
EndSplineSet
EndChar

StartChar: uni0245
Encoding: 581 581 148
Width: 1328
Flags: MW
AnchorPoint: "ogonek" 1166 0 basechar 0 9
AnchorPoint: "above" 664 1409 basechar 0 7
AnchorPoint: "below" 664 0 basechar 0 10
AnchorPoint: "cedilla" 1166 0 basechar 0 9
AnchorPoint: "topright" 786 1053 basechar 0 8
LayerCount: 3
Fore
SplineSet
659 1143 m 1,0,-1
 235 0 l 1,1,-1
 67 0 l 1,2,-1
 589 1391 l 1,3,-1
 739 1391 l 1,4,-1
 1261 0 l 1,5,-1
 1083 0 l 1,6,-1
 659 1143 l 1,0,-1
664 1409 m 25,7,-1
786 1053 m 25,8,-1
1166 0 m 25,9,-1
664 0 m 25,10,-1
EndSplineSet
Layer: 2
SplineSet
659 1143 m 1x80
 235 0 l 17
 67 0 l 9
 589 1391 l 9
 739 1391 l 17
 1261 0 l 17
 1083 0 l 1
 659 1143 l 1x80
EndSplineSet
EndChar

StartChar: Eth
Encoding: 208 208 149
Width: 1375
Flags: MW
AnchorPoint: "above" 620 1409 basechar 0 40
AnchorPoint: "ogonek" 620 0 basechar 0 42
AnchorPoint: "below" 620 0 basechar 0 42
AnchorPoint: "cedilla" 620 0 basechar 0 42
AnchorPoint: "topright" 1135 1053 basechar 0 41
LayerCount: 3
Fore
SplineSet
584 -18 m 0,0,1
 367 -18 367 -18 180 13 c 1,2,-1
 180 655.731 l 1,3,-1
 61 656 l 1,4,-1
 61 795 l 1,5,-1
 180 795 l 1,6,-1
 180 1372 l 1,7,8
 391 1409 391 1409 544 1409 c 0,9,10
 663 1409 663 1409 777 1379 c 128,-1,11
 891 1349 891 1349 991 1288.5 c 128,-1,12
 1091 1228 1091 1228 1166.5 1143.5 c 128,-1,13
 1242 1059 1242 1059 1286 942 c 128,-1,14
 1330 825 1330 825 1330 691 c 0,15,16
 1330 524 1330 524 1267.5 387 c 128,-1,17
 1205 250 1205 250 1100.5 163 c 128,-1,18
 996 76 996 76 863 29 c 128,-1,19
 730 -18 730 -18 584 -18 c 0,0,1
360.463 655.324 m 1,20,-1
 360 140 l 1,21,22
 452 122 452 122 557 122 c 0,23,24
 665 122 665 122 768 159 c 128,-1,25
 871 196 871 196 955 264.5 c 128,-1,26
 1039 333 1039 333 1090.5 443.5 c 128,-1,27
 1142 554 1142 554 1142 688 c 0,28,29
 1142 799 1142 799 1105.5 895 c 128,-1,30
 1069 991 1069 991 1009 1058.5 c 128,-1,31
 949 1126 949 1126 871.5 1175 c 128,-1,32
 794 1224 794 1224 710.5 1247 c 128,-1,33
 627 1270 627 1270 546 1270 c 0,34,35
 439 1270 439 1270 361 1252 c 1,36,-1
 360.589 795 l 1,37,-1
 504 795 l 1,38,-1
 504 655 l 1,39,-1
 360.463 655.324 l 1,20,-1
620 1409 m 29,40,-1
1135 1053 m 29,41,-1
620 0 m 29,42,-1
EndSplineSet
Layer: 2
SplineSet
61 795 m 1
 504 795 l 1
 504 655 l 1
 61 656 l 1
 61 795 l 1
584 -18 m 0
 362 -18 267.5 -1.5 180 13 c 1
 180 1372 l 1
 262.5 1386.5 390 1409 544 1409 c 0
 938 1409 1330 1152 1330 691 c 0
 1330 230 968 -18 584 -18 c 0
361 1252 m 1
 360 140 l 1
 426.5 127 468 122 557 122 c 0
 840 122 1142 316 1142 688 c 0
 1142 1071 813 1270 546 1270 c 0
 476 1270 395.5 1260 361 1252 c 1
EndSplineSet
EndChar

StartChar: exclamdown
Encoding: 161 161 150
Width: 442
Flags: W
LayerCount: 3
Fore
SplineSet
339 946 m 256,0,1
 339 896 339 896 304.5 860.5 c 128,-1,2
 270 825 270 825 221 825 c 256,3,4
 172 825 172 825 137.5 860.5 c 128,-1,5
 103 896 103 896 103 946 c 256,6,7
 103 996 103 996 137.5 1031.5 c 128,-1,8
 172 1067 172 1067 221 1067 c 256,9,10
 270 1067 270 1067 304.5 1031.5 c 128,-1,11
 339 996 339 996 339 946 c 256,0,1
341 -343 m 25,12,-1
 101 -343 l 1,13,-1
 165 589 l 1,14,-1
 257 589 l 1,15,-1
 341 -343 l 25,12,-1
EndSplineSet
Layer: 2
SplineSet
339 946 m 4xc0
 339 879 286 825 221 825 c 4
 156 825 103 879 103 946 c 4
 103 1013 156 1067 221 1067 c 4
 286 1067 339 1013 339 946 c 4xc0
341 -343 m 29
 101 -343 l 29
 165 589 l 29
 257 589 l 29xa0
 341 -343 l 29
EndSplineSet
EndChar

StartChar: questiondown
Encoding: 191 191 151
Width: 863
Flags: W
LayerCount: 3
Fore
SplineSet
763.997 -408 m 17,0,1
 733.541 -426.883 733.541 -426.883 717.368 -435.413 c 128,-1,2
 701.194 -443.943 701.194 -443.943 660.908 -460.415 c 128,-1,3
 620.623 -476.888 620.623 -476.888 568.68 -484.444 c 128,-1,4
 516.738 -492 516.738 -492 451.997 -492 c 0,5,6
 364.721 -492 364.721 -492 286.845 -458.089 c 128,-1,7
 208.968 -424.178 208.968 -424.178 158.483 -357.911 c 128,-1,8
 107.997 -291.644 107.997 -291.644 107.997 -208 c 0,9,10
 107.997 -141.05 107.997 -141.05 137.661 -68.6565 c 128,-1,11
 167.325 3.737 167.325 3.737 209.661 65.1685 c 128,-1,12
 251.997 126.6 251.997 126.6 294.333 184.432 c 128,-1,13
 336.669 242.263 336.669 242.263 366.333 299.056 c 128,-1,14
 395.997 355.85 395.997 355.85 395.997 400 c 0,15,16
 395.997 446.266 395.997 446.266 390.676 479.026 c 128,-1,17
 385.354 511.786 385.354 511.786 369.997 564 c 1,18,-1
 503.997 584 l 1,19,20
 512.247 568.643 512.247 568.643 521.56 547.312 c 128,-1,21
 530.872 525.982 530.872 525.982 538.747 505 c 128,-1,22
 546.623 484.018 546.623 484.018 551.81 455.188 c 128,-1,23
 556.997 426.357 556.997 426.357 556.997 396 c 0,24,25
 556.997 336.575 556.997 336.575 527.333 271.794 c 128,-1,26
 497.669 207.013 497.669 207.013 455.333 149.55 c 128,-1,27
 412.997 92.0875 412.997 92.0875 370.661 34.8499 c 128,-1,28
 328.325 -22.3878 328.325 -22.3878 298.661 -86.1939 c 128,-1,29
 268.997 -150 268.997 -150 268.997 -208 c 0,30,31
 268.997 -269.787 268.997 -269.787 328.243 -316.393 c 128,-1,32
 387.489 -363 387.489 -363 497.997 -363 c 0,33,34
 608.999 -363 608.999 -363 713.997 -300 c 1,35,-1
 763.997 -408 l 17,0,1
569.997 869 m 256,36,37
 569.997 818.81 569.997 818.81 535.402 783.405 c 128,-1,38
 500.806 748 500.806 748 451.997 748 c 256,39,40
 403.189 748 403.189 748 368.593 783.405 c 128,-1,41
 333.997 818.81 333.997 818.81 333.997 869 c 256,42,43
 333.997 919.19 333.997 919.19 368.593 954.595 c 128,-1,44
 403.189 990 403.189 990 451.997 990 c 256,45,46
 500.806 990 500.806 990 535.402 954.595 c 128,-1,47
 569.998 919.19 569.998 919.19 569.997 869 c 256,36,37
EndSplineSet
Layer: 2
SplineSet
763.997 -408 m 21xe8
 713.997 -439 635.998 -492 451.997 -492 c 4
 279.997 -492 107.997 -382 107.997 -208 c 4
 107.997 34 395.997 238 395.997 400 c 4
 395.997 463 389.997 496 369.997 564 c 13
 503.997 584 l 21
 525.997 538 556.998 482 556.997 396 c 4
 556.997 180 268.997 3 268.997 -208 c 4
 268.997 -282 339.997 -363 497.997 -363 c 4
 585.997 -363 663.998 -330 713.997 -300 c 13
 763.997 -408 l 21xe8
569.997 869 m 4xf0
 569.997 802 516.998 748 451.997 748 c 4
 386.997 748 333.997 802 333.997 869 c 4
 333.997 936 386.997 990 451.997 990 c 4
 516.997 990 569.998 936 569.997 869 c 4xf0
EndSplineSet
EndChar

StartChar: Oslash
Encoding: 216 216 152
Width: 1444
Flags: W
HStem: -102 141<237.8 1060.7> 1187 138<248.2 1071.1>
VStem: -23 192<196.5 1040.2> 1142 189<216 1022>
LayerCount: 3
Fore
SplineSet
727 1271 m 0,0,1
 573 1271 573 1271 460.5 1196 c 0,2,3
 348 1121 348 1121 292.5 994 c 0,4,5
 237 867 237 867 237 703 c 0,6,7
 237 501.111 237 501.111 317.239 356.5 c 1,8,-1
 1002.53 1185.89 l 1,9,10
 886.945 1271 886.945 1271 727 1271 c 0,0,1
202 0 m 1,11,-1
 102 96 l 1,12,-1
 198.237 212.473 l 1,13,14
 45 404.495 45 404.495 45 703 c 0,15,16
 45 855 45 855 90.5 984 c 0,17,18
 136 1113 136 1113 220.5 1207.5 c 0,19,20
 305 1302 305 1302 435 1355.5 c 0,21,22
 565 1409 565 1409 727 1409 c 0,23,24
 944.767 1409 944.767 1409 1103.46 1308.05 c 1,25,-1
 1172 1391 l 1,26,-1
 1272 1295 l 1,27,-1
 1210.48 1220.55 l 1,28,29
 1302.98 1124.54 1302.98 1124.54 1350.99 990.947 c 0,30,31
 1399 857.354 1399 857.354 1399 703 c 0,32,33
 1399 587 1399 587 1371 479.5 c 0,34,35
 1343 372 1343 372 1286 281.5 c 0,36,37
 1229 191 1229 191 1149.5 124 c 0,38,39
 1070 57 1070 57 961.5 19.5 c 0,40,41
 853 -18 853 -18 727 -18 c 0,42,43
 468.964 -18 468.964 -18 297.029 115.011 c 1,44,-1
 202 0 l 1,11,-1
1099.84 1086.64 m 1,45,-1
 403.435 243.792 l 1,46,47
 530.131 123 530.131 123 727 123 c 0,48,49
 840 123 840 123 932.5 170 c 0,50,51
 1025 217 1025 217 1085 297 c 0,52,53
 1145 377 1145 377 1177.5 481.5 c 0,54,55
 1210 586 1210 586 1210 703 c 0,56,57
 1210 933.111 1210 933.111 1099.84 1086.64 c 1,45,-1
EndSplineSet
Layer: 2
SplineSet
202 0 m 17
 102 96 l 9
 1172 1391 l 1
 1272 1295 l 1
 202 0 l 17
727 1271 m 0
 411 1271 237 1027 237 703 c 0
 237 378 403 123 727 123 c 0
 1036 123 1210 393 1210 703 c 0
 1210 1013 1044 1271 727 1271 c 0
727 1409 m 0
 1168 1409 1399 1090 1399 703 c 0
 1399 316 1157 -18 727 -18 c 0
 276 -18 45 297 45 703 c 0
 45 1108 287 1409 727 1409 c 0
EndSplineSet
EndChar

StartChar: oslash
Encoding: 248 248 153
Width: 1012
Flags: W
LayerCount: 3
Fore
SplineSet
61 469 m 0,0,1
 61 576 61 576 86.5 661 c 128,-1,3
 112 746 112 746 154.5 800.5 c 128,-1,5
 197 855 197 855 255.5 890.5 c 128,-1,7
 314 926 314 926 376 941 c 128,-1,9
 438 956 438 956 506 956 c 0,10,11
 680.172 956 680.172 956 794.417 864.335 c 1,12,-1
 860 938 l 1,13,-1
 927 870.5 l 1,14,-1
 860.313 795.596 l 1,15,16
 951 672.597 951 672.597 951 469 c 0,17,18
 951 362 951 362 925.5 277 c 128,-1,20
 900 192 900 192 857.5 137.5 c 128,-1,22
 815 83 815 83 756.5 47.5 c 128,-1,24
 698 12 698 12 636 -3 c 128,-1,26
 574 -18 574 -18 506 -18 c 0,27,28
 331.828 -18 331.828 -18 217.583 73.6651 c 1,29,-1
 152 0 l 1,30,-1
 85 67.5 l 1,31,-1
 151.687 142.404 l 1,32,33
 61 265.403 61 265.403 61 469 c 0,0,1
750.52 672.273 m 1,34,-1
 315.994 184.202 l 1,35,36
 389.988 111 389.988 111 506 111 c 0,37,38
 561 111 561 111 609 129.5 c 128,-1,40
 657 148 657 148 698.5 187.5 c 128,-1,42
 740 227 740 227 764 299.5 c 128,-1,44
 788 372 788 372 788 469 c 0,45,46
 788 589.72 788 589.72 750.52 672.273 c 1,34,-1
695.553 753.288 m 1,47,48
 622.16 827 622.16 827 506 827 c 0,49,50
 451 827 451 827 402.5 808.5 c 128,-1,52
 354 790 354 790 312.5 750.5 c 128,-1,54
 271 711 271 711 246.5 638.5 c 128,-1,56
 222 566 222 566 222 469 c 0,57,58
 222 347.518 222 347.518 260.469 264.591 c 1,59,-1
 695.553 753.288 l 1,47,48
EndSplineSet
Layer: 2
SplineSet
152 0 m 17x5c
 85 67.5 l 9
 860 938 l 9
 927 870.5 l 17
 152 0 l 17x5c
222 469 m 0
 222 198 367 111 506 111 c 0
 645 111 788 198 788 469 c 0
 788 740 645 827 506 827 c 0xac
 367 827 222 740 222 469 c 0
61 469 m 0
 61 838 288 956 506 956 c 0
 724 956 951 838 951 469 c 0
 951 100 724 -18 506 -18 c 0
 288 -18 61 100 61 469 c 0
EndSplineSet
EndChar

StartChar: multiply
Encoding: 215 215 154
Width: 1130
Flags: W
LayerCount: 3
Fore
SplineSet
566 581 m 1,0,-1
 883 899 l 1,1,-1
 960 821 l 1,2,-1
 643 504 l 1,3,-1
 960 187 l 1,4,-1
 882 109 l 1,5,-1
 565 426 l 1,6,-1
 248 109 l 1,7,-1
 170 186 l 1,8,-1
 488 503 l 1,9,-1
 170 821 l 1,10,-1
 248 899 l 1,11,-1
 566 581 l 1,0,-1
EndSplineSet
Layer: 2
SplineSet
566 581 m 1
 883 899 l 1
 960 821 l 1
 643 504 l 1
 960 187 l 1
 882 109 l 1
 565 426 l 1
 248 109 l 1
 170 186 l 1
 488 503 l 1
 170 821 l 1
 248 899 l 1
 566 581 l 1
EndSplineSet
EndChar

StartChar: uni0283
Encoding: 643 643 155
Width: 572
Flags: W
LayerCount: 3
Fore
SplineSet
131 688 m 18,0,0
 109 749 109 749 84 856 c 128,-1,1
 59 963 59 963 59 1020 c 0,2,3
 59 1464 59 1464 410 1464 c 0,4,5
 469 1464 469 1464 518 1452.5 c 128,-1,6
 567 1441 567 1441 590.5 1429.5 c 128,-1,7
 614 1418 614 1418 644 1398.5 c 128,-1,8
 674 1379 674 1379 683 1374 c 1,9,-1
 639 1247 l 1,10,11
 598 1283 598 1283 536.5 1309.5 c 128,-1,12
 475 1336 475 1336 412 1336 c 0,13,14
 338 1336 338 1336 279 1261 c 128,-1,15
 220 1186 220 1186 220 1057 c 0,16,17
 220 1007.92 220 1007.92 243.23 907.209 c 128,-1,18
 266.46 806.501 266.46 806.501 285.551 754 c 2,19,-1
 427 296 l 2,20,21
 454 221 454 221 483.5 115 c 128,-1,22
 513 9 513 9 513 -46 c 0,23,24
 513 -490 513 -490 162 -490 c 0,25,26
 103 -490 103 -490 54 -478.5 c 128,-1,27
 5 -467 5 -467 -18.5 -455.5 c 128,-1,28
 -42 -444 -42 -444 -72 -424.5 c 128,-1,29
 -102 -405 -102 -405 -111 -400 c 1,30,-1
 -67 -273 l 1,31,32
 -26 -309 -26 -309 35.5 -335.5 c 128,-1,33
 97 -362 97 -362 160 -362 c 0,34,35
 248 -362 248 -362 300 -281.5 c 128,-1,36
 352 -201 352 -201 352 -83 c 0,37,38
 352 -35.8979 352 -35.8979 324.226 64.0464 c 128,-1,39
 296.452 163.991 296.452 163.991 272.449 230 c 2,40,-1
 131 688 l 18,0,0
EndSplineSet
Layer: 2
SplineSet
131 688 m 18
 106.441 755.539 59 936.913 59 1020 c 0
 59 1270 143 1464 410 1464 c 0
 580 1464 633 1400 683 1374 c 9
 639 1247 l 17
 591 1289 503 1336 412 1336 c 0
 323 1336 220 1240 220 1057 c 0
 220 985.284 264.053 813.12 285.551 754 c 2
 427 296 l 18
 451.56 228.46 513 37.0869 513 -46 c 0
 513 -296 429 -490 162 -490 c 0
 -8 -490 -61 -426 -111 -400 c 9
 -67 -273 l 17
 -19 -315 69 -362 160 -362 c 0
 282 -362 352 -234 352 -83 c 0
 352 -11.2842 293.946 170.881 272.449 230 c 2
 131 688 l 18
EndSplineSet
EndChar

StartChar: uni01A9
Encoding: 425 425 156
Width: 1040
Flags: W
LayerCount: 3
Fore
SplineSet
55 1 m 1,0,-1
 583 696 l 1,1,-1
 55 1392 l 1,2,-1
 938 1392 l 1,3,-1
 938 1253 l 1,4,-1
 349 1253 l 1,5,-1
 770 696 l 1,6,-1
 350 140 l 1,7,-1
 938 141 l 1,8,-1
 938 1 l 1,9,-1
 55 1 l 1,0,-1
EndSplineSet
Layer: 2
SplineSet
55 1 m 1
 583 696 l 1
 55 1392 l 1
 938 1392 l 1
 938 1253 l 1
 349 1253 l 1
 770 696 l 1
 350 140 l 1
 938 141 l 1
 938 1 l 1
 55 1 l 1
EndSplineSet
EndChar

StartChar: uni01B2
Encoding: 434 434 157
Width: 1325
Flags: W
AnchorPoint: "above" 656 1409 basechar 0 33
AnchorPoint: "below" 656 0 basechar 0 31
AnchorPoint: "cedilla" 656 0 basechar 0 31
AnchorPoint: "ogonek" 656 0 basechar 0 31
AnchorPoint: "topright" 964 1160 basechar 0 32
LayerCount: 3
Fore
SplineSet
681 -18 m 0,0,1
 180 -18 180 -18 180 438 c 2,2,-1
 180 1391 l 1,3,-1
 361 1391 l 1,4,-1
 361 486 l 2,5,6
 361 384 361 384 386.5 311 c 128,-1,7
 412 238 412 238 458.5 198 c 128,-1,8
 505 158 505 158 559.5 140.5 c 128,-1,9
 614 123 614 123 681 123 c 0,10,11
 749 123 749 123 818.5 151 c 128,-1,12
 888 179 888 179 950 232.5 c 128,-1,13
 1012 286 1012 286 1051.5 377.5 c 128,-1,14
 1091 469 1091 469 1091 583 c 0,15,16
 1091 688.092 1091 688.092 1067.4 781.495 c 128,-1,17
 1043.81 874.897 1043.81 874.897 995.12 960.552 c 128,-1,18
 946.433 1046.21 946.433 1046.21 884.164 1121.96 c 128,-1,19
 821.896 1197.72 821.896 1197.72 732.72 1284 c 1,20,-1
 874.5 1409 l 1,21,22
 962.895 1316.49 962.895 1316.49 1020.75 1248.3 c 128,-1,23
 1078.61 1180.11 1078.61 1180.11 1132.25 1100.23 c 128,-1,24
 1185.89 1020.34 1185.89 1020.34 1215.57 945.352 c 128,-1,25
 1245.25 870.362 1245.25 870.362 1262.63 779.418 c 128,-1,26
 1280 688.475 1280 688.475 1280 583 c 0,27,28
 1280 405 1280 405 1201.5 267.5 c 128,-1,29
 1123 130 1123 130 987 56 c 128,-1,30
 851 -18 851 -18 681 -18 c 0,0,1
656 0 m 25,31,-1
964 1160 m 25,32,-1
656 1409 m 25,33,-1
EndSplineSet
Layer: 2
SplineSet
681 -18 m 0
 374 -18 180 109 180 438 c 2
 180 1391 l 1
 361 1391 l 1
 361 486 l 2
 361 204 513 123 681 123 c 0
 853 123 1091 264 1091 583 c 0
 1091 869 957 1067 732.72 1284 c 9
 874.5 1409 l 17
 1143 1128 1280 938.414 1280 583 c 0
 1280 220 1023 -18 681 -18 c 0
EndSplineSet
EndChar

StartChar: uni0269
Encoding: 617 617 158
Width: 593
Flags: W
AnchorPoint: "topright" 244 828 basechar 0 15
AnchorPoint: "ogonek" 344 0 basechar 0 14
AnchorPoint: "cedilla" 344 0 basechar 0 14
AnchorPoint: "below" 344 0 basechar 0 14
AnchorPoint: "above" 244 956 basechar 0 16
LayerCount: 3
Fore
SplineSet
324.998 938 m 1,0,-1
 325 256 l 2,1,2
 325 179 325 179 355.5 145.5 c 128,-1,3
 386 112 386 112 423 112 c 0,4,5
 438 112 438 112 526 120 c 1,6,-1
 539 3 l 1,7,8
 439 -18 439 -18 372 -18 c 0,9,10
 270 -18 270 -18 217 44.5 c 128,-1,11
 164 107 164 107 164 246 c 2,12,-1
 163.998 938 l 1,13,-1
 324.998 938 l 1,0,-1
344 0 m 25,14,-1
244 828 m 25,15,-1
244 956 m 25,16,-1
EndSplineSet
Layer: 2
SplineSet
324.998 938 m 1
 325 256 l 2
 325 142 384 112 423 112 c 0
 463 112 482 116 526 120 c 1
 539 3 l 1
 482 -9 443 -18 372 -18 c 0
 241 -18 164 55 164 246 c 2
 163.998 938 l 1
 324.998 938 l 1
EndSplineSet
EndChar

StartChar: uni0263
Encoding: 611 611 159
Width: 1040
Flags: W
LayerCount: 3
Fore
SplineSet
516.253 -41.9496 m 1,0,1
 462 -175.812 462 -175.812 462 -276 c 0,2,3
 462 -330 462 -330 475 -348.5 c 128,-1,4
 488 -367 488 -367 516 -367 c 0,5,6
 549 -367 549 -367 562.5 -349 c 128,-1,7
 576 -331 576 -331 576 -276 c 0,8,9
 576 -220.353 576 -220.353 561.113 -166.324 c 128,-1,10
 546.226 -112.294 546.226 -112.294 516.253 -41.9496 c 1,0,1
437.823 136.343 m 1,11,-1
 84 938 l 1,12,-1
 257 938 l 1,13,-1
 524.486 331.593 l 1,14,-1
 794 938 l 1,15,-1
 956 938 l 1,16,-1
 602.992 153.539 l 1,17,18
 673.267 -6.99198 673.267 -6.99198 705.133 -109.759 c 128,-1,19
 737 -212.526 737 -212.526 737 -300 c 0,20,21
 737 -379 737 -379 673.5 -435.5 c 128,-1,22
 610 -492 610 -492 516 -492 c 0,23,24
 429 -492 429 -492 365 -437.5 c 128,-1,25
 301 -383 301 -383 301 -290 c 0,26,27
 301 -230.476 301 -230.476 331.191 -134.327 c 128,-1,28
 361.381 -38.1778 361.381 -38.1778 437.823 136.343 c 1,11,-1
EndSplineSet
Layer: 2
SplineSet
542 18 m 26
 493.236 -90.3633 462 -182 462 -276 c 0
 462 -352 482 -367 516 -367 c 0
 558 -367 576 -352 576 -276 c 0
 576 -183 543.166 -102.332 498 0 c 18
 84 938 l 1
 257 938 l 1
 594 174 l 18
 685.776 -34.0635 737 -172 737 -300 c 0
 737 -404.938 642 -492 516 -492 c 0
 407 -492 301 -420 301 -290 c 0
 301 -210 335.608 -93.3818 454 173 c 10
 794 938 l 17
 956 938 l 9
 542 18 l 26
EndSplineSet
EndChar

StartChar: uni0306
Encoding: 774 774 160
Width: 0
Flags: MW
AnchorPoint: "mark-above" 0 956 mark 0 19
AnchorPoint: "mark-above" 0 1475 basemark 0 18
AnchorPoint: "above" 0 956 mark 0 19
LayerCount: 3
Fore
SplineSet
0 1130 m 256,0,1
 -64 1130 -64 1130 -116 1147.5 c 128,-1,2
 -168 1165 -168 1165 -200.5 1190.5 c 128,-1,3
 -233 1216 -233 1216 -258.5 1255.5 c 128,-1,4
 -284 1295 -284 1295 -297 1328.5 c 128,-1,5
 -310 1362 -310 1362 -322 1405 c 1,6,-1
 -234 1440 l 1,7,8
 -169 1252 -169 1252 0 1252 c 256,9,10
 169 1252 169 1252 234 1440 c 1,11,-1
 322 1405 l 1,12,13
 310 1362 310 1362 297 1328.5 c 128,-1,14
 284 1295 284 1295 258.5 1255.5 c 128,-1,15
 233 1216 233 1216 200.5 1190.5 c 128,-1,16
 168 1165 168 1165 116 1147.5 c 128,-1,17
 64 1130 64 1130 0 1130 c 256,0,1
0 1475 m 25,18,-1
0 956 m 25,19,-1
EndSplineSet
Layer: 2
SplineSet
0 1130 m 0
 -224 1130 -288 1282 -322 1405 c 1
 -234 1440 l 1
 -196 1330 -128 1252 0 1252 c 128
 128 1252 196 1330 234 1440 c 1
 322 1405 l 1
 288 1282 224 1130 0 1130 c 0
EndSplineSet
EndChar

StartChar: uni0311
Encoding: 785 785 161
Width: 0
Flags: MW
AnchorPoint: "above" 0 956 mark 0 19
AnchorPoint: "mark-above" 0 1475 basemark 0 18
AnchorPoint: "mark-above" 0 956 mark 0 19
LayerCount: 3
Fore
SplineSet
0 1440 m 256,0,1
 64 1440 64 1440 116 1422.5 c 128,-1,2
 168 1405 168 1405 200.5 1379.5 c 128,-1,3
 233 1354 233 1354 258.5 1314.5 c 128,-1,4
 284 1275 284 1275 297 1241.5 c 128,-1,5
 310 1208 310 1208 322 1165 c 1,6,-1
 234 1130 l 1,7,8
 169 1318 169 1318 0 1318 c 256,9,10
 -169 1318 -169 1318 -234 1130 c 1,11,-1
 -322 1165 l 1,12,13
 -310 1208 -310 1208 -297 1241.5 c 128,-1,14
 -284 1275 -284 1275 -258.5 1314.5 c 128,-1,15
 -233 1354 -233 1354 -200.5 1379.5 c 128,-1,16
 -168 1405 -168 1405 -116 1422.5 c 128,-1,17
 -64 1440 -64 1440 0 1440 c 256,0,1
0 1475 m 25,18,-1
0 956 m 25,19,-1
EndSplineSet
Layer: 2
SplineSet
0 1440 m 0
 224 1440 288 1288 322 1165 c 1
 234 1130 l 1
 196 1240 128 1318 0 1318 c 128
 -128 1318 -196 1240 -234 1130 c 1
 -322 1165 l 1
 -288 1288 -224 1440 0 1440 c 0
EndSplineSet
EndChar

StartChar: hookabovecomb
Encoding: 777 777 162
Width: 0
Flags: MW
AnchorPoint: "mark-above" 0 956 mark 0 34
AnchorPoint: "mark-above" 0 1475 basemark 0 33
AnchorPoint: "above" 0 956 mark 0 34
LayerCount: 3
Fore
SplineSet
-150 1350 m 17,0,1
 -130 1382 -130 1382 -88.5 1411 c 128,-1,2
 -47 1440 -47 1440 11 1440 c 0,3,4
 81 1440 81 1440 123 1393.5 c 128,-1,5
 165 1347 165 1347 165 1278 c 0,6,7
 165 1248 165 1248 152.5 1225 c 128,-1,8
 140 1202 140 1202 122 1188.5 c 128,-1,9
 104 1175 104 1175 85.5 1163 c 128,-1,10
 67 1151 67 1151 54.5 1135.5 c 128,-1,11
 42 1120 42 1120 42 1100 c 0,12,13
 42 1084.82 42 1084.82 44.9274 1072.49 c 128,-1,14
 47.8547 1060.17 47.8547 1060.17 53.1325 1045.54 c 128,-1,15
 58.4104 1030.9 58.4104 1030.9 61 1020 c 1,16,-1
 -24 1020 l 1,17,18
 -36.7619 1036.75 -36.7619 1036.75 -46.381 1062 c 128,-1,19
 -56 1087.25 -56 1087.25 -56 1108 c 0,20,21
 -56 1136 -56 1136 -44.5 1156.5 c 128,-1,22
 -33 1177 -33 1177 -17 1190 c 128,-1,23
 -1 1203 -1 1203 15 1214 c 128,-1,24
 31 1225 31 1225 42.5 1240.5 c 128,-1,25
 54 1256 54 1256 54 1275 c 0,26,27
 54 1296 54 1296 39 1314 c 128,-1,28
 24 1332 24 1332 -3.5 1332 c 0,29,30
 -27 1332 -27 1332 -49 1320.5 c 128,-1,31
 -71 1309 -71 1309 -81 1295 c 1,32,-1
 -150 1350 l 17,0,1
0 1475 m 25,33,-1
0 956 m 25,34,-1
EndSplineSet
Layer: 2
SplineSet
-150 1359 m 21
 -131.5 1388 -77 1449 11 1449 c 4
 106 1449 165 1377.18 165 1287 c 4
 165 1177 42 1182 42 1109 c 4
 42 1074.85 53.5898 1060.2 61 1029 c 29
 -24 1029 l 21
 -40 1050 -56 1088 -56 1117 c 4
 -56 1217 54 1213 54 1284 c 4
 54 1309 36 1341 -3.5 1341 c 4
 -37 1341 -69 1320 -81 1304 c 13
 -150 1359 l 21
EndSplineSet
EndChar

StartChar: uni030A
Encoding: 778 778 163
Width: 0
Flags: W
AnchorPoint: "above" 0 956 mark 0 25
AnchorPoint: "mark-above" 0 1475 basemark 0 24
AnchorPoint: "mark-above" 0 956 mark 0 25
LayerCount: 3
Fore
SplineSet
-95 1220 m 256,0,1
 -95 1181 -95 1181 -67 1153.5 c 128,-1,2
 -39 1126 -39 1126 0 1126 c 256,3,4
 39 1126 39 1126 67 1153.5 c 128,-1,5
 95 1181 95 1181 95 1220 c 256,6,7
 95 1260 95 1260 67 1287.5 c 128,-1,8
 39 1315 39 1315 0 1315 c 256,9,10
 -39 1315 -39 1315 -67 1287.5 c 128,-1,11
 -95 1260 -95 1260 -95 1220 c 256,0,1
-180 1220 m 256,12,13
 -180 1294 -180 1294 -127 1347 c 128,-1,14
 -74 1400 -74 1400 0 1400 c 256,15,16
 74 1400 74 1400 127 1347 c 128,-1,17
 180 1294 180 1294 180 1220 c 256,18,19
 180 1146 180 1146 127 1093 c 128,-1,20
 74 1040 74 1040 0 1040 c 256,21,22
 -74 1040 -74 1040 -127 1093 c 128,-1,23
 -180 1146 -180 1146 -180 1220 c 256,12,13
0 1475 m 25,24,-1
0 956 m 25,25,-1
EndSplineSet
Layer: 2
SplineSet
-95 1269 m 4
 -95 1217 -52 1175 0 1175 c 4
 52 1175 95 1217 95 1269 c 4
 95 1322 52 1364 0 1364 c 4
 -52 1364 -95 1322 -95 1269 c 4
-180 1269 m 4
 -180 1368 -99 1449 0 1449 c 4
 99 1449 180 1368 180 1269 c 4
 180 1170 99 1089 0 1089 c 4
 -99 1089 -180 1170 -180 1269 c 4
EndSplineSet
EndChar

StartChar: uni0304
Encoding: 772 772 164
Width: 0
Flags: W
AnchorPoint: "mark-above" 0 1120 mark 0 6
AnchorPoint: "mark-above" 0 1329 basemark 0 4
AnchorPoint: "above" 0 956 mark 0 5
LayerCount: 3
Fore
SplineSet
314 1200 m 25,0,-1
 -314 1200 l 1,1,-1
 -314 1309 l 1,2,-1
 314 1309 l 1,3,-1
 314 1200 l 25,0,-1
0 1329 m 25,4,-1
0 956 m 25,5,-1
0 1120 m 25,6,-1
EndSplineSet
Layer: 2
SplineSet
314 1067 m 29
 -314 1067 l 29
 -314 1176 l 21
 314 1176 l 13
 314 1067 l 29
EndSplineSet
EndChar

StartChar: uni0326
Encoding: 806 806 165
Width: 0
Flags: W
AnchorPoint: "below" 0 0 mark 0
LayerCount: 3
Fore
SplineSet
-26 -282 m 4,0,1
 -26 -275 -26 -275 -40.5 -267 c 132,-1,2
 -55 -259 -55 -259 -72 -251 c 132,-1,3
 -89 -243 -89 -243 -103.5 -220 c 132,-1,4
 -118 -197 -118 -197 -118 -164 c 4,5,6
 -118 -116 -118 -116 -84.5 -89 c 132,-1,7
 -51 -62 -51 -62 0 -62 c 4,8,9
 54 -62 54 -62 90 -106 c 132,-1,10
 126 -150 126 -150 126 -209 c 4,11,12
 126 -271 126 -271 93.5 -330 c 132,-1,13
 61 -389 61 -389 -30 -458 c 5,14,-1
 -112 -386 l 5,15,16
 -26 -318 -26 -318 -26 -282 c 4,0,1
EndSplineSet
Layer: 2
SplineSet
-26 -318 m 4
 -26 -295 -118 -297 -118 -200 c 4
 -118 -133 -65 -98 0 -98 c 4
 74 -98 126 -168 126 -245 c 4
 126 -317 102 -394 -30 -494 c 13
 -112 -422 l 21
 -58 -379.5 -26 -343 -26 -318 c 4
EndSplineSet
EndChar

StartChar: uni0325
Encoding: 805 805 166
Width: 0
Flags: W
AnchorPoint: "below" 0 0 mark 0
LayerCount: 3
Fore
SplineSet
-95 -242 m 256,0,1
 -95 -281 -95 -281 -67 -308.5 c 128,-1,2
 -39 -336 -39 -336 0 -336 c 256,3,4
 39 -336 39 -336 67 -308.5 c 128,-1,5
 95 -281 95 -281 95 -242 c 256,6,7
 95 -202 95 -202 67 -174.5 c 128,-1,8
 39 -147 39 -147 0 -147 c 256,9,10
 -39 -147 -39 -147 -67 -174.5 c 128,-1,11
 -95 -202 -95 -202 -95 -242 c 256,0,1
-180 -242 m 256,12,13
 -180 -168 -180 -168 -127 -115 c 128,-1,14
 -74 -62 -74 -62 0 -62 c 256,15,16
 74 -62 74 -62 127 -115 c 128,-1,17
 180 -168 180 -168 180 -242 c 256,18,19
 180 -316 180 -316 127 -369 c 128,-1,20
 74 -422 74 -422 0 -422 c 256,21,22
 -74 -422 -74 -422 -127 -369 c 128,-1,23
 -180 -316 -180 -316 -180 -242 c 256,12,13
EndSplineSet
Layer: 2
SplineSet
-95 -312 m 4
 -95 -364 -52 -406 0 -406 c 4
 52 -406 95 -364 95 -312 c 4
 95 -259 52 -217 0 -217 c 4
 -52 -217 -95 -259 -95 -312 c 4
-180 -312 m 4
 -180 -213 -99 -132 0 -132 c 4
 99 -132 180 -213 180 -312 c 4
 180 -411 99 -492 0 -492 c 4
 -99 -492 -180 -411 -180 -312 c 4
EndSplineSet
EndChar

StartChar: uni0328
Encoding: 808 808 167
Width: 0
Flags: MW
AnchorPoint: "ogonek" 0 0 mark 0 18
LayerCount: 3
Fore
SplineSet
48 36 m 17,0,1
 -65 -113 -65 -113 -65 -194 c 0,2,3
 -65 -248 -65 -248 -38.5 -270 c 128,-1,4
 -12 -292 -12 -292 39 -292 c 0,5,6
 65.6772 -292 65.6772 -292 87.6787 -281 c 1,7,-1
 103 -374 l 1,8,9
 69 -390 69 -390 26 -390 c 0,10,11
 -67 -390 -67 -390 -119.5 -333.5 c 128,-1,12
 -172 -277 -172 -277 -172 -202 c 0,13,14
 -172 -149 -172 -149 -143 -96 c 128,-1,15
 -114 -43 -114 -43 -45 36 c 1,16,-1
 48 36 l 17,0,1
0 -390 m 25,17,-1
0 0 m 25,18,-1
EndSplineSet
Layer: 2
SplineSet
48 36 m 17
 -6 -35 -65 -124 -65 -194 c 0
 -65 -269 -25.3213 -292 39 -292 c 0
 56 -292 73.0117 -288.333 87.6787 -281 c 9
 103 -374 l 17
 75 -387 56 -390 26 -390 c 0
 -106 -390 -172 -294 -172 -202 c 0
 -172 -129 -134 -66 -45 36 c 9
 48 36 l 17
EndSplineSet
EndChar

StartChar: uni0331
Encoding: 817 817 168
Width: 0
Flags: W
AnchorPoint: "below" 0 0 mark 0 5
AnchorPoint: "mark-below" 0 0 mark 0 5
AnchorPoint: "mark-below" 0 -349 basemark 0 4
LayerCount: 3
Fore
SplineSet
-314 -109 m 25,0,-1
 314 -109 l 1,1,-1
 314 -218 l 1,2,-1
 -314 -218 l 1,3,-1
 -314 -109 l 25,0,-1
0 -349 m 25,4,-1
0 0 m 25,5,-1
EndSplineSet
Layer: 2
SplineSet
-314 -129 m 25
 314 -129 l 25
 314 -238 l 17
 -314 -238 l 9
 -314 -129 l 25
EndSplineSet
EndChar

StartChar: uni030B
Encoding: 779 779 169
Width: 0
Flags: W
AnchorPoint: "above" 0 956 mark 0 9
AnchorPoint: "mark-above" 0 1475 basemark 0 8
AnchorPoint: "mark-above" 0 956 mark 0 9
LayerCount: 3
Fore
SplineSet
22 1475 m 25,0,-1
 -217 1100 l 1,1,-1
 -309 1144 l 1,2,-1
 -166 1475 l 1,3,-1
 22 1475 l 25,0,-1
382 1475 m 25,4,-1
 143 1100 l 1,5,-1
 51 1144 l 1,6,-1
 194 1475 l 1,7,-1
 382 1475 l 25,4,-1
0 1475 m 25,8,-1
0 956 m 25,9,-1
EndSplineSet
EndChar

StartChar: uni0312
Encoding: 786 786 170
Width: 0
Flags: W
AnchorPoint: "above" 0 956 mark 0 18
AnchorPoint: "mark-above" 0 1475 basemark 0 17
AnchorPoint: "mark-above" 0 956 mark 0 18
LayerCount: 3
Fore
SplineSet
34 1254 m 0,0,1
 34 1247 34 1247 48.5 1239 c 128,-1,2
 63 1231 63 1231 80 1223 c 128,-1,3
 97 1215 97 1215 111.5 1192 c 128,-1,4
 126 1169 126 1169 126 1136 c 0,5,6
 126 1088 126 1088 92.5 1061 c 128,-1,7
 59 1034 59 1034 8 1034 c 0,8,9
 -46 1034 -46 1034 -82 1078 c 128,-1,10
 -118 1122 -118 1122 -118 1181 c 0,11,12
 -118 1243 -118 1243 -85.5 1302 c 128,-1,13
 -53 1361 -53 1361 38 1430 c 1,14,-1
 120 1358 l 1,15,16
 34 1290 34 1290 34 1254 c 0,0,1
0 1475 m 25,17,-1
0 956 m 25,18,-1
EndSplineSet
Layer: 2
SplineSet
34 1254 m 0
 34 1231 126 1233 126 1136 c 0
 126 1069 73 1034 8 1034 c 0
 -66 1034 -118 1104 -118 1181 c 0
 -118 1253 -94 1330 38 1430 c 9
 120 1358 l 17
 66 1315.5 34 1279 34 1254 c 0
EndSplineSet
EndChar

StartChar: uni0314
Encoding: 788 788 172
Width: 0
Flags: W
AnchorPoint: "above" 0 956 mark 0 18
AnchorPoint: "mark-above" 0 1475 basemark 0 17
AnchorPoint: "mark-above" 0 956 mark 0 18
LayerCount: 3
Fore
SplineSet
34 1210 m 0,0,1
 34 1174 34 1174 120 1106 c 1,2,-1
 38 1034 l 1,3,4
 -53 1103 -53 1103 -85.5 1162 c 128,-1,5
 -118 1221 -118 1221 -118 1283 c 0,6,7
 -118 1342 -118 1342 -82 1386 c 128,-1,8
 -46 1430 -46 1430 8 1430 c 0,9,10
 59 1430 59 1430 92.5 1403 c 128,-1,11
 126 1376 126 1376 126 1328 c 0,12,13
 126 1295 126 1295 111.5 1272 c 128,-1,14
 97 1249 97 1249 80 1241 c 128,-1,15
 63 1233 63 1233 48.5 1225 c 128,-1,16
 34 1217 34 1217 34 1210 c 0,0,1
0 1475 m 25,17,-1
0 956 m 25,18,-1
EndSplineSet
Layer: 2
SplineSet
34 1210 m 0
 34 1185 66 1148.5 120 1106 c 9
 38 1034 l 17
 -94 1134 -118 1211 -118 1283 c 0
 -118 1360 -66 1430 8 1430 c 0
 73 1430 126 1395 126 1328 c 0
 126 1231 34 1233 34 1210 c 0
EndSplineSet
EndChar

StartChar: uni0315
Encoding: 789 789 173
Width: 0
Flags: W
AnchorPoint: "above" 0 956 mark 0 18
AnchorPoint: "mark-above" 0 1475 basemark 0 17
AnchorPoint: "mark-above" 0 956 mark 0 18
LayerCount: 3
Fore
SplineSet
-26 1210 m 0,0,1
 -26 1217 -26 1217 -40.5 1225 c 128,-1,2
 -55 1233 -55 1233 -72 1241 c 128,-1,3
 -89 1249 -89 1249 -103.5 1272 c 128,-1,4
 -118 1295 -118 1295 -118 1328 c 0,5,6
 -118 1376 -118 1376 -84.5 1403 c 128,-1,7
 -51 1430 -51 1430 0 1430 c 0,8,9
 54 1430 54 1430 90 1386 c 128,-1,10
 126 1342 126 1342 126 1283 c 0,11,12
 126 1221 126 1221 93.5 1162 c 128,-1,13
 61 1103 61 1103 -30 1034 c 1,14,-1
 -112 1106 l 1,15,16
 -26 1174 -26 1174 -26 1210 c 0,0,1
0 1475 m 25,17,-1
0 956 m 25,18,-1
EndSplineSet
Layer: 2
SplineSet
-26 1210 m 0
 -26 1233 -118 1231 -118 1328 c 0
 -118 1395 -65 1430 0 1430 c 0
 74 1430 126 1360 126 1283 c 0
 126 1211 102 1134 -30 1034 c 9
 -112 1106 l 17
 -58 1148.5 -26 1185 -26 1210 c 0
EndSplineSet
EndChar

